<svg xmlns="http://www.w3.org/2000/svg" xmlns:xlink="http://www.w3.org/1999/xlink" version="1.1" width="256" height="256" viewBox="0 0 256 256" xml:space="preserve">

<defs>
</defs>
<g style="stroke: none; stroke-width: 0; stroke-dasharray: none; stroke-linecap: butt; stroke-linejoin: miter; stroke-miterlimit: 10; fill: none; fill-rule: nonzero; opacity: 1;" transform="translate(1.4065934065934016 1.4065934065934016) scale(2.81 2.81)" >
	<path d="M 66.257 82.311 H 7.689 C 3.995 82.311 1 79.316 1 75.622 V 47.676 c 0 -3.694 2.995 -6.689 6.689 -6.689 h 58.568 c 3.694 0 6.689 2.995 6.689 6.689 v 27.946 C 72.946 79.316 69.951 82.311 66.257 82.311 z" style="stroke: none; stroke-width: 1; stroke-dasharray: none; stroke-linecap: butt; stroke-linejoin: miter; stroke-miterlimit: 10; fill: #6C2ED2; fill-rule: nonzero; opacity: 1;" transform=" matrix(1 0 0 1 0 0) " stroke-linecap="round" />
	<path d="M 47.667 7.689 c -9.195 0 -16.649 7.454 -16.649 16.649 c 0 9.195 7.454 16.649 16.649 16.649 c 9.195 0 16.649 -7.454 16.649 -16.649 C 64.316 15.143 56.862 7.689 47.667 7.689 z M 47.667 34.205 c -5.449 0 -9.867 -4.417 -9.867 -9.867 s 4.417 -9.867 9.867 -9.867 s 9.867 4.417 9.867 9.867 S 53.116 34.205 47.667 34.205 z" style="stroke: none; stroke-width: 1; stroke-dasharray: none; stroke-linecap: butt; stroke-linejoin: miter; stroke-miterlimit: 10; fill: #6C2ED2; fill-rule: nonzero; opacity: 1;" transform=" matrix(1 0 0 1 0 0) " stroke-linecap="round" />
	<path d="M 20.187 19.323 c -5.982 0 -10.832 4.849 -10.832 10.832 c 0 5.982 4.849 10.832 10.832 10.832 c 5.982 0 10.832 -4.849 10.832 -10.832 C 31.018 24.173 26.169 19.323 20.187 19.323 z M 20.187 35.348 c -2.868 0 -5.193 -2.325 -5.193 -5.193 s 2.325 -5.193 5.193 -5.193 s 5.193 2.325 5.193 5.193 S 23.055 35.348 20.187 35.348 z" style="stroke: none; stroke-width: 1; stroke-dasharray: none; stroke-linecap: butt; stroke-linejoin: miter; stroke-miterlimit: 10; fill: #6C2ED2; fill-rule: nonzero; opacity: 1;" transform=" matrix(1 0 0 1 0 0) " stroke-linecap="round" />
	<path d="M 82.902 73.197 l -9.956 -3.22 V 53.32 l 9.956 -3.22 C 85.914 49.126 89 51.371 89 54.537 v 14.224 C 89 71.926 85.914 74.172 82.902 73.197 z" style="stroke: none; stroke-width: 1; stroke-dasharray: none; stroke-linecap: butt; stroke-linejoin: miter; stroke-miterlimit: 10; fill: #6C2ED2; fill-rule: nonzero; opacity: 1;" transform=" matrix(1 0 0 1 0 0) " stroke-linecap="round" />
	<path d="M 37.157 75.17 H 15.741 c -2.923 0 -5.292 -2.37 -5.292 -5.292 v -16.37 c 0 -2.923 2.37 -5.292 5.292 -5.292 h 21.416 c 2.923 0 5.292 2.37 5.292 5.292 v 16.37 C 42.45 72.8 40.08 75.17 37.157 75.17 z" style="stroke: none; stroke-width: 1; stroke-dasharray: none; stroke-linecap: butt; stroke-linejoin: miter; stroke-miterlimit: 10; fill: rgb(239,237,239); fill-rule: nonzero; opacity: 1;" transform=" matrix(1 0 0 1 0 0) " stroke-linecap="round" />
	<path d="M 33.917 55.34 c -1.712 -1.935 -4.956 -2.174 -7.467 0.296 c -2.512 -2.47 -5.755 -2.23 -7.467 -0.296 c -1.822 2.058 -1.056 5.899 1.342 8.968 c 1.216 1.556 4.218 4.09 6.126 5.154 c 1.907 -1.064 4.91 -3.598 6.126 -5.154 C 34.973 61.238 35.738 57.398 33.917 55.34 z" style="stroke: none; stroke-width: 1; stroke-dasharray: none; stroke-linecap: butt; stroke-linejoin: miter; stroke-miterlimit: 10; fill: #6C2ED2; fill-rule: nonzero; opacity: 1;" transform=" matrix(1 0 0 1 0 0) " stroke-linecap="round" />
	<path d="M 66.257 83.311 H 7.689 C 3.449 83.311 0 79.861 0 75.622 V 47.676 c 0 -4.24 3.449 -7.689 7.689 -7.689 h 58.568 c 4.24 0 7.689 3.45 7.689 7.689 v 27.946 C 73.946 79.861 70.497 83.311 66.257 83.311 z M 7.689 41.986 C 4.552 41.986 2 44.539 2 47.676 v 27.946 c 0 3.137 2.552 5.688 5.689 5.688 h 58.568 c 3.137 0 5.689 -2.552 5.689 -5.688 V 47.676 c 0 -3.137 -2.553 -5.689 -5.689 -5.689 H 7.689 z" style="stroke: none; stroke-width: 1; stroke-dasharray: none; stroke-linecap: butt; stroke-linejoin: miter; stroke-miterlimit: 10; fill: rgb(63,63,63); fill-rule: nonzero; opacity: 1;" transform=" matrix(1 0 0 1 0 0) " stroke-linecap="round" />
	<path d="M 20.187 41.986 c -6.524 0 -11.832 -5.308 -11.832 -11.832 s 5.308 -11.832 11.832 -11.832 c 6.524 0 11.832 5.308 11.832 11.832 S 26.711 41.986 20.187 41.986 z M 20.187 20.323 c -5.421 0 -9.832 4.411 -9.832 9.832 s 4.411 9.832 9.832 9.832 c 5.421 0 9.832 -4.411 9.832 -9.832 S 25.608 20.323 20.187 20.323 z" style="stroke: none; stroke-width: 1; stroke-dasharray: none; stroke-linecap: butt; stroke-linejoin: miter; stroke-miterlimit: 10; fill: rgb(63,63,63); fill-rule: nonzero; opacity: 1;" transform=" matrix(1 0 0 1 0 0) " stroke-linecap="round" />
	<path d="M 47.667 41.986 c -9.731 0 -17.648 -7.917 -17.648 -17.648 S 37.936 6.689 47.667 6.689 s 17.648 7.917 17.648 17.649 S 57.398 41.986 47.667 41.986 z M 47.667 8.689 c -8.628 0 -15.648 7.02 -15.648 15.649 c 0 8.628 7.02 15.648 15.648 15.648 c 8.629 0 15.648 -7.02 15.648 -15.648 C 63.315 15.709 56.296 8.689 47.667 8.689 z" style="stroke: none; stroke-width: 1; stroke-dasharray: none; stroke-linecap: butt; stroke-linejoin: miter; stroke-miterlimit: 10; fill: rgb(63,63,63); fill-rule: nonzero; opacity: 1;" transform=" matrix(1 0 0 1 0 0) " stroke-linecap="round" />
	<path d="M 47.667 35.205 c -5.992 0 -10.867 -4.875 -10.867 -10.867 s 4.875 -10.867 10.867 -10.867 c 5.992 0 10.867 4.875 10.867 10.867 S 53.659 35.205 47.667 35.205 z M 47.667 15.471 c -4.889 0 -8.867 3.978 -8.867 8.867 s 3.978 8.867 8.867 8.867 c 4.89 0 8.867 -3.978 8.867 -8.867 S 52.557 15.471 47.667 15.471 z" style="stroke: none; stroke-width: 1; stroke-dasharray: none; stroke-linecap: butt; stroke-linejoin: miter; stroke-miterlimit: 10; fill: rgb(63,63,63); fill-rule: nonzero; opacity: 1;" transform=" matrix(1 0 0 1 0 0) " stroke-linecap="round" />
	<path d="M 20.187 36.348 c -3.415 0 -6.193 -2.778 -6.193 -6.193 s 2.778 -6.193 6.193 -6.193 c 3.415 0 6.193 2.778 6.193 6.193 S 23.602 36.348 20.187 36.348 z M 20.187 25.962 c -2.312 0 -4.193 1.881 -4.193 4.193 s 1.881 4.193 4.193 4.193 s 4.193 -1.881 4.193 -4.193 S 22.499 25.962 20.187 25.962 z" style="stroke: none; stroke-width: 1; stroke-dasharray: none; stroke-linecap: butt; stroke-linejoin: miter; stroke-miterlimit: 10; fill: rgb(63,63,63); fill-rule: nonzero; opacity: 1;" transform=" matrix(1 0 0 1 0 0) " stroke-linecap="round" />
	<path d="M 84.355 74.43 c -0.588 0 -1.18 -0.093 -1.761 -0.281 l -9.956 -3.221 c -0.413 -0.133 -0.692 -0.518 -0.692 -0.951 V 53.32 c 0 -0.434 0.279 -0.818 0.692 -0.951 l 9.956 -3.221 c 1.74 -0.566 3.592 -0.271 5.074 0.809 C 89.15 51.035 90 52.704 90 54.536 v 14.225 c 0 1.832 -0.85 3.502 -2.332 4.58 C 86.681 74.059 85.529 74.43 84.355 74.43 z M 73.946 69.249 l 9.264 2.997 l 0 0 c 1.129 0.364 2.324 0.173 3.281 -0.523 C 87.45 71.025 88 69.946 88 68.761 V 54.536 c 0 -1.185 -0.55 -2.265 -1.508 -2.962 c -0.96 -0.698 -2.155 -0.888 -3.282 -0.523 l -9.264 2.997 V 69.249 z" style="stroke: none; stroke-width: 1; stroke-dasharray: none; stroke-linecap: butt; stroke-linejoin: miter; stroke-miterlimit: 10; fill: rgb(63,63,63); fill-rule: nonzero; opacity: 1;" transform=" matrix(1 0 0 1 0 0) " stroke-linecap="round" />
	<path d="M 26.449 70.462 c -0.168 0 -0.336 -0.042 -0.487 -0.127 c -2.005 -1.119 -5.128 -3.749 -6.426 -5.412 c -2.818 -3.606 -3.366 -7.915 -1.302 -10.246 c 1.001 -1.131 2.406 -1.784 3.955 -1.838 c 1.491 -0.041 2.977 0.465 4.261 1.468 c 1.285 -1.003 2.772 -1.511 4.261 -1.468 c 1.549 0.054 2.953 0.707 3.955 1.838 c 2.063 2.331 1.515 6.64 -1.303 10.247 c -1.298 1.662 -4.421 4.292 -6.426 5.411 C 26.785 70.42 26.617 70.462 26.449 70.462 z M 22.391 54.836 c -0.044 0 -0.089 0.001 -0.133 0.002 c -0.995 0.034 -1.892 0.448 -2.526 1.165 c -1.401 1.582 -0.808 4.888 1.381 7.688 c 1.05 1.346 3.548 3.485 5.337 4.607 c 1.789 -1.122 4.288 -3.262 5.337 -4.606 c 2.189 -2.802 2.782 -6.107 1.381 -7.689 c 0 0 0 0 0 0 c -0.634 -0.717 -1.531 -1.131 -2.526 -1.165 c -1.22 -0.027 -2.458 0.494 -3.491 1.511 c -0.389 0.383 -1.014 0.383 -1.402 0 C 24.752 55.369 23.565 54.836 22.391 54.836 z" style="stroke: none; stroke-width: 1; stroke-dasharray: none; stroke-linecap: butt; stroke-linejoin: miter; stroke-miterlimit: 10; fill: rgb(63,63,63); fill-rule: nonzero; opacity: 1;" transform=" matrix(1 0 0 1 0 0) " stroke-linecap="round" />
	<path d="M 37.157 76.17 H 15.741 c -3.47 0 -6.292 -2.823 -6.292 -6.293 V 53.508 c 0 -3.47 2.823 -6.292 6.292 -6.292 h 21.416 c 3.47 0 6.292 2.822 6.292 6.292 v 16.369 C 43.45 73.347 40.627 76.17 37.157 76.17 z M 15.741 49.216 c -2.367 0 -4.292 1.926 -4.292 4.292 v 16.369 c 0 2.367 1.926 4.293 4.292 4.293 h 21.416 c 2.367 0 4.292 -1.926 4.292 -4.293 V 53.508 c 0 -2.366 -1.926 -4.292 -4.292 -4.292 H 15.741 z" style="stroke: none; stroke-width: 1; stroke-dasharray: none; stroke-linecap: butt; stroke-linejoin: miter; stroke-miterlimit: 10; fill: rgb(63,63,63); fill-rule: nonzero; opacity: 1;" transform=" matrix(1 0 0 1 0 0) " stroke-linecap="round" />
	<path d="M 65.882 49.127 h -3.194 c -0.553 0 -1 -0.447 -1 -1 s 0.447 -1 1 -1 h 3.194 c 0.553 0 1 0.447 1 1 S 66.435 49.127 65.882 49.127 z" style="stroke: none; stroke-width: 1; stroke-dasharray: none; stroke-linecap: butt; stroke-linejoin: miter; stroke-miterlimit: 10; fill: rgb(63,63,63); fill-rule: nonzero; opacity: 1;" transform=" matrix(1 0 0 1 0 0) " stroke-linecap="round" />
	<path d="M 65.882 57.437 h -3.194 c -0.553 0 -1 -0.447 -1 -1 s 0.447 -1 1 -1 h 3.194 c 0.553 0 1 0.447 1 1 S 66.435 57.437 65.882 57.437 z" style="stroke: none; stroke-width: 1; stroke-dasharray: none; stroke-linecap: butt; stroke-linejoin: miter; stroke-miterlimit: 10; fill: rgb(63,63,63); fill-rule: nonzero; opacity: 1;" transform=" matrix(1 0 0 1 0 0) " stroke-linecap="round" />
	<path d="M 65.882 76.17 h -3.194 c -0.553 0 -1 -0.447 -1 -1 s 0.447 -1 1 -1 h 3.194 c 0.553 0 1 0.447 1 1 S 66.435 76.17 65.882 76.17 z" style="stroke: none; stroke-width: 1; stroke-dasharray: none; stroke-linecap: butt; stroke-linejoin: miter; stroke-miterlimit: 10; fill: rgb(63,63,63); fill-rule: nonzero; opacity: 1;" transform=" matrix(1 0 0 1 0 0) " stroke-linecap="round" />
</g>
</svg>