<svg width="17" height="21" viewBox="0 0 17 21" fill="none" xmlns="http://www.w3.org/2000/svg">
<mask id="mask0_14_1318" style="mask-type:alpha" maskUnits="userSpaceOnUse" x="0" y="0" width="17" height="21">
<path fill-rule="evenodd" clip-rule="evenodd" d="M15.5001 20.5C15.2925 20.4996 15.0902 20.4338 14.9221 20.312L8.50008 15.729L2.08108 20.314C1.91185 20.4357 1.70851 20.5008 1.50008 20.5C1.23973 20.4996 0.98936 20.3998 0.800082 20.221C0.605114 20.0322 0.49659 19.7714 0.500082 19.5V3.5C0.500082 1.84315 1.84323 0.5 3.50008 0.5H13.5001C15.1569 0.5 16.5001 1.84315 16.5001 3.5V19.5C16.5001 20.0523 16.0524 20.5 15.5001 20.5ZM8.50008 13.5C8.70874 13.4998 8.91224 13.5648 9.08208 13.686L14.5001 17.557V3.5C14.5001 2.94772 14.0524 2.5 13.5001 2.5H3.50008C2.9478 2.5 2.50008 2.94772 2.50008 3.5V17.557L7.91908 13.686C8.08843 13.5646 8.2917 13.4995 8.50008 13.5Z" fill="white"/>
</mask>
<g mask="url(#mask0_14_1318)">
<rect x="-3.5" y="-1.5" width="24" height="24" fill="white"/>
</g>
</svg>
