<svg width="53" height="53" viewBox="0 -5 53 53" fill="none" xmlns="http://www.w3.org/2000/svg">
<g filter="url(#filter0_d_20_560)">
<path d="M4 20C4 8.9543 12.9543 0 24 0H29C40.0457 0 49 8.95431 49 20V25C49 36.0457 40.0457 45 29 45H24C12.9543 45 4 36.0457 4 25V20Z" fill="none" fill-opacity="0.55" shape-rendering="crispEdges"/>
</g>
<path fill-rule="evenodd" clip-rule="evenodd" d="M16.3687 21.177C15.3556 24.9922 16.4644 29.0578 19.2744 31.8304C22.0469 34.6403 26.1125 35.7492 29.9278 34.736C33.743 33.7228 36.7228 30.743 37.736 26.9278C38.7492 23.1125 37.6403 19.0469 34.8304 16.2744C32.0578 13.4644 27.9922 12.3556 24.177 13.3687C20.3617 14.3819 17.3819 17.3617 16.3687 21.177ZM27.0524 33.0524C22.0818 33.0524 18.0524 29.0229 18.0524 24.0524C18.0579 19.0841 22.0841 15.0579 27.0524 15.0524C32.0229 15.0524 36.0524 19.0818 36.0524 24.0524C36.0524 29.0229 32.0229 33.0524 27.0524 33.0524ZM26.3464 27.7594C26.009 27.4219 25.9571 26.8931 26.2224 26.4965C26.4876 26.0998 26.9962 25.9458 27.4369 26.1288C27.8776 26.3117 28.1277 26.7805 28.0342 27.2484C27.9407 27.7163 27.5295 28.053 27.0524 28.0524C26.7872 28.0523 26.5329 27.9469 26.3454 27.7594H26.3464ZM26.0524 20.0524V24.0524C26.0524 24.6047 26.5001 25.0524 27.0524 25.0524C27.6047 25.0524 28.0524 24.6047 28.0524 24.0524V20.0524C28.0524 19.5001 27.6047 19.0524 27.0524 19.0524C26.5001 19.0524 26.0524 19.5001 26.0524 20.0524Z" fill="white"/>
<mask id="mask0_20_560" style="mask-type:alpha" maskUnits="userSpaceOnUse" x="16" y="13" width="23" height="23">
<path fill-rule="evenodd" clip-rule="evenodd" d="M19.2744 31.8304C16.4644 29.0578 15.3556 24.9922 16.3687 21.177C17.3819 17.3617 20.3617 14.3819 24.177 13.3687C27.9922 12.3556 32.0578 13.4644 34.8304 16.2744C37.6403 19.0469 38.7492 23.1125 37.736 26.9278C36.7228 30.743 33.743 33.7228 29.9278 34.736C26.1125 35.7492 22.0469 34.6403 19.2744 31.8304ZM18.0524 24.0524C18.0524 29.0229 22.0818 33.0524 27.0524 33.0524C32.0229 33.0524 36.0524 29.0229 36.0524 24.0524C36.0524 19.0818 32.0229 15.0524 27.0524 15.0524C22.0841 15.0579 18.0579 19.0841 18.0524 24.0524ZM26.3464 27.7594C26.009 27.4219 25.9571 26.8931 26.2224 26.4965C26.4876 26.0998 26.9962 25.9458 27.4369 26.1288C27.8776 26.3117 28.1277 26.7805 28.0342 27.2484C27.9407 27.7163 27.5295 28.053 27.0524 28.0524C26.7872 28.0523 26.5329 27.9469 26.3454 27.7594H26.3464ZM26.0524 24.0524V20.0524C26.0524 19.5001 26.5001 19.0524 27.0524 19.0524C27.6047 19.0524 28.0524 19.5001 28.0524 20.0524V24.0524C28.0524 24.6047 27.6047 25.0524 27.0524 25.0524C26.5001 25.0524 26.0524 24.6047 26.0524 24.0524Z" fill="white"/>
</mask>
<g mask="url(#mask0_20_560)">
<rect x="15.0522" y="12.0524" width="24" height="24" fill="white"/>
</g>
<defs>
<filter id="filter0_d_20_560" x="0" y="0" width="53" height="53" filterUnits="userSpaceOnUse" color-interpolation-filters="sRGB">
<feFlood flood-opacity="0" result="BackgroundImageFix"/>
<feColorMatrix in="SourceAlpha" type="matrix" values="0 0 0 0 0 0 0 0 0 0 0 0 0 0 0 0 0 0 127 0" result="hardAlpha"/>
<feOffset dy="4"/>
<feGaussianBlur stdDeviation="2"/>
<feComposite in2="hardAlpha" operator="out"/>
<feColorMatrix type="matrix" values="0 0 0 0 0 0 0 0 0 0 0 0 0 0 0 0 0 0 0.25 0"/>
<feBlend mode="normal" in2="BackgroundImageFix" result="effect1_dropShadow_20_560"/>
<feBlend mode="normal" in="SourceGraphic" in2="effect1_dropShadow_20_560" result="shape"/>
</filter>
<linearGradient id="paint0_linear_20_560" x1="4" y1="0" x2="4" y2="45" gradientUnits="userSpaceOnUse">
<stop stop-color="#959191"/>
<stop offset="1" stop-color="#C8C8C8"/>
</linearGradient>
</defs>
</svg>
