<svg width="53" height="53" viewBox="0 0 53 53" fill="none" xmlns="http://www.w3.org/2000/svg">
<g filter="url(#filter0_d_20_556)">
<path d="M4 20C4 8.9543 12.9543 0 24 0H29C40.0457 0 49 8.95431 49 20V25C49 36.0457 40.0457 45 29 45H24C12.9543 45 4 36.0457 4 25V20Z" fill="url(#paint0_linear_20_556)" fill-opacity="0.55" shape-rendering="crispEdges"/>
</g>
<path d="M28.4263 24.0123L33.7193 18.7193C33.9793 18.4682 34.0835 18.0964 33.992 17.7468C33.9005 17.3972 33.6274 17.1241 33.2778 17.0326C32.9282 16.9411 32.5564 17.0454 32.3053 17.3053L27.0123 22.5983L21.7193 17.3053C21.3269 16.9263 20.7032 16.9318 20.3175 17.3175C19.9318 17.7032 19.9263 18.3269 20.3053 18.7193L25.5983 24.0123L20.3053 29.3053C20.0454 29.5564 19.9411 29.9282 20.0326 30.2778C20.1241 30.6274 20.3972 30.9005 20.7468 30.992C21.0964 31.0835 21.4682 30.9793 21.7193 30.7193L27.0123 25.4263L32.3053 30.7193C32.6977 31.0983 33.3214 31.0929 33.7071 30.7071C34.0929 30.3214 34.0983 29.6977 33.7193 29.3053L28.4263 24.0123Z" fill="url(#paint1_linear_20_556)"/>
<defs>
<filter id="filter0_d_20_556" x="0" y="0" width="53" height="53" filterUnits="userSpaceOnUse" color-interpolation-filters="sRGB">
<feFlood flood-opacity="0" result="BackgroundImageFix"/>
<feColorMatrix in="SourceAlpha" type="matrix" values="0 0 0 0 0 0 0 0 0 0 0 0 0 0 0 0 0 0 127 0" result="hardAlpha"/>
<feOffset dy="4"/>
<feGaussianBlur stdDeviation="2"/>
<feComposite in2="hardAlpha" operator="out"/>
<feColorMatrix type="matrix" values="0 0 0 0 0 0 0 0 0 0 0 0 0 0 0 0 0 0 0.25 0"/>
<feBlend mode="normal" in2="BackgroundImageFix" result="effect1_dropShadow_20_556"/>
<feBlend mode="normal" in="SourceGraphic" in2="effect1_dropShadow_20_556" result="shape"/>
</filter>
<linearGradient id="paint0_linear_20_556" x1="4" y1="0" x2="4" y2="45" gradientUnits="userSpaceOnUse">
<stop stop-color="#959191"/>
<stop offset="1" stop-color="#C8C8C8"/>
</linearGradient>
<linearGradient id="paint1_linear_20_556" x1="20" y1="17" x2="20" y2="31.0246" gradientUnits="userSpaceOnUse">
<stop stop-color="white"/>
<stop offset="1" stop-color="white"/>
</linearGradient>
</defs>
</svg>
