<svg width="56" height="14" viewBox="0 0 56 14" fill="none" xmlns="http://www.w3.org/2000/svg">
<path d="M2.84863 11H0.770508L0.78418 9.92676H2.84863C3.55957 9.92676 4.15202 9.77865 4.62598 9.48242C5.09993 9.18164 5.4554 8.76237 5.69238 8.22461C5.93392 7.68229 6.05469 7.04883 6.05469 6.32422V5.71582C6.05469 5.14616 5.98633 4.6403 5.84961 4.19824C5.71289 3.75163 5.51237 3.37565 5.24805 3.07031C4.98372 2.76042 4.66016 2.52572 4.27734 2.36621C3.89909 2.20671 3.46387 2.12695 2.97168 2.12695H0.729492V1.04688H2.97168C3.62337 1.04688 4.2181 1.15625 4.75586 1.375C5.29362 1.58919 5.75618 1.90137 6.14355 2.31152C6.53548 2.71712 6.83626 3.20931 7.0459 3.78809C7.25553 4.3623 7.36035 5.00944 7.36035 5.72949V6.32422C7.36035 7.04427 7.25553 7.69368 7.0459 8.27246C6.83626 8.84668 6.5332 9.33659 6.13672 9.74219C5.74479 10.1478 5.27083 10.46 4.71484 10.6787C4.16341 10.8929 3.54134 11 2.84863 11ZM1.47461 1.04688V11H0.155273V1.04688H1.47461ZM13.5127 9.73535V5.92773C13.5127 5.63607 13.4535 5.38314 13.335 5.16895C13.221 4.9502 13.0479 4.78158 12.8154 4.66309C12.583 4.5446 12.2959 4.48535 11.9541 4.48535C11.6351 4.48535 11.3548 4.54004 11.1133 4.64941C10.8763 4.75879 10.6895 4.90234 10.5527 5.08008C10.4206 5.25781 10.3545 5.44922 10.3545 5.6543H9.08984C9.08984 5.38997 9.1582 5.12793 9.29492 4.86816C9.43164 4.6084 9.6276 4.3737 9.88281 4.16406C10.1426 3.94987 10.4525 3.78125 10.8125 3.6582C11.1771 3.5306 11.5827 3.4668 12.0293 3.4668C12.5671 3.4668 13.041 3.55794 13.4512 3.74023C13.8659 3.92253 14.1895 4.19824 14.4219 4.56738C14.6589 4.93197 14.7773 5.38997 14.7773 5.94141V9.38672C14.7773 9.63281 14.7979 9.89486 14.8389 10.1729C14.8844 10.4508 14.9505 10.6901 15.0371 10.8906V11H13.7178C13.654 10.8542 13.6038 10.6605 13.5674 10.4189C13.5309 10.1729 13.5127 9.94499 13.5127 9.73535ZM13.7314 6.51562L13.7451 7.4043H12.4668C12.1068 7.4043 11.7855 7.43392 11.5029 7.49316C11.2204 7.54785 10.9834 7.63216 10.792 7.74609C10.6006 7.86003 10.4548 8.00358 10.3545 8.17676C10.2542 8.34538 10.2041 8.54362 10.2041 8.77148C10.2041 9.00391 10.2565 9.21582 10.3613 9.40723C10.4661 9.59863 10.6234 9.7513 10.833 9.86523C11.0472 9.97461 11.3092 10.0293 11.6191 10.0293C12.0065 10.0293 12.3483 9.94727 12.6445 9.7832C12.9408 9.61914 13.1755 9.41862 13.3486 9.18164C13.5264 8.94466 13.6221 8.71452 13.6357 8.49121L14.1758 9.09961C14.1439 9.29102 14.0573 9.50293 13.916 9.73535C13.7747 9.96777 13.5856 10.1911 13.3486 10.4053C13.1162 10.6149 12.8382 10.7904 12.5146 10.9316C12.1956 11.0684 11.8356 11.1367 11.4346 11.1367C10.9333 11.1367 10.4935 11.0387 10.1152 10.8428C9.74154 10.6468 9.44987 10.3848 9.24023 10.0566C9.03516 9.72396 8.93262 9.35254 8.93262 8.94238C8.93262 8.5459 9.01009 8.19727 9.16504 7.89648C9.31999 7.59115 9.54329 7.33822 9.83496 7.1377C10.1266 6.93262 10.4775 6.77767 10.8877 6.67285C11.2979 6.56803 11.7559 6.51562 12.2617 6.51562H13.7314ZM18.6533 11H17.3887V2.82422C17.3887 2.29102 17.4844 1.84212 17.6758 1.47754C17.8717 1.1084 18.152 0.830404 18.5166 0.643555C18.8812 0.452148 19.3141 0.356445 19.8154 0.356445C19.9613 0.356445 20.1071 0.36556 20.2529 0.383789C20.4033 0.402018 20.5492 0.429362 20.6904 0.46582L20.6221 1.49805C20.5264 1.47526 20.417 1.45931 20.2939 1.4502C20.1755 1.44108 20.057 1.43652 19.9385 1.43652C19.6696 1.43652 19.4372 1.49121 19.2412 1.60059C19.0498 1.7054 18.904 1.86035 18.8037 2.06543C18.7035 2.27051 18.6533 2.52344 18.6533 2.82422V11ZM20.2256 3.60352V4.57422H16.2197V3.60352H20.2256ZM24.7305 3.60352V4.57422H20.7314V3.60352H24.7305ZM22.085 1.80566H23.3496V9.16797C23.3496 9.41862 23.3883 9.60775 23.4658 9.73535C23.5433 9.86296 23.6436 9.94727 23.7666 9.98828C23.8896 10.0293 24.0218 10.0498 24.1631 10.0498C24.2679 10.0498 24.3773 10.0407 24.4912 10.0225C24.6097 9.99967 24.6986 9.98145 24.7578 9.96777L24.7646 11C24.6644 11.0319 24.5322 11.0615 24.3682 11.0889C24.2087 11.1208 24.015 11.1367 23.7871 11.1367C23.4772 11.1367 23.1924 11.0752 22.9326 10.9521C22.6729 10.8291 22.4655 10.624 22.3105 10.3369C22.1602 10.0452 22.085 9.65332 22.085 9.16113V1.80566ZM27.4785 5.02539V13.8438H26.207V3.60352H27.3691L27.4785 5.02539ZM32.4619 7.24023V7.38379C32.4619 7.92155 32.3981 8.42057 32.2705 8.88086C32.1429 9.33659 31.9561 9.73307 31.71 10.0703C31.4684 10.4076 31.1699 10.6696 30.8145 10.8564C30.459 11.0433 30.0511 11.1367 29.5908 11.1367C29.1214 11.1367 28.7067 11.0592 28.3467 10.9043C27.9867 10.7493 27.6813 10.5238 27.4307 10.2275C27.18 9.93132 26.9795 9.57585 26.8291 9.16113C26.6833 8.74642 26.583 8.2793 26.5283 7.75977V6.99414C26.583 6.44727 26.6855 5.95736 26.8359 5.52441C26.9863 5.09147 27.1846 4.72233 27.4307 4.41699C27.6813 4.1071 27.9844 3.8724 28.3398 3.71289C28.6953 3.54883 29.1055 3.4668 29.5703 3.4668C30.0352 3.4668 30.4476 3.55794 30.8076 3.74023C31.1676 3.91797 31.4707 4.17318 31.7168 4.50586C31.9629 4.83854 32.1475 5.2373 32.2705 5.70215C32.3981 6.16243 32.4619 6.67513 32.4619 7.24023ZM31.1904 7.38379V7.24023C31.1904 6.87109 31.1517 6.52474 31.0742 6.20117C30.9967 5.87305 30.876 5.58594 30.7119 5.33984C30.5524 5.08919 30.3473 4.89323 30.0967 4.75195C29.846 4.60612 29.5475 4.5332 29.2012 4.5332C28.8822 4.5332 28.6042 4.58789 28.3672 4.69727C28.1348 4.80664 27.9365 4.95475 27.7725 5.1416C27.6084 5.32389 27.474 5.53353 27.3691 5.77051C27.2689 6.00293 27.1937 6.24447 27.1436 6.49512V8.26562C27.2347 8.58464 27.3623 8.88542 27.5264 9.16797C27.6904 9.44596 27.9092 9.67155 28.1826 9.84473C28.4561 10.0133 28.8001 10.0977 29.2148 10.0977C29.5566 10.0977 29.8506 10.027 30.0967 9.88574C30.3473 9.73991 30.5524 9.54167 30.7119 9.29102C30.876 9.04036 30.9967 8.75326 31.0742 8.42969C31.1517 8.10156 31.1904 7.75293 31.1904 7.38379ZM38.6006 9.29102V3.60352H39.8721V11H38.6621L38.6006 9.29102ZM38.8398 7.73242L39.3662 7.71875C39.3662 8.21094 39.3138 8.66667 39.209 9.08594C39.1087 9.50065 38.9447 9.86068 38.7168 10.166C38.4889 10.4714 38.1904 10.7106 37.8213 10.8838C37.4521 11.0524 37.0033 11.1367 36.4746 11.1367C36.1146 11.1367 35.7842 11.0843 35.4834 10.9795C35.1872 10.8747 34.932 10.7129 34.7178 10.4941C34.5036 10.2754 34.3372 9.99056 34.2188 9.63965C34.1048 9.28874 34.0479 8.86719 34.0479 8.375V3.60352H35.3125V8.38867C35.3125 8.72135 35.349 8.99707 35.4219 9.21582C35.4993 9.43001 35.6019 9.60091 35.7295 9.72852C35.8617 9.85156 36.0075 9.93815 36.167 9.98828C36.3311 10.0384 36.4997 10.0635 36.6729 10.0635C37.2106 10.0635 37.6367 9.96094 37.9512 9.75586C38.2656 9.54622 38.4912 9.26595 38.6279 8.91504C38.7692 8.55957 38.8398 8.16536 38.8398 7.73242ZM43.0645 5.18262V11H41.7998V3.60352H42.9961L43.0645 5.18262ZM42.7637 7.02148L42.2373 7.00098C42.2419 6.49512 42.3171 6.02799 42.4629 5.59961C42.6087 5.16667 42.8138 4.79069 43.0781 4.47168C43.3424 4.15267 43.6569 3.90658 44.0215 3.7334C44.3906 3.55566 44.7985 3.4668 45.2451 3.4668C45.6097 3.4668 45.9378 3.51693 46.2295 3.61719C46.5212 3.71289 46.7695 3.86784 46.9746 4.08203C47.1842 4.29622 47.3438 4.57422 47.4531 4.91602C47.5625 5.25326 47.6172 5.66569 47.6172 6.15332V11H46.3457V6.13965C46.3457 5.75228 46.2887 5.44238 46.1748 5.20996C46.0609 4.97298 45.8945 4.80208 45.6758 4.69727C45.457 4.58789 45.1882 4.5332 44.8691 4.5332C44.5547 4.5332 44.2676 4.59928 44.0078 4.73145C43.7526 4.86361 43.5316 5.0459 43.3447 5.27832C43.1624 5.51074 43.0189 5.77734 42.9141 6.07812C42.8138 6.37435 42.7637 6.6888 42.7637 7.02148ZM50.8096 0.5V11H49.5381V0.5H50.8096ZM55.3281 3.60352L52.1016 7.05566L50.2969 8.92871L50.1943 7.58203L51.4863 6.03711L53.7832 3.60352H55.3281ZM54.1729 11L51.5342 7.47266L52.1904 6.34473L55.6631 11H54.1729Z" fill="white"/>
</svg>
