<svg width="260" height="46" viewBox="0 0 260 46" fill="none" xmlns="http://www.w3.org/2000/svg">
<path d="M5.6543 2.46875H7.11914V8.16992C7.11914 8.81836 6.97852 9.36133 6.69727 9.79883C6.41602 10.2363 6.0332 10.5664 5.54883 10.7891C5.06836 11.0078 4.53125 11.1172 3.9375 11.1172C3.32422 11.1172 2.77734 11.0078 2.29688 10.7891C1.81641 10.5664 1.4375 10.2363 1.16016 9.79883C0.886719 9.36133 0.75 8.81836 0.75 8.16992V2.46875H2.21484V8.16992C2.21484 8.58008 2.28516 8.91797 2.42578 9.18359C2.56641 9.44531 2.76562 9.63867 3.02344 9.76367C3.28125 9.88867 3.58594 9.95117 3.9375 9.95117C4.28906 9.95117 4.5918 9.88867 4.8457 9.76367C5.10352 9.63867 5.30273 9.44531 5.44336 9.18359C5.58398 8.91797 5.6543 8.58008 5.6543 8.16992V2.46875ZM9.97852 6.01367V11H8.56641V4.66016H9.89648L9.97852 6.01367ZM9.72656 7.5957L9.26953 7.58984C9.27344 7.14062 9.33594 6.72852 9.45703 6.35352C9.58203 5.97852 9.75391 5.65625 9.97266 5.38672C10.1953 5.11719 10.4609 4.91016 10.7695 4.76562C11.0781 4.61719 11.4219 4.54297 11.8008 4.54297C12.1055 4.54297 12.3809 4.58594 12.627 4.67188C12.877 4.75391 13.0898 4.88867 13.2656 5.07617C13.4453 5.26367 13.582 5.50781 13.6758 5.80859C13.7695 6.10547 13.8164 6.4707 13.8164 6.9043V11H12.3984V6.89844C12.3984 6.59375 12.3535 6.35352 12.2637 6.17773C12.1777 5.99805 12.0508 5.87109 11.8828 5.79688C11.7188 5.71875 11.5137 5.67969 11.2676 5.67969C11.0254 5.67969 10.8086 5.73047 10.6172 5.83203C10.4258 5.93359 10.2637 6.07227 10.1309 6.24805C10.002 6.42383 9.90234 6.62695 9.83203 6.85742C9.76172 7.08789 9.72656 7.33398 9.72656 7.5957ZM19.125 9.6875V2H20.543V11H19.2598L19.125 9.6875ZM15 7.90039V7.77734C15 7.29688 15.0566 6.85938 15.1699 6.46484C15.2832 6.06641 15.4473 5.72461 15.6621 5.43945C15.877 5.15039 16.1387 4.92969 16.4473 4.77734C16.7559 4.62109 17.1035 4.54297 17.4902 4.54297C17.873 4.54297 18.209 4.61719 18.498 4.76562C18.7871 4.91406 19.0332 5.12695 19.2363 5.4043C19.4395 5.67773 19.6016 6.00586 19.7227 6.38867C19.8438 6.76758 19.9297 7.18945 19.9805 7.6543V8.04688C19.9297 8.5 19.8438 8.91406 19.7227 9.28906C19.6016 9.66406 19.4395 9.98828 19.2363 10.2617C19.0332 10.5352 18.7852 10.7461 18.4922 10.8945C18.2031 11.043 17.8652 11.1172 17.4785 11.1172C17.0957 11.1172 16.75 11.0371 16.4414 10.877C16.1367 10.7168 15.877 10.4922 15.6621 10.2031C15.4473 9.91406 15.2832 9.57422 15.1699 9.18359C15.0566 8.78906 15 8.36133 15 7.90039ZM16.4121 7.77734V7.90039C16.4121 8.18945 16.4375 8.45898 16.4883 8.70898C16.543 8.95898 16.627 9.17969 16.7402 9.37109C16.8535 9.55859 17 9.70703 17.1797 9.81641C17.3633 9.92188 17.582 9.97461 17.8359 9.97461C18.1562 9.97461 18.4199 9.9043 18.627 9.76367C18.834 9.62305 18.9961 9.43359 19.1133 9.19531C19.2344 8.95312 19.3164 8.68359 19.3594 8.38672V7.32617C19.3359 7.0957 19.2871 6.88086 19.2129 6.68164C19.1426 6.48242 19.0469 6.30859 18.9258 6.16016C18.8047 6.00781 18.6543 5.89062 18.4746 5.80859C18.2988 5.72266 18.0898 5.67969 17.8477 5.67969C17.5898 5.67969 17.3711 5.73438 17.1914 5.84375C17.0117 5.95312 16.8633 6.10352 16.7461 6.29492C16.6328 6.48633 16.5488 6.70898 16.4941 6.96289C16.4395 7.2168 16.4121 7.48828 16.4121 7.77734ZM24.8145 11.1172C24.3457 11.1172 23.9219 11.041 23.543 10.8887C23.168 10.7324 22.8477 10.5156 22.582 10.2383C22.3203 9.96094 22.1191 9.63477 21.9785 9.25977C21.8379 8.88477 21.7676 8.48047 21.7676 8.04688V7.8125C21.7676 7.31641 21.8398 6.86719 21.9844 6.46484C22.1289 6.0625 22.3301 5.71875 22.5879 5.43359C22.8457 5.14453 23.1504 4.92383 23.502 4.77148C23.8535 4.61914 24.2344 4.54297 24.6445 4.54297C25.0977 4.54297 25.4941 4.61914 25.834 4.77148C26.1738 4.92383 26.4551 5.13867 26.6777 5.41602C26.9043 5.68945 27.0723 6.01562 27.1816 6.39453C27.2949 6.77344 27.3516 7.19141 27.3516 7.64844V8.25195H22.4531V7.23828H25.957V7.12695C25.9492 6.87305 25.8984 6.63477 25.8047 6.41211C25.7148 6.18945 25.5762 6.00977 25.3887 5.87305C25.2012 5.73633 24.9512 5.66797 24.6387 5.66797C24.4043 5.66797 24.1953 5.71875 24.0117 5.82031C23.832 5.91797 23.6816 6.06055 23.5605 6.24805C23.4395 6.43555 23.3457 6.66211 23.2793 6.92773C23.2168 7.18945 23.1855 7.48438 23.1855 7.8125V8.04688C23.1855 8.32422 23.2227 8.58203 23.2969 8.82031C23.375 9.05469 23.4883 9.25977 23.6367 9.43555C23.7852 9.61133 23.9648 9.75 24.1758 9.85156C24.3867 9.94922 24.627 9.99805 24.8965 9.99805C25.2363 9.99805 25.5391 9.92969 25.8047 9.79297C26.0703 9.65625 26.3008 9.46289 26.4961 9.21289L27.2402 9.93359C27.1035 10.1328 26.9258 10.3242 26.707 10.5078C26.4883 10.6875 26.2207 10.834 25.9043 10.9473C25.5918 11.0605 25.2285 11.1172 24.8145 11.1172ZM29.8711 5.86719V11H28.459V4.66016H29.8066L29.8711 5.86719ZM31.8105 4.61914L31.7988 5.93164C31.7129 5.91602 31.6191 5.9043 31.5176 5.89648C31.4199 5.88867 31.3223 5.88477 31.2246 5.88477C30.9824 5.88477 30.7695 5.91992 30.5859 5.99023C30.4023 6.05664 30.248 6.1543 30.123 6.2832C30.002 6.4082 29.9082 6.56055 29.8418 6.74023C29.7754 6.91992 29.7363 7.12109 29.7246 7.34375L29.4023 7.36719C29.4023 6.96875 29.4414 6.59961 29.5195 6.25977C29.5977 5.91992 29.7148 5.62109 29.8711 5.36328C30.0312 5.10547 30.2305 4.9043 30.4688 4.75977C30.7109 4.61523 30.9902 4.54297 31.3066 4.54297C31.3926 4.54297 31.4844 4.55078 31.582 4.56641C31.6836 4.58203 31.7598 4.59961 31.8105 4.61914ZM38.5898 4.66016V5.69141H35.0156V4.66016H38.5898ZM36.0469 3.10742H37.459V9.24805C37.459 9.44336 37.4863 9.59375 37.541 9.69922C37.5996 9.80078 37.6797 9.86914 37.7812 9.9043C37.8828 9.93945 38.002 9.95703 38.1387 9.95703C38.2363 9.95703 38.3301 9.95117 38.4199 9.93945C38.5098 9.92773 38.582 9.91602 38.6367 9.9043L38.6426 10.9824C38.5254 11.0176 38.3887 11.0488 38.2324 11.0762C38.0801 11.1035 37.9043 11.1172 37.7051 11.1172C37.3809 11.1172 37.0938 11.0605 36.8438 10.9473C36.5938 10.8301 36.3984 10.6406 36.2578 10.3789C36.1172 10.1172 36.0469 9.76953 36.0469 9.33594V3.10742ZM41.0742 2V11H39.668V2H41.0742ZM40.8281 7.5957L40.3711 7.58984C40.375 7.15234 40.4355 6.74805 40.5527 6.37695C40.6738 6.00586 40.8418 5.68359 41.0566 5.41016C41.2754 5.13281 41.5371 4.91992 41.8418 4.77148C42.1465 4.61914 42.4844 4.54297 42.8555 4.54297C43.168 4.54297 43.4492 4.58594 43.6992 4.67188C43.9531 4.75781 44.1719 4.89648 44.3555 5.08789C44.5391 5.27539 44.6777 5.52148 44.7715 5.82617C44.8691 6.12695 44.918 6.49414 44.918 6.92773V11H43.5V6.91602C43.5 6.61133 43.4551 6.36914 43.3652 6.18945C43.2793 6.00977 43.1523 5.88086 42.9844 5.80273C42.8164 5.7207 42.6113 5.67969 42.3691 5.67969C42.1152 5.67969 41.8906 5.73047 41.6953 5.83203C41.5039 5.93359 41.3438 6.07227 41.2148 6.24805C41.0859 6.42383 40.9883 6.62695 40.9219 6.85742C40.8594 7.08789 40.8281 7.33398 40.8281 7.5957ZM49.1426 11.1172C48.6738 11.1172 48.25 11.041 47.8711 10.8887C47.4961 10.7324 47.1758 10.5156 46.9102 10.2383C46.6484 9.96094 46.4473 9.63477 46.3066 9.25977C46.166 8.88477 46.0957 8.48047 46.0957 8.04688V7.8125C46.0957 7.31641 46.168 6.86719 46.3125 6.46484C46.457 6.0625 46.6582 5.71875 46.916 5.43359C47.1738 5.14453 47.4785 4.92383 47.8301 4.77148C48.1816 4.61914 48.5625 4.54297 48.9727 4.54297C49.4258 4.54297 49.8223 4.61914 50.1621 4.77148C50.502 4.92383 50.7832 5.13867 51.0059 5.41602C51.2324 5.68945 51.4004 6.01562 51.5098 6.39453C51.623 6.77344 51.6797 7.19141 51.6797 7.64844V8.25195H46.7812V7.23828H50.2852V7.12695C50.2773 6.87305 50.2266 6.63477 50.1328 6.41211C50.043 6.18945 49.9043 6.00977 49.7168 5.87305C49.5293 5.73633 49.2793 5.66797 48.9668 5.66797C48.7324 5.66797 48.5234 5.71875 48.3398 5.82031C48.1602 5.91797 48.0098 6.06055 47.8887 6.24805C47.7676 6.43555 47.6738 6.66211 47.6074 6.92773C47.5449 7.18945 47.5137 7.48438 47.5137 7.8125V8.04688C47.5137 8.32422 47.5508 8.58203 47.625 8.82031C47.7031 9.05469 47.8164 9.25977 47.9648 9.43555C48.1133 9.61133 48.293 9.75 48.5039 9.85156C48.7148 9.94922 48.9551 9.99805 49.2246 9.99805C49.5645 9.99805 49.8672 9.92969 50.1328 9.79297C50.3984 9.65625 50.6289 9.46289 50.8242 9.21289L51.5684 9.93359C51.4316 10.1328 51.2539 10.3242 51.0352 10.5078C50.8164 10.6875 50.5488 10.834 50.2324 10.9473C49.9199 11.0605 49.5566 11.1172 49.1426 11.1172ZM60.3984 8.80273C60.3984 8.62695 60.3711 8.4707 60.3164 8.33398C60.2656 8.19727 60.1738 8.07227 60.041 7.95898C59.9082 7.8457 59.7207 7.73633 59.4785 7.63086C59.2402 7.52148 58.9355 7.41016 58.5645 7.29688C58.1582 7.17188 57.7832 7.0332 57.4395 6.88086C57.0996 6.72461 56.8027 6.54492 56.5488 6.3418C56.2949 6.13477 56.0977 5.89844 55.957 5.63281C55.8164 5.36328 55.7461 5.05273 55.7461 4.70117C55.7461 4.35352 55.8184 4.03711 55.9629 3.75195C56.1113 3.4668 56.3203 3.2207 56.5898 3.01367C56.8633 2.80273 57.1855 2.64062 57.5566 2.52734C57.9277 2.41016 58.3379 2.35156 58.7871 2.35156C59.4199 2.35156 59.9648 2.46875 60.4219 2.70312C60.8828 2.9375 61.2363 3.25195 61.4824 3.64648C61.7324 4.04102 61.8574 4.47656 61.8574 4.95312H60.3984C60.3984 4.67188 60.3379 4.42383 60.2168 4.20898C60.0996 3.99023 59.9199 3.81836 59.6777 3.69336C59.4395 3.56836 59.1367 3.50586 58.7695 3.50586C58.4219 3.50586 58.1328 3.55859 57.9023 3.66406C57.6719 3.76953 57.5 3.91211 57.3867 4.0918C57.2734 4.27148 57.2168 4.47461 57.2168 4.70117C57.2168 4.86133 57.2539 5.00781 57.3281 5.14062C57.4023 5.26953 57.5156 5.39062 57.668 5.50391C57.8203 5.61328 58.0117 5.7168 58.2422 5.81445C58.4727 5.91211 58.7441 6.00586 59.0566 6.0957C59.5293 6.23633 59.9414 6.39258 60.293 6.56445C60.6445 6.73242 60.9375 6.92383 61.1719 7.13867C61.4062 7.35352 61.582 7.59766 61.6992 7.87109C61.8164 8.14062 61.875 8.44727 61.875 8.79102C61.875 9.15039 61.8027 9.47461 61.6582 9.76367C61.5137 10.0488 61.3066 10.293 61.0371 10.4961C60.7715 10.6953 60.4512 10.8496 60.0762 10.959C59.7051 11.0645 59.291 11.1172 58.834 11.1172C58.4238 11.1172 58.0195 11.0625 57.6211 10.9531C57.2266 10.8438 56.8672 10.6777 56.543 10.4551C56.2188 10.2285 55.9609 9.94727 55.7695 9.61133C55.5781 9.27148 55.4824 8.875 55.4824 8.42188H56.9531C56.9531 8.69922 57 8.93555 57.0938 9.13086C57.1914 9.32617 57.3262 9.48633 57.498 9.61133C57.6699 9.73242 57.8691 9.82227 58.0957 9.88086C58.3262 9.93945 58.5723 9.96875 58.834 9.96875C59.1777 9.96875 59.4648 9.91992 59.6953 9.82227C59.9297 9.72461 60.1055 9.58789 60.2227 9.41211C60.3398 9.23633 60.3984 9.0332 60.3984 8.80273ZM65.9414 4.66016V5.69141H62.3672V4.66016H65.9414ZM63.3984 3.10742H64.8105V9.24805C64.8105 9.44336 64.8379 9.59375 64.8926 9.69922C64.9512 9.80078 65.0312 9.86914 65.1328 9.9043C65.2344 9.93945 65.3535 9.95703 65.4902 9.95703C65.5879 9.95703 65.6816 9.95117 65.7715 9.93945C65.8613 9.92773 65.9336 9.91602 65.9883 9.9043L65.9941 10.9824C65.877 11.0176 65.7402 11.0488 65.584 11.0762C65.4316 11.1035 65.2559 11.1172 65.0566 11.1172C64.7324 11.1172 64.4453 11.0605 64.1953 10.9473C63.9453 10.8301 63.75 10.6406 63.6094 10.3789C63.4688 10.1172 63.3984 9.76953 63.3984 9.33594V3.10742ZM70.6055 9.72852V6.70508C70.6055 6.47852 70.5645 6.2832 70.4824 6.11914C70.4004 5.95508 70.2754 5.82812 70.1074 5.73828C69.9434 5.64844 69.7363 5.60352 69.4863 5.60352C69.2559 5.60352 69.0566 5.64258 68.8887 5.7207C68.7207 5.79883 68.5898 5.9043 68.4961 6.03711C68.4023 6.16992 68.3555 6.32031 68.3555 6.48828H66.9492C66.9492 6.23828 67.0098 5.99609 67.1309 5.76172C67.252 5.52734 67.4277 5.31836 67.6582 5.13477C67.8887 4.95117 68.1641 4.80664 68.4844 4.70117C68.8047 4.5957 69.1641 4.54297 69.5625 4.54297C70.0391 4.54297 70.4609 4.62305 70.8281 4.7832C71.1992 4.94336 71.4902 5.18555 71.7012 5.50977C71.916 5.83008 72.0234 6.23242 72.0234 6.7168V9.53516C72.0234 9.82422 72.043 10.084 72.082 10.3145C72.125 10.541 72.1855 10.7383 72.2637 10.9062V11H70.8164C70.75 10.8477 70.6973 10.6543 70.6582 10.4199C70.623 10.1816 70.6055 9.95117 70.6055 9.72852ZM70.8105 7.14453L70.8223 8.01758H69.8086C69.5469 8.01758 69.3164 8.04297 69.1172 8.09375C68.918 8.14062 68.752 8.21094 68.6191 8.30469C68.4863 8.39844 68.3867 8.51172 68.3203 8.64453C68.2539 8.77734 68.2207 8.92773 68.2207 9.0957C68.2207 9.26367 68.2598 9.41797 68.3379 9.55859C68.416 9.69531 68.5293 9.80273 68.6777 9.88086C68.8301 9.95898 69.0137 9.99805 69.2285 9.99805C69.5176 9.99805 69.7695 9.93945 69.9844 9.82227C70.2031 9.70117 70.375 9.55469 70.5 9.38281C70.625 9.20703 70.6914 9.04102 70.6992 8.88477L71.1562 9.51172C71.1094 9.67188 71.0293 9.84375 70.916 10.0273C70.8027 10.2109 70.6543 10.3867 70.4707 10.5547C70.291 10.7188 70.0742 10.8535 69.8203 10.959C69.5703 11.0645 69.2812 11.1172 68.9531 11.1172C68.5391 11.1172 68.1699 11.0352 67.8457 10.8711C67.5215 10.7031 67.2676 10.4785 67.084 10.1973C66.9004 9.91211 66.8086 9.58984 66.8086 9.23047C66.8086 8.89453 66.8711 8.59766 66.9961 8.33984C67.125 8.07812 67.3125 7.85938 67.5586 7.68359C67.8086 7.50781 68.1133 7.375 68.4727 7.28516C68.832 7.19141 69.2422 7.14453 69.7031 7.14453H70.8105ZM74.918 5.86719V11H73.5059V4.66016H74.8535L74.918 5.86719ZM76.8574 4.61914L76.8457 5.93164C76.7598 5.91602 76.666 5.9043 76.5645 5.89648C76.4668 5.88867 76.3691 5.88477 76.2715 5.88477C76.0293 5.88477 75.8164 5.91992 75.6328 5.99023C75.4492 6.05664 75.2949 6.1543 75.1699 6.2832C75.0488 6.4082 74.9551 6.56055 74.8887 6.74023C74.8223 6.91992 74.7832 7.12109 74.7715 7.34375L74.4492 7.36719C74.4492 6.96875 74.4883 6.59961 74.5664 6.25977C74.6445 5.91992 74.7617 5.62109 74.918 5.36328C75.0781 5.10547 75.2773 4.9043 75.5156 4.75977C75.7578 4.61523 76.0371 4.54297 76.3535 4.54297C76.4395 4.54297 76.5312 4.55078 76.6289 4.56641C76.7305 4.58203 76.8066 4.59961 76.8574 4.61914ZM81.2988 9.2832C81.2988 9.14258 81.2637 9.01562 81.1934 8.90234C81.123 8.78516 80.9883 8.67969 80.7891 8.58594C80.5938 8.49219 80.3047 8.40625 79.9219 8.32812C79.5859 8.25391 79.2773 8.16602 78.9961 8.06445C78.7188 7.95898 78.4805 7.83203 78.2812 7.68359C78.082 7.53516 77.9277 7.35938 77.8184 7.15625C77.709 6.95312 77.6543 6.71875 77.6543 6.45312C77.6543 6.19531 77.7109 5.95117 77.8242 5.7207C77.9375 5.49023 78.0996 5.28711 78.3105 5.11133C78.5215 4.93555 78.7773 4.79688 79.0781 4.69531C79.3828 4.59375 79.7227 4.54297 80.0977 4.54297C80.6289 4.54297 81.084 4.63281 81.4629 4.8125C81.8457 4.98828 82.1387 5.22852 82.3418 5.5332C82.5449 5.83398 82.6465 6.17383 82.6465 6.55273H81.2344C81.2344 6.38477 81.1914 6.22852 81.1055 6.08398C81.0234 5.93555 80.8984 5.81641 80.7305 5.72656C80.5625 5.63281 80.3516 5.58594 80.0977 5.58594C79.8555 5.58594 79.6543 5.625 79.4941 5.70312C79.3379 5.77734 79.2207 5.875 79.1426 5.99609C79.0684 6.11719 79.0312 6.25 79.0312 6.39453C79.0312 6.5 79.0508 6.5957 79.0898 6.68164C79.1328 6.76367 79.2031 6.83984 79.3008 6.91016C79.3984 6.97656 79.5312 7.03906 79.6992 7.09766C79.8711 7.15625 80.0859 7.21289 80.3438 7.26758C80.8281 7.36914 81.2441 7.5 81.5918 7.66016C81.9434 7.81641 82.2129 8.01953 82.4004 8.26953C82.5879 8.51562 82.6816 8.82812 82.6816 9.20703C82.6816 9.48828 82.6211 9.74609 82.5 9.98047C82.3828 10.2109 82.2109 10.4121 81.9844 10.584C81.7578 10.752 81.4863 10.8828 81.1699 10.9766C80.8574 11.0703 80.5059 11.1172 80.1152 11.1172C79.541 11.1172 79.0547 11.0156 78.6562 10.8125C78.2578 10.6055 77.9551 10.3418 77.748 10.0215C77.5449 9.69727 77.4434 9.36133 77.4434 9.01367H78.8086C78.8242 9.27539 78.8965 9.48438 79.0254 9.64062C79.1582 9.79297 79.3223 9.9043 79.5176 9.97461C79.7168 10.041 79.9219 10.0742 80.1328 10.0742C80.3867 10.0742 80.5996 10.041 80.7715 9.97461C80.9434 9.9043 81.0742 9.81055 81.1641 9.69336C81.2539 9.57227 81.2988 9.43555 81.2988 9.2832Z" fill="white"/>
<path d="M4.18945 19.6055L1.64062 27H0.0996094L3.31055 18.4688H4.29492L4.18945 19.6055ZM6.32227 27L3.76758 19.6055L3.65625 18.4688H4.64648L7.86914 27H6.32227ZM6.19922 23.8359V25.002H1.55859V23.8359H6.19922ZM9.97852 22.0137V27H8.56641V20.6602H9.89648L9.97852 22.0137ZM9.72656 23.5957L9.26953 23.5898C9.27344 23.1406 9.33594 22.7285 9.45703 22.3535C9.58203 21.9785 9.75391 21.6562 9.97266 21.3867C10.1953 21.1172 10.4609 20.9102 10.7695 20.7656C11.0781 20.6172 11.4219 20.543 11.8008 20.543C12.1055 20.543 12.3809 20.5859 12.627 20.6719C12.877 20.7539 13.0898 20.8887 13.2656 21.0762C13.4453 21.2637 13.582 21.5078 13.6758 21.8086C13.7695 22.1055 13.8164 22.4707 13.8164 22.9043V27H12.3984V22.8984C12.3984 22.5938 12.3535 22.3535 12.2637 22.1777C12.1777 21.998 12.0508 21.8711 11.8828 21.7969C11.7188 21.7188 11.5137 21.6797 11.2676 21.6797C11.0254 21.6797 10.8086 21.7305 10.6172 21.832C10.4258 21.9336 10.2637 22.0723 10.1309 22.248C10.002 22.4238 9.90234 22.627 9.83203 22.8574C9.76172 23.0879 9.72656 23.334 9.72656 23.5957ZM14.9883 23.9004V23.7656C14.9883 23.3086 15.0547 22.8848 15.1875 22.4941C15.3203 22.0996 15.5117 21.7578 15.7617 21.4688C16.0156 21.1758 16.3242 20.9492 16.6875 20.7891C17.0547 20.625 17.4688 20.543 17.9297 20.543C18.3945 20.543 18.8086 20.625 19.1719 20.7891C19.5391 20.9492 19.8496 21.1758 20.1035 21.4688C20.3574 21.7578 20.5508 22.0996 20.6836 22.4941C20.8164 22.8848 20.8828 23.3086 20.8828 23.7656V23.9004C20.8828 24.3574 20.8164 24.7812 20.6836 25.1719C20.5508 25.5625 20.3574 25.9043 20.1035 26.1973C19.8496 26.4863 19.541 26.7129 19.1777 26.877C18.8145 27.0371 18.4023 27.1172 17.9414 27.1172C17.4766 27.1172 17.0605 27.0371 16.6934 26.877C16.3301 26.7129 16.0215 26.4863 15.7676 26.1973C15.5137 25.9043 15.3203 25.5625 15.1875 25.1719C15.0547 24.7812 14.9883 24.3574 14.9883 23.9004ZM16.4004 23.7656V23.9004C16.4004 24.1855 16.4297 24.4551 16.4883 24.709C16.5469 24.9629 16.6387 25.1855 16.7637 25.377C16.8887 25.5684 17.0488 25.7188 17.2441 25.8281C17.4395 25.9375 17.6719 25.9922 17.9414 25.9922C18.2031 25.9922 18.4297 25.9375 18.6211 25.8281C18.8164 25.7188 18.9766 25.5684 19.1016 25.377C19.2266 25.1855 19.3184 24.9629 19.377 24.709C19.4395 24.4551 19.4707 24.1855 19.4707 23.9004V23.7656C19.4707 23.4844 19.4395 23.2188 19.377 22.9688C19.3184 22.7148 19.2246 22.4902 19.0957 22.2949C18.9707 22.0996 18.8105 21.9473 18.6152 21.8379C18.4238 21.7246 18.1953 21.668 17.9297 21.668C17.6641 21.668 17.4336 21.7246 17.2383 21.8379C17.0469 21.9473 16.8887 22.0996 16.7637 22.2949C16.6387 22.4902 16.5469 22.7148 16.4883 22.9688C16.4297 23.2188 16.4004 23.4844 16.4004 23.7656ZM24.9727 20.6602V21.6914H21.3984V20.6602H24.9727ZM22.4297 19.1074H23.8418V25.248C23.8418 25.4434 23.8691 25.5938 23.9238 25.6992C23.9824 25.8008 24.0625 25.8691 24.1641 25.9043C24.2656 25.9395 24.3848 25.957 24.5215 25.957C24.6191 25.957 24.7129 25.9512 24.8027 25.9395C24.8926 25.9277 24.9648 25.916 25.0195 25.9043L25.0254 26.9824C24.9082 27.0176 24.7715 27.0488 24.6152 27.0762C24.4629 27.1035 24.2871 27.1172 24.0879 27.1172C23.7637 27.1172 23.4766 27.0605 23.2266 26.9473C22.9766 26.8301 22.7812 26.6406 22.6406 26.3789C22.5 26.1172 22.4297 25.7695 22.4297 25.3359V19.1074ZM27.457 18V27H26.0508V18H27.457ZM27.2109 23.5957L26.7539 23.5898C26.7578 23.1523 26.8184 22.748 26.9355 22.377C27.0566 22.0059 27.2246 21.6836 27.4395 21.4102C27.6582 21.1328 27.9199 20.9199 28.2246 20.7715C28.5293 20.6191 28.8672 20.543 29.2383 20.543C29.5508 20.543 29.832 20.5859 30.082 20.6719C30.3359 20.7578 30.5547 20.8965 30.7383 21.0879C30.9219 21.2754 31.0605 21.5215 31.1543 21.8262C31.252 22.127 31.3008 22.4941 31.3008 22.9277V27H29.8828V22.916C29.8828 22.6113 29.8379 22.3691 29.748 22.1895C29.6621 22.0098 29.5352 21.8809 29.3672 21.8027C29.1992 21.7207 28.9941 21.6797 28.752 21.6797C28.498 21.6797 28.2734 21.7305 28.0781 21.832C27.8867 21.9336 27.7266 22.0723 27.5977 22.248C27.4688 22.4238 27.3711 22.627 27.3047 22.8574C27.2422 23.0879 27.2109 23.334 27.2109 23.5957ZM35.5254 27.1172C35.0566 27.1172 34.6328 27.041 34.2539 26.8887C33.8789 26.7324 33.5586 26.5156 33.293 26.2383C33.0312 25.9609 32.8301 25.6348 32.6895 25.2598C32.5488 24.8848 32.4785 24.4805 32.4785 24.0469V23.8125C32.4785 23.3164 32.5508 22.8672 32.6953 22.4648C32.8398 22.0625 33.041 21.7188 33.2988 21.4336C33.5566 21.1445 33.8613 20.9238 34.2129 20.7715C34.5645 20.6191 34.9453 20.543 35.3555 20.543C35.8086 20.543 36.2051 20.6191 36.5449 20.7715C36.8848 20.9238 37.166 21.1387 37.3887 21.416C37.6152 21.6895 37.7832 22.0156 37.8926 22.3945C38.0059 22.7734 38.0625 23.1914 38.0625 23.6484V24.252H33.1641V23.2383H36.668V23.127C36.6602 22.873 36.6094 22.6348 36.5156 22.4121C36.4258 22.1895 36.2871 22.0098 36.0996 21.873C35.9121 21.7363 35.6621 21.668 35.3496 21.668C35.1152 21.668 34.9062 21.7188 34.7227 21.8203C34.543 21.918 34.3926 22.0605 34.2715 22.248C34.1504 22.4355 34.0566 22.6621 33.9902 22.9277C33.9277 23.1895 33.8965 23.4844 33.8965 23.8125V24.0469C33.8965 24.3242 33.9336 24.582 34.0078 24.8203C34.0859 25.0547 34.1992 25.2598 34.3477 25.4355C34.4961 25.6113 34.6758 25.75 34.8867 25.8516C35.0977 25.9492 35.3379 25.998 35.6074 25.998C35.9473 25.998 36.25 25.9297 36.5156 25.793C36.7812 25.6562 37.0117 25.4629 37.207 25.2129L37.9512 25.9336C37.8145 26.1328 37.6367 26.3242 37.418 26.5078C37.1992 26.6875 36.9316 26.834 36.6152 26.9473C36.3027 27.0605 35.9395 27.1172 35.5254 27.1172ZM40.582 21.8672V27H39.1699V20.6602H40.5176L40.582 21.8672ZM42.5215 20.6191L42.5098 21.9316C42.4238 21.916 42.3301 21.9043 42.2285 21.8965C42.1309 21.8887 42.0332 21.8848 41.9355 21.8848C41.6934 21.8848 41.4805 21.9199 41.2969 21.9902C41.1133 22.0566 40.959 22.1543 40.834 22.2832C40.7129 22.4082 40.6191 22.5605 40.5527 22.7402C40.4863 22.9199 40.4473 23.1211 40.4355 23.3438L40.1133 23.3672C40.1133 22.9688 40.1523 22.5996 40.2305 22.2598C40.3086 21.9199 40.4258 21.6211 40.582 21.3633C40.7422 21.1055 40.9414 20.9043 41.1797 20.7598C41.4219 20.6152 41.7012 20.543 42.0176 20.543C42.1035 20.543 42.1953 20.5508 42.293 20.5664C42.3945 20.582 42.4707 20.5996 42.5215 20.6191ZM48.9844 25.9922C49.2148 25.9922 49.4219 25.9473 49.6055 25.8574C49.793 25.7637 49.9434 25.6348 50.0566 25.4707C50.1738 25.3066 50.2383 25.1172 50.25 24.9023H51.5801C51.5723 25.3125 51.4512 25.6855 51.2168 26.0215C50.9824 26.3574 50.6719 26.625 50.2852 26.8242C49.8984 27.0195 49.4707 27.1172 49.002 27.1172C48.5176 27.1172 48.0957 27.0352 47.7363 26.8711C47.377 26.7031 47.0781 26.4727 46.8398 26.1797C46.6016 25.8867 46.4219 25.5488 46.3008 25.166C46.1836 24.7832 46.125 24.373 46.125 23.9355V23.7305C46.125 23.293 46.1836 22.8828 46.3008 22.5C46.4219 22.1133 46.6016 21.7734 46.8398 21.4805C47.0781 21.1875 47.377 20.959 47.7363 20.7949C48.0957 20.627 48.5156 20.543 48.9961 20.543C49.5039 20.543 49.9492 20.6445 50.332 20.8477C50.7148 21.0469 51.0156 21.3262 51.2344 21.6855C51.457 22.041 51.5723 22.4551 51.5801 22.9277H50.25C50.2383 22.6934 50.1797 22.4824 50.0742 22.2949C49.9727 22.1035 49.8281 21.9512 49.6406 21.8379C49.457 21.7246 49.2363 21.668 48.9785 21.668C48.6934 21.668 48.457 21.7266 48.2695 21.8438C48.082 21.957 47.9355 22.1133 47.8301 22.3125C47.7246 22.5078 47.6484 22.7285 47.6016 22.9746C47.5586 23.2168 47.5371 23.4688 47.5371 23.7305V23.9355C47.5371 24.1973 47.5586 24.4512 47.6016 24.6973C47.6445 24.9434 47.7188 25.1641 47.8242 25.3594C47.9336 25.5508 48.082 25.7051 48.2695 25.8223C48.457 25.9355 48.6953 25.9922 48.9844 25.9922ZM54.0586 18V27H52.6523V18H54.0586ZM53.8125 23.5957L53.3555 23.5898C53.3594 23.1523 53.4199 22.748 53.5371 22.377C53.6582 22.0059 53.8262 21.6836 54.041 21.4102C54.2598 21.1328 54.5215 20.9199 54.8262 20.7715C55.1309 20.6191 55.4688 20.543 55.8398 20.543C56.1523 20.543 56.4336 20.5859 56.6836 20.6719C56.9375 20.7578 57.1562 20.8965 57.3398 21.0879C57.5234 21.2754 57.6621 21.5215 57.7559 21.8262C57.8535 22.127 57.9023 22.4941 57.9023 22.9277V27H56.4844V22.916C56.4844 22.6113 56.4395 22.3691 56.3496 22.1895C56.2637 22.0098 56.1367 21.8809 55.9688 21.8027C55.8008 21.7207 55.5957 21.6797 55.3535 21.6797C55.0996 21.6797 54.875 21.7305 54.6797 21.832C54.4883 21.9336 54.3281 22.0723 54.1992 22.248C54.0703 22.4238 53.9727 22.627 53.9062 22.8574C53.8438 23.0879 53.8125 23.334 53.8125 23.5957ZM60.8438 20.6602V27H59.4258V20.6602H60.8438ZM59.332 18.9961C59.332 18.7812 59.4023 18.6035 59.543 18.4629C59.6875 18.3184 59.8867 18.2461 60.1406 18.2461C60.3906 18.2461 60.5879 18.3184 60.7324 18.4629C60.877 18.6035 60.9492 18.7812 60.9492 18.9961C60.9492 19.207 60.877 19.3828 60.7324 19.5234C60.5879 19.6641 60.3906 19.7344 60.1406 19.7344C59.8867 19.7344 59.6875 19.6641 59.543 19.5234C59.4023 19.3828 59.332 19.207 59.332 18.9961ZM63.9023 18V27H62.4844V18H63.9023ZM66.9609 18V27H65.543V18H66.9609ZM69.9023 18V27H68.4961V18H69.9023ZM69.6562 23.5957L69.1992 23.5898C69.2031 23.1523 69.2637 22.748 69.3809 22.377C69.502 22.0059 69.6699 21.6836 69.8848 21.4102C70.1035 21.1328 70.3652 20.9199 70.6699 20.7715C70.9746 20.6191 71.3125 20.543 71.6836 20.543C71.9961 20.543 72.2773 20.5859 72.5273 20.6719C72.7812 20.7578 73 20.8965 73.1836 21.0879C73.3672 21.2754 73.5059 21.5215 73.5996 21.8262C73.6973 22.127 73.7461 22.4941 73.7461 22.9277V27H72.3281V22.916C72.3281 22.6113 72.2832 22.3691 72.1934 22.1895C72.1074 22.0098 71.9805 21.8809 71.8125 21.8027C71.6445 21.7207 71.4395 21.6797 71.1973 21.6797C70.9434 21.6797 70.7188 21.7305 70.5234 21.832C70.332 21.9336 70.1719 22.0723 70.043 22.248C69.9141 22.4238 69.8164 22.627 69.75 22.8574C69.6875 23.0879 69.6562 23.334 69.6562 23.5957ZM74.9062 23.9004V23.7656C74.9062 23.3086 74.9727 22.8848 75.1055 22.4941C75.2383 22.0996 75.4297 21.7578 75.6797 21.4688C75.9336 21.1758 76.2422 20.9492 76.6055 20.7891C76.9727 20.625 77.3867 20.543 77.8477 20.543C78.3125 20.543 78.7266 20.625 79.0898 20.7891C79.457 20.9492 79.7676 21.1758 80.0215 21.4688C80.2754 21.7578 80.4688 22.0996 80.6016 22.4941C80.7344 22.8848 80.8008 23.3086 80.8008 23.7656V23.9004C80.8008 24.3574 80.7344 24.7812 80.6016 25.1719C80.4688 25.5625 80.2754 25.9043 80.0215 26.1973C79.7676 26.4863 79.459 26.7129 79.0957 26.877C78.7324 27.0371 78.3203 27.1172 77.8594 27.1172C77.3945 27.1172 76.9785 27.0371 76.6113 26.877C76.248 26.7129 75.9395 26.4863 75.6855 26.1973C75.4316 25.9043 75.2383 25.5625 75.1055 25.1719C74.9727 24.7812 74.9062 24.3574 74.9062 23.9004ZM76.3184 23.7656V23.9004C76.3184 24.1855 76.3477 24.4551 76.4062 24.709C76.4648 24.9629 76.5566 25.1855 76.6816 25.377C76.8066 25.5684 76.9668 25.7188 77.1621 25.8281C77.3574 25.9375 77.5898 25.9922 77.8594 25.9922C78.1211 25.9922 78.3477 25.9375 78.5391 25.8281C78.7344 25.7188 78.8945 25.5684 79.0195 25.377C79.1445 25.1855 79.2363 24.9629 79.2949 24.709C79.3574 24.4551 79.3887 24.1855 79.3887 23.9004V23.7656C79.3887 23.4844 79.3574 23.2188 79.2949 22.9688C79.2363 22.7148 79.1426 22.4902 79.0137 22.2949C78.8887 22.0996 78.7285 21.9473 78.5332 21.8379C78.3418 21.7246 78.1133 21.668 77.8477 21.668C77.582 21.668 77.3516 21.7246 77.1562 21.8379C76.9648 21.9473 76.8066 22.0996 76.6816 22.2949C76.5566 22.4902 76.4648 22.7148 76.4062 22.9688C76.3477 23.2188 76.3184 23.4844 76.3184 23.7656ZM83.4023 21.8789V29.4375H81.9902V20.6602H83.291L83.4023 21.8789ZM87.5332 23.7715V23.8945C87.5332 24.3555 87.4785 24.7832 87.3691 25.1777C87.2637 25.5684 87.1055 25.9102 86.8945 26.2031C86.6875 26.4922 86.4316 26.7168 86.127 26.877C85.8223 27.0371 85.4707 27.1172 85.0723 27.1172C84.6777 27.1172 84.332 27.0449 84.0352 26.9004C83.7422 26.752 83.4941 26.543 83.291 26.2734C83.0879 26.0039 82.9238 25.6875 82.7988 25.3242C82.6777 24.957 82.5918 24.5547 82.541 24.1172V23.6426C82.5918 23.1777 82.6777 22.7559 82.7988 22.377C82.9238 21.998 83.0879 21.6719 83.291 21.3984C83.4941 21.125 83.7422 20.9141 84.0352 20.7656C84.3281 20.6172 84.6699 20.543 85.0605 20.543C85.459 20.543 85.8125 20.6211 86.1211 20.7773C86.4297 20.9297 86.6895 21.1484 86.9004 21.4336C87.1113 21.7148 87.2695 22.0547 87.375 22.4531C87.4805 22.8477 87.5332 23.2871 87.5332 23.7715ZM86.1211 23.8945V23.7715C86.1211 23.4785 86.0938 23.207 86.0391 22.957C85.9844 22.7031 85.8984 22.4805 85.7812 22.2891C85.6641 22.0977 85.5137 21.9492 85.3301 21.8438C85.1504 21.7344 84.9336 21.6797 84.6797 21.6797C84.4297 21.6797 84.2148 21.7227 84.0352 21.8086C83.8555 21.8906 83.7051 22.0059 83.584 22.1543C83.4629 22.3027 83.3691 22.4766 83.3027 22.6758C83.2363 22.8711 83.1895 23.084 83.1621 23.3145V24.4512C83.209 24.7324 83.2891 24.9902 83.4023 25.2246C83.5156 25.459 83.6758 25.6465 83.8828 25.7871C84.0938 25.9238 84.3633 25.9922 84.6914 25.9922C84.9453 25.9922 85.1621 25.9375 85.3418 25.8281C85.5215 25.7188 85.668 25.5684 85.7812 25.377C85.8984 25.1816 85.9844 24.957 86.0391 24.7031C86.0938 24.4492 86.1211 24.1797 86.1211 23.8945ZM95.4316 18.4688L92.1094 27.7324H91.002L94.3301 18.4688H95.4316ZM104.883 25.834V27H100.6V25.834H104.883ZM101.01 18.4688V27H99.5391V18.4688H101.01ZM105.609 23.9004V23.7656C105.609 23.3086 105.676 22.8848 105.809 22.4941C105.941 22.0996 106.133 21.7578 106.383 21.4688C106.637 21.1758 106.945 20.9492 107.309 20.7891C107.676 20.625 108.09 20.543 108.551 20.543C109.016 20.543 109.43 20.625 109.793 20.7891C110.16 20.9492 110.471 21.1758 110.725 21.4688C110.979 21.7578 111.172 22.0996 111.305 22.4941C111.438 22.8848 111.504 23.3086 111.504 23.7656V23.9004C111.504 24.3574 111.438 24.7812 111.305 25.1719C111.172 25.5625 110.979 25.9043 110.725 26.1973C110.471 26.4863 110.162 26.7129 109.799 26.877C109.436 27.0371 109.023 27.1172 108.562 27.1172C108.098 27.1172 107.682 27.0371 107.314 26.877C106.951 26.7129 106.643 26.4863 106.389 26.1973C106.135 25.9043 105.941 25.5625 105.809 25.1719C105.676 24.7812 105.609 24.3574 105.609 23.9004ZM107.021 23.7656V23.9004C107.021 24.1855 107.051 24.4551 107.109 24.709C107.168 24.9629 107.26 25.1855 107.385 25.377C107.51 25.5684 107.67 25.7188 107.865 25.8281C108.061 25.9375 108.293 25.9922 108.562 25.9922C108.824 25.9922 109.051 25.9375 109.242 25.8281C109.438 25.7188 109.598 25.5684 109.723 25.377C109.848 25.1855 109.939 24.9629 109.998 24.709C110.061 24.4551 110.092 24.1855 110.092 23.9004V23.7656C110.092 23.4844 110.061 23.2188 109.998 22.9688C109.939 22.7148 109.846 22.4902 109.717 22.2949C109.592 22.0996 109.432 21.9473 109.236 21.8379C109.045 21.7246 108.816 21.668 108.551 21.668C108.285 21.668 108.055 21.7246 107.859 21.8379C107.668 21.9473 107.51 22.0996 107.385 22.2949C107.26 22.4902 107.168 22.7148 107.109 22.9688C107.051 23.2188 107.021 23.4844 107.021 23.7656ZM114.504 27H113.086V20.25C113.086 19.7383 113.188 19.3066 113.391 18.9551C113.598 18.6035 113.893 18.3359 114.275 18.1523C114.662 17.9688 115.121 17.877 115.652 17.877C115.965 17.877 116.266 17.9102 116.555 17.9766C116.848 18.043 117.15 18.127 117.463 18.2285L117.246 19.377C117.047 19.3105 116.826 19.248 116.584 19.1895C116.342 19.127 116.062 19.0957 115.746 19.0957C115.32 19.0957 115.006 19.1934 114.803 19.3887C114.604 19.5801 114.504 19.8672 114.504 20.25V27ZM115.775 20.6602V21.6914H112.113V20.6602H115.775ZM118.131 20.6602V27H116.719V20.6602H118.131ZM124.113 21.8789V29.4375H122.701V20.6602H124.002L124.113 21.8789ZM128.244 23.7715V23.8945C128.244 24.3555 128.189 24.7832 128.08 25.1777C127.975 25.5684 127.816 25.9102 127.605 26.2031C127.398 26.4922 127.143 26.7168 126.838 26.877C126.533 27.0371 126.182 27.1172 125.783 27.1172C125.389 27.1172 125.043 27.0449 124.746 26.9004C124.453 26.752 124.205 26.543 124.002 26.2734C123.799 26.0039 123.635 25.6875 123.51 25.3242C123.389 24.957 123.303 24.5547 123.252 24.1172V23.6426C123.303 23.1777 123.389 22.7559 123.51 22.377C123.635 21.998 123.799 21.6719 124.002 21.3984C124.205 21.125 124.453 20.9141 124.746 20.7656C125.039 20.6172 125.381 20.543 125.771 20.543C126.17 20.543 126.523 20.6211 126.832 20.7773C127.141 20.9297 127.4 21.1484 127.611 21.4336C127.822 21.7148 127.98 22.0547 128.086 22.4531C128.191 22.8477 128.244 23.2871 128.244 23.7715ZM126.832 23.8945V23.7715C126.832 23.4785 126.805 23.207 126.75 22.957C126.695 22.7031 126.609 22.4805 126.492 22.2891C126.375 22.0977 126.225 21.9492 126.041 21.8438C125.861 21.7344 125.645 21.6797 125.391 21.6797C125.141 21.6797 124.926 21.7227 124.746 21.8086C124.566 21.8906 124.416 22.0059 124.295 22.1543C124.174 22.3027 124.08 22.4766 124.014 22.6758C123.947 22.8711 123.9 23.084 123.873 23.3145V24.4512C123.92 24.7324 124 24.9902 124.113 25.2246C124.227 25.459 124.387 25.6465 124.594 25.7871C124.805 25.9238 125.074 25.9922 125.402 25.9922C125.656 25.9922 125.873 25.9375 126.053 25.8281C126.232 25.7188 126.379 25.5684 126.492 25.377C126.609 25.1816 126.695 24.957 126.75 24.7031C126.805 24.4492 126.832 24.1797 126.832 23.8945ZM130.957 20.6602V27H129.539V20.6602H130.957ZM129.445 18.9961C129.445 18.7812 129.516 18.6035 129.656 18.4629C129.801 18.3184 130 18.2461 130.254 18.2461C130.504 18.2461 130.701 18.3184 130.846 18.4629C130.99 18.6035 131.062 18.7812 131.062 18.9961C131.062 19.207 130.99 19.3828 130.846 19.5234C130.701 19.6641 130.504 19.7344 130.254 19.7344C130 19.7344 129.801 19.6641 129.656 19.5234C129.516 19.3828 129.445 19.207 129.445 18.9961ZM135.299 27.1172C134.83 27.1172 134.406 27.041 134.027 26.8887C133.652 26.7324 133.332 26.5156 133.066 26.2383C132.805 25.9609 132.604 25.6348 132.463 25.2598C132.322 24.8848 132.252 24.4805 132.252 24.0469V23.8125C132.252 23.3164 132.324 22.8672 132.469 22.4648C132.613 22.0625 132.814 21.7188 133.072 21.4336C133.33 21.1445 133.635 20.9238 133.986 20.7715C134.338 20.6191 134.719 20.543 135.129 20.543C135.582 20.543 135.979 20.6191 136.318 20.7715C136.658 20.9238 136.939 21.1387 137.162 21.416C137.389 21.6895 137.557 22.0156 137.666 22.3945C137.779 22.7734 137.836 23.1914 137.836 23.6484V24.252H132.938V23.2383H136.441V23.127C136.434 22.873 136.383 22.6348 136.289 22.4121C136.199 22.1895 136.061 22.0098 135.873 21.873C135.686 21.7363 135.436 21.668 135.123 21.668C134.889 21.668 134.68 21.7188 134.496 21.8203C134.316 21.918 134.166 22.0605 134.045 22.248C133.924 22.4355 133.83 22.6621 133.764 22.9277C133.701 23.1895 133.67 23.4844 133.67 23.8125V24.0469C133.67 24.3242 133.707 24.582 133.781 24.8203C133.859 25.0547 133.973 25.2598 134.121 25.4355C134.27 25.6113 134.449 25.75 134.66 25.8516C134.871 25.9492 135.111 25.998 135.381 25.998C135.721 25.998 136.023 25.9297 136.289 25.793C136.555 25.6562 136.785 25.4629 136.98 25.2129L137.725 25.9336C137.588 26.1328 137.41 26.3242 137.191 26.5078C136.973 26.6875 136.705 26.834 136.389 26.9473C136.076 27.0605 135.713 27.1172 135.299 27.1172ZM141.527 25.9922C141.758 25.9922 141.965 25.9473 142.148 25.8574C142.336 25.7637 142.486 25.6348 142.6 25.4707C142.717 25.3066 142.781 25.1172 142.793 24.9023H144.123C144.115 25.3125 143.994 25.6855 143.76 26.0215C143.525 26.3574 143.215 26.625 142.828 26.8242C142.441 27.0195 142.014 27.1172 141.545 27.1172C141.061 27.1172 140.639 27.0352 140.279 26.8711C139.92 26.7031 139.621 26.4727 139.383 26.1797C139.145 25.8867 138.965 25.5488 138.844 25.166C138.727 24.7832 138.668 24.373 138.668 23.9355V23.7305C138.668 23.293 138.727 22.8828 138.844 22.5C138.965 22.1133 139.145 21.7734 139.383 21.4805C139.621 21.1875 139.92 20.959 140.279 20.7949C140.639 20.627 141.059 20.543 141.539 20.543C142.047 20.543 142.492 20.6445 142.875 20.8477C143.258 21.0469 143.559 21.3262 143.777 21.6855C144 22.041 144.115 22.4551 144.123 22.9277H142.793C142.781 22.6934 142.723 22.4824 142.617 22.2949C142.516 22.1035 142.371 21.9512 142.184 21.8379C142 21.7246 141.779 21.668 141.521 21.668C141.236 21.668 141 21.7266 140.812 21.8438C140.625 21.957 140.479 22.1133 140.373 22.3125C140.268 22.5078 140.191 22.7285 140.145 22.9746C140.102 23.2168 140.08 23.4688 140.08 23.7305V23.9355C140.08 24.1973 140.102 24.4512 140.145 24.6973C140.188 24.9434 140.262 25.1641 140.367 25.3594C140.477 25.5508 140.625 25.7051 140.812 25.8223C141 25.9355 141.238 25.9922 141.527 25.9922ZM148.002 27.1172C147.533 27.1172 147.109 27.041 146.73 26.8887C146.355 26.7324 146.035 26.5156 145.77 26.2383C145.508 25.9609 145.307 25.6348 145.166 25.2598C145.025 24.8848 144.955 24.4805 144.955 24.0469V23.8125C144.955 23.3164 145.027 22.8672 145.172 22.4648C145.316 22.0625 145.518 21.7188 145.775 21.4336C146.033 21.1445 146.338 20.9238 146.689 20.7715C147.041 20.6191 147.422 20.543 147.832 20.543C148.285 20.543 148.682 20.6191 149.021 20.7715C149.361 20.9238 149.643 21.1387 149.865 21.416C150.092 21.6895 150.26 22.0156 150.369 22.3945C150.482 22.7734 150.539 23.1914 150.539 23.6484V24.252H145.641V23.2383H149.145V23.127C149.137 22.873 149.086 22.6348 148.992 22.4121C148.902 22.1895 148.764 22.0098 148.576 21.873C148.389 21.7363 148.139 21.668 147.826 21.668C147.592 21.668 147.383 21.7188 147.199 21.8203C147.02 21.918 146.869 22.0605 146.748 22.248C146.627 22.4355 146.533 22.6621 146.467 22.9277C146.404 23.1895 146.373 23.4844 146.373 23.8125V24.0469C146.373 24.3242 146.41 24.582 146.484 24.8203C146.562 25.0547 146.676 25.2598 146.824 25.4355C146.973 25.6113 147.152 25.75 147.363 25.8516C147.574 25.9492 147.814 25.998 148.084 25.998C148.424 25.998 148.727 25.9297 148.992 25.793C149.258 25.6562 149.488 25.4629 149.684 25.2129L150.428 25.9336C150.291 26.1328 150.113 26.3242 149.895 26.5078C149.676 26.6875 149.408 26.834 149.092 26.9473C148.779 27.0605 148.416 27.1172 148.002 27.1172ZM156.047 21.8672V27H154.635V20.6602H155.982L156.047 21.8672ZM157.986 20.6191L157.975 21.9316C157.889 21.916 157.795 21.9043 157.693 21.8965C157.596 21.8887 157.498 21.8848 157.4 21.8848C157.158 21.8848 156.945 21.9199 156.762 21.9902C156.578 22.0566 156.424 22.1543 156.299 22.2832C156.178 22.4082 156.084 22.5605 156.018 22.7402C155.951 22.9199 155.912 23.1211 155.9 23.3438L155.578 23.3672C155.578 22.9688 155.617 22.5996 155.695 22.2598C155.773 21.9199 155.891 21.6211 156.047 21.3633C156.207 21.1055 156.406 20.9043 156.645 20.7598C156.887 20.6152 157.166 20.543 157.482 20.543C157.568 20.543 157.66 20.5508 157.758 20.5664C157.859 20.582 157.936 20.5996 157.986 20.6191ZM161.549 27.1172C161.08 27.1172 160.656 27.041 160.277 26.8887C159.902 26.7324 159.582 26.5156 159.316 26.2383C159.055 25.9609 158.854 25.6348 158.713 25.2598C158.572 24.8848 158.502 24.4805 158.502 24.0469V23.8125C158.502 23.3164 158.574 22.8672 158.719 22.4648C158.863 22.0625 159.064 21.7188 159.322 21.4336C159.58 21.1445 159.885 20.9238 160.236 20.7715C160.588 20.6191 160.969 20.543 161.379 20.543C161.832 20.543 162.229 20.6191 162.568 20.7715C162.908 20.9238 163.189 21.1387 163.412 21.416C163.639 21.6895 163.807 22.0156 163.916 22.3945C164.029 22.7734 164.086 23.1914 164.086 23.6484V24.252H159.188V23.2383H162.691V23.127C162.684 22.873 162.633 22.6348 162.539 22.4121C162.449 22.1895 162.311 22.0098 162.123 21.873C161.936 21.7363 161.686 21.668 161.373 21.668C161.139 21.668 160.93 21.7188 160.746 21.8203C160.566 21.918 160.416 22.0605 160.295 22.248C160.174 22.4355 160.08 22.6621 160.014 22.9277C159.951 23.1895 159.92 23.4844 159.92 23.8125V24.0469C159.92 24.3242 159.957 24.582 160.031 24.8203C160.109 25.0547 160.223 25.2598 160.371 25.4355C160.52 25.6113 160.699 25.75 160.91 25.8516C161.121 25.9492 161.361 25.998 161.631 25.998C161.971 25.998 162.273 25.9297 162.539 25.793C162.805 25.6562 163.035 25.4629 163.23 25.2129L163.975 25.9336C163.838 26.1328 163.66 26.3242 163.441 26.5078C163.223 26.6875 162.955 26.834 162.639 26.9473C162.326 27.0605 161.963 27.1172 161.549 27.1172ZM166.699 18V27H165.281V18H166.699ZM171.041 27.1172C170.572 27.1172 170.148 27.041 169.77 26.8887C169.395 26.7324 169.074 26.5156 168.809 26.2383C168.547 25.9609 168.346 25.6348 168.205 25.2598C168.064 24.8848 167.994 24.4805 167.994 24.0469V23.8125C167.994 23.3164 168.066 22.8672 168.211 22.4648C168.355 22.0625 168.557 21.7188 168.814 21.4336C169.072 21.1445 169.377 20.9238 169.729 20.7715C170.08 20.6191 170.461 20.543 170.871 20.543C171.324 20.543 171.721 20.6191 172.061 20.7715C172.4 20.9238 172.682 21.1387 172.904 21.416C173.131 21.6895 173.299 22.0156 173.408 22.3945C173.521 22.7734 173.578 23.1914 173.578 23.6484V24.252H168.68V23.2383H172.184V23.127C172.176 22.873 172.125 22.6348 172.031 22.4121C171.941 22.1895 171.803 22.0098 171.615 21.873C171.428 21.7363 171.178 21.668 170.865 21.668C170.631 21.668 170.422 21.7188 170.238 21.8203C170.059 21.918 169.908 22.0605 169.787 22.248C169.666 22.4355 169.572 22.6621 169.506 22.9277C169.443 23.1895 169.412 23.4844 169.412 23.8125V24.0469C169.412 24.3242 169.449 24.582 169.523 24.8203C169.602 25.0547 169.715 25.2598 169.863 25.4355C170.012 25.6113 170.191 25.75 170.402 25.8516C170.613 25.9492 170.854 25.998 171.123 25.998C171.463 25.998 171.766 25.9297 172.031 25.793C172.297 25.6562 172.527 25.4629 172.723 25.2129L173.467 25.9336C173.33 26.1328 173.152 26.3242 172.934 26.5078C172.715 26.6875 172.447 26.834 172.131 26.9473C171.818 27.0605 171.455 27.1172 171.041 27.1172ZM178.254 25.7285V22.7051C178.254 22.4785 178.213 22.2832 178.131 22.1191C178.049 21.9551 177.924 21.8281 177.756 21.7383C177.592 21.6484 177.385 21.6035 177.135 21.6035C176.904 21.6035 176.705 21.6426 176.537 21.7207C176.369 21.7988 176.238 21.9043 176.145 22.0371C176.051 22.1699 176.004 22.3203 176.004 22.4883H174.598C174.598 22.2383 174.658 21.9961 174.779 21.7617C174.9 21.5273 175.076 21.3184 175.307 21.1348C175.537 20.9512 175.812 20.8066 176.133 20.7012C176.453 20.5957 176.812 20.543 177.211 20.543C177.688 20.543 178.109 20.623 178.477 20.7832C178.848 20.9434 179.139 21.1855 179.35 21.5098C179.564 21.8301 179.672 22.2324 179.672 22.7168V25.5352C179.672 25.8242 179.691 26.084 179.73 26.3145C179.773 26.541 179.834 26.7383 179.912 26.9062V27H178.465C178.398 26.8477 178.346 26.6543 178.307 26.4199C178.271 26.1816 178.254 25.9512 178.254 25.7285ZM178.459 23.1445L178.471 24.0176H177.457C177.195 24.0176 176.965 24.043 176.766 24.0938C176.566 24.1406 176.4 24.2109 176.268 24.3047C176.135 24.3984 176.035 24.5117 175.969 24.6445C175.902 24.7773 175.869 24.9277 175.869 25.0957C175.869 25.2637 175.908 25.418 175.986 25.5586C176.064 25.6953 176.178 25.8027 176.326 25.8809C176.479 25.959 176.662 25.998 176.877 25.998C177.166 25.998 177.418 25.9395 177.633 25.8223C177.852 25.7012 178.023 25.5547 178.148 25.3828C178.273 25.207 178.34 25.041 178.348 24.8848L178.805 25.5117C178.758 25.6719 178.678 25.8438 178.564 26.0273C178.451 26.2109 178.303 26.3867 178.119 26.5547C177.939 26.7188 177.723 26.8535 177.469 26.959C177.219 27.0645 176.93 27.1172 176.602 27.1172C176.188 27.1172 175.818 27.0352 175.494 26.8711C175.17 26.7031 174.916 26.4785 174.732 26.1973C174.549 25.9121 174.457 25.5898 174.457 25.2305C174.457 24.8945 174.52 24.5977 174.645 24.3398C174.773 24.0781 174.961 23.8594 175.207 23.6836C175.457 23.5078 175.762 23.375 176.121 23.2852C176.48 23.1914 176.891 23.1445 177.352 23.1445H178.459ZM184.705 25.2832C184.705 25.1426 184.67 25.0156 184.6 24.9023C184.529 24.7852 184.395 24.6797 184.195 24.5859C184 24.4922 183.711 24.4062 183.328 24.3281C182.992 24.2539 182.684 24.166 182.402 24.0645C182.125 23.959 181.887 23.832 181.688 23.6836C181.488 23.5352 181.334 23.3594 181.225 23.1562C181.115 22.9531 181.061 22.7188 181.061 22.4531C181.061 22.1953 181.117 21.9512 181.23 21.7207C181.344 21.4902 181.506 21.2871 181.717 21.1113C181.928 20.9355 182.184 20.7969 182.484 20.6953C182.789 20.5938 183.129 20.543 183.504 20.543C184.035 20.543 184.49 20.6328 184.869 20.8125C185.252 20.9883 185.545 21.2285 185.748 21.5332C185.951 21.834 186.053 22.1738 186.053 22.5527H184.641C184.641 22.3848 184.598 22.2285 184.512 22.084C184.43 21.9355 184.305 21.8164 184.137 21.7266C183.969 21.6328 183.758 21.5859 183.504 21.5859C183.262 21.5859 183.061 21.625 182.9 21.7031C182.744 21.7773 182.627 21.875 182.549 21.9961C182.475 22.1172 182.438 22.25 182.438 22.3945C182.438 22.5 182.457 22.5957 182.496 22.6816C182.539 22.7637 182.609 22.8398 182.707 22.9102C182.805 22.9766 182.938 23.0391 183.105 23.0977C183.277 23.1562 183.492 23.2129 183.75 23.2676C184.234 23.3691 184.65 23.5 184.998 23.6602C185.35 23.8164 185.619 24.0195 185.807 24.2695C185.994 24.5156 186.088 24.8281 186.088 25.207C186.088 25.4883 186.027 25.7461 185.906 25.9805C185.789 26.2109 185.617 26.4121 185.391 26.584C185.164 26.752 184.893 26.8828 184.576 26.9766C184.264 27.0703 183.912 27.1172 183.521 27.1172C182.947 27.1172 182.461 27.0156 182.062 26.8125C181.664 26.6055 181.361 26.3418 181.154 26.0215C180.951 25.6973 180.85 25.3613 180.85 25.0137H182.215C182.23 25.2754 182.303 25.4844 182.432 25.6406C182.564 25.793 182.729 25.9043 182.924 25.9746C183.123 26.041 183.328 26.0742 183.539 26.0742C183.793 26.0742 184.006 26.041 184.178 25.9746C184.35 25.9043 184.48 25.8105 184.57 25.6934C184.66 25.5723 184.705 25.4355 184.705 25.2832ZM190.119 27.1172C189.65 27.1172 189.227 27.041 188.848 26.8887C188.473 26.7324 188.152 26.5156 187.887 26.2383C187.625 25.9609 187.424 25.6348 187.283 25.2598C187.143 24.8848 187.072 24.4805 187.072 24.0469V23.8125C187.072 23.3164 187.145 22.8672 187.289 22.4648C187.434 22.0625 187.635 21.7188 187.893 21.4336C188.15 21.1445 188.455 20.9238 188.807 20.7715C189.158 20.6191 189.539 20.543 189.949 20.543C190.402 20.543 190.799 20.6191 191.139 20.7715C191.479 20.9238 191.76 21.1387 191.982 21.416C192.209 21.6895 192.377 22.0156 192.486 22.3945C192.6 22.7734 192.656 23.1914 192.656 23.6484V24.252H187.758V23.2383H191.262V23.127C191.254 22.873 191.203 22.6348 191.109 22.4121C191.02 22.1895 190.881 22.0098 190.693 21.873C190.506 21.7363 190.256 21.668 189.943 21.668C189.709 21.668 189.5 21.7188 189.316 21.8203C189.137 21.918 188.986 22.0605 188.865 22.248C188.744 22.4355 188.65 22.6621 188.584 22.9277C188.521 23.1895 188.49 23.4844 188.49 23.8125V24.0469C188.49 24.3242 188.527 24.582 188.602 24.8203C188.68 25.0547 188.793 25.2598 188.941 25.4355C189.09 25.6113 189.27 25.75 189.48 25.8516C189.691 25.9492 189.932 25.998 190.201 25.998C190.541 25.998 190.844 25.9297 191.109 25.793C191.375 25.6562 191.605 25.4629 191.801 25.2129L192.545 25.9336C192.408 26.1328 192.23 26.3242 192.012 26.5078C191.793 26.6875 191.525 26.834 191.209 26.9473C190.896 27.0605 190.533 27.1172 190.119 27.1172ZM197.625 25.6875V18H199.043V27H197.76L197.625 25.6875ZM193.5 23.9004V23.7773C193.5 23.2969 193.557 22.8594 193.67 22.4648C193.783 22.0664 193.947 21.7246 194.162 21.4395C194.377 21.1504 194.639 20.9297 194.947 20.7773C195.256 20.6211 195.604 20.543 195.99 20.543C196.373 20.543 196.709 20.6172 196.998 20.7656C197.287 20.9141 197.533 21.127 197.736 21.4043C197.939 21.6777 198.102 22.0059 198.223 22.3887C198.344 22.7676 198.43 23.1895 198.48 23.6543V24.0469C198.43 24.5 198.344 24.9141 198.223 25.2891C198.102 25.6641 197.939 25.9883 197.736 26.2617C197.533 26.5352 197.285 26.7461 196.992 26.8945C196.703 27.043 196.365 27.1172 195.979 27.1172C195.596 27.1172 195.25 27.0371 194.941 26.877C194.637 26.7168 194.377 26.4922 194.162 26.2031C193.947 25.9141 193.783 25.5742 193.67 25.1836C193.557 24.7891 193.5 24.3613 193.5 23.9004ZM194.912 23.7773V23.9004C194.912 24.1895 194.938 24.459 194.988 24.709C195.043 24.959 195.127 25.1797 195.24 25.3711C195.354 25.5586 195.5 25.707 195.68 25.8164C195.863 25.9219 196.082 25.9746 196.336 25.9746C196.656 25.9746 196.92 25.9043 197.127 25.7637C197.334 25.623 197.496 25.4336 197.613 25.1953C197.734 24.9531 197.816 24.6836 197.859 24.3867V23.3262C197.836 23.0957 197.787 22.8809 197.713 22.6816C197.643 22.4824 197.547 22.3086 197.426 22.1602C197.305 22.0078 197.154 21.8906 196.975 21.8086C196.799 21.7227 196.59 21.6797 196.348 21.6797C196.09 21.6797 195.871 21.7344 195.691 21.8438C195.512 21.9531 195.363 22.1035 195.246 22.2949C195.133 22.4863 195.049 22.709 194.994 22.9629C194.939 23.2168 194.912 23.4883 194.912 23.7773ZM202.148 18.4688L202.008 24.4863H200.801L200.654 18.4688H202.148ZM200.613 26.332C200.613 26.1172 200.684 25.9375 200.824 25.793C200.969 25.6445 201.168 25.5703 201.422 25.5703C201.672 25.5703 201.869 25.6445 202.014 25.793C202.158 25.9375 202.23 26.1172 202.23 26.332C202.23 26.5391 202.158 26.7168 202.014 26.8652C201.869 27.0098 201.672 27.082 201.422 27.082C201.168 27.082 200.969 27.0098 200.824 26.8652C200.684 26.7168 200.613 26.5391 200.613 26.332Z" fill="white"/>
<path d="M1.42969 43L3 34.4688H3.96094L2.39062 43H1.42969ZM3.71484 43L5.28516 34.4688H6.24609L4.67578 43H3.71484ZM7.04297 37.8145H0.949219V36.9062H7.04297V37.8145ZM6.60352 40.5977H0.503906V39.6895H6.60352V40.5977ZM11.8359 41.6875V34H13.2539V43H11.9707L11.8359 41.6875ZM7.71094 39.9004V39.7773C7.71094 39.2969 7.76758 38.8594 7.88086 38.4648C7.99414 38.0664 8.1582 37.7246 8.37305 37.4395C8.58789 37.1504 8.84961 36.9297 9.1582 36.7773C9.4668 36.6211 9.81445 36.543 10.2012 36.543C10.584 36.543 10.9199 36.6172 11.209 36.7656C11.498 36.9141 11.7441 37.127 11.9473 37.4043C12.1504 37.6777 12.3125 38.0059 12.4336 38.3887C12.5547 38.7676 12.6406 39.1895 12.6914 39.6543V40.0469C12.6406 40.5 12.5547 40.9141 12.4336 41.2891C12.3125 41.6641 12.1504 41.9883 11.9473 42.2617C11.7441 42.5352 11.4961 42.7461 11.2031 42.8945C10.9141 43.043 10.5762 43.1172 10.1895 43.1172C9.80664 43.1172 9.46094 43.0371 9.15234 42.877C8.84766 42.7168 8.58789 42.4922 8.37305 42.2031C8.1582 41.9141 7.99414 41.5742 7.88086 41.1836C7.76758 40.7891 7.71094 40.3613 7.71094 39.9004ZM9.12305 39.7773V39.9004C9.12305 40.1895 9.14844 40.459 9.19922 40.709C9.25391 40.959 9.33789 41.1797 9.45117 41.3711C9.56445 41.5586 9.71094 41.707 9.89062 41.8164C10.0742 41.9219 10.293 41.9746 10.5469 41.9746C10.8672 41.9746 11.1309 41.9043 11.3379 41.7637C11.5449 41.623 11.707 41.4336 11.8242 41.1953C11.9453 40.9531 12.0273 40.6836 12.0703 40.3867V39.3262C12.0469 39.0957 11.998 38.8809 11.9238 38.6816C11.8535 38.4824 11.7578 38.3086 11.6367 38.1602C11.5156 38.0078 11.3652 37.8906 11.1855 37.8086C11.0098 37.7227 10.8008 37.6797 10.5586 37.6797C10.3008 37.6797 10.082 37.7344 9.90234 37.8438C9.72266 37.9531 9.57422 38.1035 9.45703 38.2949C9.34375 38.4863 9.25977 38.709 9.20508 38.9629C9.15039 39.2168 9.12305 39.4883 9.12305 39.7773ZM18.3047 41.7285V38.7051C18.3047 38.4785 18.2637 38.2832 18.1816 38.1191C18.0996 37.9551 17.9746 37.8281 17.8066 37.7383C17.6426 37.6484 17.4355 37.6035 17.1855 37.6035C16.9551 37.6035 16.7559 37.6426 16.5879 37.7207C16.4199 37.7988 16.2891 37.9043 16.1953 38.0371C16.1016 38.1699 16.0547 38.3203 16.0547 38.4883H14.6484C14.6484 38.2383 14.709 37.9961 14.8301 37.7617C14.9512 37.5273 15.127 37.3184 15.3574 37.1348C15.5879 36.9512 15.8633 36.8066 16.1836 36.7012C16.5039 36.5957 16.8633 36.543 17.2617 36.543C17.7383 36.543 18.1602 36.623 18.5273 36.7832C18.8984 36.9434 19.1895 37.1855 19.4004 37.5098C19.6152 37.8301 19.7227 38.2324 19.7227 38.7168V41.5352C19.7227 41.8242 19.7422 42.084 19.7812 42.3145C19.8242 42.541 19.8848 42.7383 19.9629 42.9062V43H18.5156C18.4492 42.8477 18.3965 42.6543 18.3574 42.4199C18.3223 42.1816 18.3047 41.9512 18.3047 41.7285ZM18.5098 39.1445L18.5215 40.0176H17.5078C17.2461 40.0176 17.0156 40.043 16.8164 40.0938C16.6172 40.1406 16.4512 40.2109 16.3184 40.3047C16.1855 40.3984 16.0859 40.5117 16.0195 40.6445C15.9531 40.7773 15.9199 40.9277 15.9199 41.0957C15.9199 41.2637 15.959 41.418 16.0371 41.5586C16.1152 41.6953 16.2285 41.8027 16.377 41.8809C16.5293 41.959 16.7129 41.998 16.9277 41.998C17.2168 41.998 17.4688 41.9395 17.6836 41.8223C17.9023 41.7012 18.0742 41.5547 18.1992 41.3828C18.3242 41.207 18.3906 41.041 18.3984 40.8848L18.8555 41.5117C18.8086 41.6719 18.7285 41.8438 18.6152 42.0273C18.502 42.2109 18.3535 42.3867 18.1699 42.5547C17.9902 42.7188 17.7734 42.8535 17.5195 42.959C17.2695 43.0645 16.9805 43.1172 16.6523 43.1172C16.2383 43.1172 15.8691 43.0352 15.5449 42.8711C15.2207 42.7031 14.9668 42.4785 14.7832 42.1973C14.5996 41.9121 14.5078 41.5898 14.5078 41.2305C14.5078 40.8945 14.5703 40.5977 14.6953 40.3398C14.8242 40.0781 15.0117 39.8594 15.2578 39.6836C15.5078 39.5078 15.8125 39.375 16.1719 39.2852C16.5312 39.1914 16.9414 39.1445 17.4023 39.1445H18.5098ZM22.5996 38.0137V43H21.1875V36.6602H22.5176L22.5996 38.0137ZM22.3477 39.5957L21.8906 39.5898C21.8945 39.1406 21.957 38.7285 22.0781 38.3535C22.2031 37.9785 22.375 37.6562 22.5938 37.3867C22.8164 37.1172 23.082 36.9102 23.3906 36.7656C23.6992 36.6172 24.043 36.543 24.4219 36.543C24.7266 36.543 25.002 36.5859 25.248 36.6719C25.498 36.7539 25.7109 36.8887 25.8867 37.0762C26.0664 37.2637 26.2031 37.5078 26.2969 37.8086C26.3906 38.1055 26.4375 38.4707 26.4375 38.9043V43H25.0195V38.8984C25.0195 38.5938 24.9746 38.3535 24.8848 38.1777C24.7988 37.998 24.6719 37.8711 24.5039 37.7969C24.3398 37.7188 24.1348 37.6797 23.8887 37.6797C23.6465 37.6797 23.4297 37.7305 23.2383 37.832C23.0469 37.9336 22.8848 38.0723 22.752 38.248C22.623 38.4238 22.5234 38.627 22.4531 38.8574C22.3828 39.0879 22.3477 39.334 22.3477 39.5957ZM30.4688 41.9922C30.6992 41.9922 30.9062 41.9473 31.0898 41.8574C31.2773 41.7637 31.4277 41.6348 31.541 41.4707C31.6582 41.3066 31.7227 41.1172 31.7344 40.9023H33.0645C33.0566 41.3125 32.9355 41.6855 32.7012 42.0215C32.4668 42.3574 32.1562 42.625 31.7695 42.8242C31.3828 43.0195 30.9551 43.1172 30.4863 43.1172C30.002 43.1172 29.5801 43.0352 29.2207 42.8711C28.8613 42.7031 28.5625 42.4727 28.3242 42.1797C28.0859 41.8867 27.9062 41.5488 27.7852 41.166C27.668 40.7832 27.6094 40.373 27.6094 39.9355V39.7305C27.6094 39.293 27.668 38.8828 27.7852 38.5C27.9062 38.1133 28.0859 37.7734 28.3242 37.4805C28.5625 37.1875 28.8613 36.959 29.2207 36.7949C29.5801 36.627 30 36.543 30.4805 36.543C30.9883 36.543 31.4336 36.6445 31.8164 36.8477C32.1992 37.0469 32.5 37.3262 32.7188 37.6855C32.9414 38.041 33.0566 38.4551 33.0645 38.9277H31.7344C31.7227 38.6934 31.6641 38.4824 31.5586 38.2949C31.457 38.1035 31.3125 37.9512 31.125 37.8379C30.9414 37.7246 30.7207 37.668 30.4629 37.668C30.1777 37.668 29.9414 37.7266 29.7539 37.8438C29.5664 37.957 29.4199 38.1133 29.3145 38.3125C29.209 38.5078 29.1328 38.7285 29.0859 38.9746C29.043 39.2168 29.0215 39.4688 29.0215 39.7305V39.9355C29.0215 40.1973 29.043 40.4512 29.0859 40.6973C29.1289 40.9434 29.2031 41.1641 29.3086 41.3594C29.418 41.5508 29.5664 41.7051 29.7539 41.8223C29.9414 41.9355 30.1797 41.9922 30.4688 41.9922ZM36.9434 43.1172C36.4746 43.1172 36.0508 43.041 35.6719 42.8887C35.2969 42.7324 34.9766 42.5156 34.7109 42.2383C34.4492 41.9609 34.248 41.6348 34.1074 41.2598C33.9668 40.8848 33.8965 40.4805 33.8965 40.0469V39.8125C33.8965 39.3164 33.9688 38.8672 34.1133 38.4648C34.2578 38.0625 34.459 37.7188 34.7168 37.4336C34.9746 37.1445 35.2793 36.9238 35.6309 36.7715C35.9824 36.6191 36.3633 36.543 36.7734 36.543C37.2266 36.543 37.623 36.6191 37.9629 36.7715C38.3027 36.9238 38.584 37.1387 38.8066 37.416C39.0332 37.6895 39.2012 38.0156 39.3105 38.3945C39.4238 38.7734 39.4805 39.1914 39.4805 39.6484V40.252H34.582V39.2383H38.0859V39.127C38.0781 38.873 38.0273 38.6348 37.9336 38.4121C37.8438 38.1895 37.7051 38.0098 37.5176 37.873C37.3301 37.7363 37.0801 37.668 36.7676 37.668C36.5332 37.668 36.3242 37.7188 36.1406 37.8203C35.9609 37.918 35.8105 38.0605 35.6895 38.248C35.5684 38.4355 35.4746 38.6621 35.4082 38.9277C35.3457 39.1895 35.3145 39.4844 35.3145 39.8125V40.0469C35.3145 40.3242 35.3516 40.582 35.4258 40.8203C35.5039 41.0547 35.6172 41.2598 35.7656 41.4355C35.9141 41.6113 36.0938 41.75 36.3047 41.8516C36.5156 41.9492 36.7559 41.998 37.0254 41.998C37.3652 41.998 37.668 41.9297 37.9336 41.793C38.1992 41.6562 38.4297 41.4629 38.625 41.2129L39.3691 41.9336C39.2324 42.1328 39.0547 42.3242 38.8359 42.5078C38.6172 42.6875 38.3496 42.834 38.0332 42.9473C37.7207 43.0605 37.3574 43.1172 36.9434 43.1172ZM44.2734 43L45.8438 34.4688H46.8047L45.2344 43H44.2734ZM46.5586 43L48.1289 34.4688H49.0898L47.5195 43H46.5586ZM49.8867 37.8145H43.793V36.9062H49.8867V37.8145ZM49.4473 40.5977H43.3477V39.6895H49.4473V40.5977ZM55.1859 34.216V34.324C55.1859 37.288 54.0339 39.7 50.6859 41.38L51.2499 42.148C55.0659 40.228 56.1459 37.348 56.1459 34.216H55.1859ZM51.2739 34.216V35.02H55.7859V34.216H51.2739ZM55.1259 36.904L50.7219 37.192L50.8899 38.056L55.1259 37.66V36.904ZM58.6059 33.088V43.936H59.6019V33.088H58.6059ZM56.1219 37.432V38.26H59.0859V37.432H56.1219ZM69.669 33.076V43.948H70.653V33.076H69.669ZM66.801 37.108V37.924H69.957V37.108H66.801ZM62.157 33.94V41.224H67.137V33.94H66.153V36.76H63.141V33.94H62.157ZM63.141 37.552H66.153V40.396H63.141V37.552Z" fill="#FE4938"/>
</svg>
