<svg width="53" height="53" viewBox="0 0 53 53" fill="none" xmlns="http://www.w3.org/2000/svg">
<g filter="url(#filter0_d_20_567)">
<path d="M4 20C4 8.9543 12.9543 0 24 0H29C40.0457 0 49 8.95431 49 20V25C49 36.0457 40.0457 45 29 45H24C12.9543 45 4 36.0457 4 25V20Z" fill="none" fill-opacity="0.55" shape-rendering="crispEdges"/>
</g>
<g filter="url(#filter1_d_20_567)">
<path fill-rule="evenodd" clip-rule="evenodd" d="M20.3461 22.7636L25.1461 27.1273L25.1413 27.1349C25.3667 27.3424 25.6742 27.4593 25.9951 27.4593C26.3159 27.4593 26.6234 27.3424 26.8489 27.1349L31.6489 22.7713C32.1036 22.3432 32.0971 21.6628 31.6342 21.242C31.1714 20.8212 30.4229 20.8153 29.9521 21.2287L27.2005 23.7302V11.0909C27.2005 10.4884 26.6632 10 26.0005 10C25.3377 10 24.8005 10.4884 24.8005 11.0909V23.7302L22.0429 21.2211C21.572 20.8077 20.8236 20.8136 20.3607 21.2344C19.8978 21.6552 19.8913 22.3356 20.3461 22.7636ZM14 30.7274C14 32.5349 15.6118 34.0001 17.6 34.0001H34.4C36.3882 34.0001 38 32.5349 38 30.7274V27.4547C38 26.8522 37.4627 26.3638 36.8 26.3638C36.1373 26.3638 35.6 26.8522 35.6 27.4547V30.7274C35.6 31.3299 35.0627 31.8183 34.4 31.8183H17.6C16.9373 31.8183 16.4 31.3299 16.4 30.7274V27.4547C16.4 26.8522 15.8627 26.3638 15.2 26.3638C14.5373 26.3638 14 26.8522 14 27.4547V30.7274Z" fill="none"/>
<mask id="mask0_20_567" style="mask-type:alpha" maskUnits="userSpaceOnUse" x="14" y="10" width="24" height="25">
<path fill-rule="evenodd" clip-rule="evenodd" d="M17.6 34.0001C15.6118 34.0001 14 32.5349 14 30.7274V27.4547C14 26.8522 14.5373 26.3638 15.2 26.3638C15.8627 26.3638 16.4 26.8522 16.4 27.4547V30.7274C16.4 31.3299 16.9373 31.8183 17.6 31.8183H34.4C35.0627 31.8183 35.6 31.3299 35.6 30.7274V27.4547C35.6 26.8522 36.1373 26.3638 36.8 26.3638C37.4627 26.3638 38 26.8522 38 27.4547V30.7274C38 32.5349 36.3882 34.0001 34.4 34.0001H17.6ZM25.1461 27.1273L20.3461 22.7636C19.8913 22.3356 19.8978 21.6552 20.3607 21.2344C20.8236 20.8136 21.572 20.8077 22.0429 21.2211L24.8005 23.7302V11.0909C24.8005 10.4884 25.3377 10 26.0005 10C26.6632 10 27.2005 10.4884 27.2005 11.0909V23.7302L29.9521 21.2287C30.4229 20.8153 31.1714 20.8212 31.6342 21.242C32.0971 21.6628 32.1036 22.3432 31.6489 22.7713L26.8489 27.1349C26.6234 27.3424 26.3159 27.4593 25.9951 27.4593C25.6742 27.4593 25.3667 27.3424 25.1413 27.1349L25.1461 27.1273Z" fill="white"/>
</mask>
<g mask="url(#mask0_20_567)">
<rect x="11.5996" y="8.90894" width="28.8" height="26.1818" fill="white"/>
</g>
</g>
<defs>
<filter id="filter0_d_20_567" x="0" y="0" width="53" height="53" filterUnits="userSpaceOnUse" color-interpolation-filters="sRGB">
<feFlood flood-opacity="0" result="BackgroundImageFix"/>
<feColorMatrix in="SourceAlpha" type="matrix" values="0 0 0 0 0 0 0 0 0 0 0 0 0 0 0 0 0 0 127 0" result="hardAlpha"/>
<feOffset dy="4"/>
<feGaussianBlur stdDeviation="2"/>
<feComposite in2="hardAlpha" operator="out"/>
<feColorMatrix type="matrix" values="0 0 0 0 0 0 0 0 0 0 0 0 0 0 0 0 0 0 0.25 0"/>
<feBlend mode="normal" in2="BackgroundImageFix" result="none"/>
<feBlend mode="normal" in="SourceGraphic" in2="effect1_dropShadow_20_567" result="shape"/>
</filter>
<filter id="filter1_d_20_567" x="10" y="10" width="32" height="32.0001" filterUnits="userSpaceOnUse" color-interpolation-filters="sRGB">
<feFlood flood-opacity="0" result="BackgroundImageFix"/>
<feColorMatrix in="SourceAlpha" type="matrix" values="0 0 0 0 0 0 0 0 0 0 0 0 0 0 0 0 0 0 127 0" result="hardAlpha"/>
<feOffset dy="4"/>
<feGaussianBlur stdDeviation="2"/>
<feComposite in2="hardAlpha" operator="out"/>
<feColorMatrix type="matrix" values="0 0 0 0 0 0 0 0 0 0 0 0 0 0 0 0 0 0 0.25 0"/>
<feBlend mode="normal" in2="BackgroundImageFix" result="effect1_dropShadow_20_567"/>
<feBlend mode="normal" in="SourceGraphic" in2="effect1_dropShadow_20_567" result="shape"/>
</filter>
<linearGradient id="paint0_linear_20_567" x1="4" y1="0" x2="4" y2="45" gradientUnits="userSpaceOnUse">
<stop stop-color="#959191"/>
<stop offset="1" stop-color="#C8C8C8"/>
</linearGradient>
</defs>
</svg>
