<svg width="58" height="58" viewBox="0 0 58 54" fill="none" xmlns="http://www.w3.org/2000/svg">
<g filter="url(#filter0_d_20_566)">
<circle cx="29" cy="25" r="25" fill="none"/>
</g>
<path fill-rule="evenodd" clip-rule="evenodd" d="M29.2 35.9091C29.2 36.5116 29.7373 37 30.4 37H36.4C38.3882 37 40 35.5347 40 33.7273V16.2727C40 14.4652 38.3882 13 36.4 13H30.4C29.7373 13 29.2 13.4884 29.2 14.0909C29.2 14.6934 29.7373 15.1818 30.4 15.1818H36.4C37.0627 15.1818 37.6 15.6702 37.6 16.2727V33.7273C37.6 34.3298 37.0627 34.8182 36.4 34.8182H30.4C29.7373 34.8182 29.2 35.3066 29.2 35.9091ZM25.9516 28.5924C25.4831 29.0184 25.4831 29.7089 25.9516 30.1349L25.9528 30.1327C26.1779 30.3376 26.4833 30.4527 26.8018 30.4527C27.1203 30.4527 27.4257 30.3376 27.6508 30.1327L32.4508 25.7691L32.4928 25.7287L32.5132 25.708L32.5324 25.6873L32.5504 25.6666L32.5684 25.6447C32.9256 25.2015 32.8644 24.5859 32.4256 24.208L27.6484 19.8651C27.1775 19.4517 26.4291 19.4576 25.9662 19.8784C25.5033 20.2992 25.4968 20.9796 25.9516 21.4076L28.7032 23.9091H17.2C16.5373 23.9091 16 24.3975 16 25C16 25.6025 16.5373 26.0909 17.2 26.0909H28.7032L25.9516 28.5924Z" fill="white"/>
<mask id="mask0_20_566" style="mask-type:alpha" maskUnits="userSpaceOnUse" x="16" y="13" width="24" height="24">
<path fill-rule="evenodd" clip-rule="evenodd" d="M30.4 37C29.7373 37 29.2 36.5116 29.2 35.9091C29.2 35.3066 29.7373 34.8182 30.4 34.8182H36.4C37.0627 34.8182 37.6 34.3298 37.6 33.7273V16.2727C37.6 15.6702 37.0627 15.1818 36.4 15.1818H30.4C29.7373 15.1818 29.2 14.6934 29.2 14.0909C29.2 13.4884 29.7373 13 30.4 13H36.4C38.3882 13 40 14.4652 40 16.2727V33.7273C40 35.5347 38.3882 37 36.4 37H30.4ZM25.9516 30.1349C25.4831 29.7089 25.4831 29.0184 25.9516 28.5924L28.7032 26.0909H17.2C16.5373 26.0909 16 25.6025 16 25C16 24.3975 16.5373 23.9091 17.2 23.9091H28.7032L25.9516 21.4076C25.4968 20.9796 25.5033 20.2992 25.9662 19.8784C26.4291 19.4576 27.1775 19.4517 27.6484 19.8651L32.4256 24.208C32.8644 24.5859 32.9256 25.2015 32.5684 25.6447L32.5504 25.6666L32.5324 25.6873L32.5132 25.708L32.4928 25.7287L32.4508 25.7691L27.6508 30.1327C27.4257 30.3376 27.1203 30.4527 26.8018 30.4527C26.4833 30.4527 26.1779 30.3376 25.9528 30.1327L25.9516 30.1349Z" fill="white"/>
</mask>
<g mask="url(#mask0_20_566)">
<rect x="13.6001" y="11.9091" width="28.8" height="26.1818" fill="white"/>
</g>
<defs>
<filter id="filter0_d_20_566" x="0" y="0" width="58" height="58" filterUnits="userSpaceOnUse" color-interpolation-filters="sRGB">
<feFlood flood-opacity="0" result="BackgroundImageFix"/>
<feColorMatrix in="SourceAlpha" type="matrix" values="0 0 0 0 0 0 0 0 0 0 0 0 0 0 0 0 0 0 127 0" result="hardAlpha"/>
<feOffset dy="4"/>
<feGaussianBlur stdDeviation="2"/>
<feComposite in2="hardAlpha" operator="out"/>
<feColorMatrix type="matrix" values="0 0 0 0 0 0 0 0 0 0 0 0 0 0 0 0 0 0 0.35 0"/>
<feBlend mode="normal" in2="BackgroundImageFix" result="none"/>
<feBlend mode="normal" in="SourceGraphic" in2="effect1_dropShadow_20_566" result="shape"/>
</filter>
</defs>
</svg>
