<svg width="80" height="80" viewBox="0 0 80 80" fill="none" xmlns="http://www.w3.org/2000/svg">
<path opacity="0.25" d="M80 40C80 62.0914 62.0914 80 40 80C17.9086 80 0 62.0914 0 40C0 17.9086 17.9086 0 40 0C50.6087 0 60.7828 4.21427 68.2843 11.7157C75.7857 19.2172 80 29.3913 80 40Z" fill="url(#paint0_linear_10_394)"/>
<path d="M49.5002 38.336C50.0565 38.7069 50.3906 39.3314 50.3906 40C50.3906 40.6686 50.0565 41.2931 49.5002 41.664L37.1062 49.927C36.4926 50.3343 35.7048 50.3714 35.0557 50.0236C34.4066 49.6758 34.001 48.9994 34.0002 48.263V31.737C34.0003 30.9996 34.4062 30.322 35.0564 29.974C35.7066 29.6261 36.4955 29.6641 37.1092 30.073L49.5002 38.336Z" fill="white"/>
<defs>
<linearGradient id="paint0_linear_10_394" x1="0" y1="0" x2="0" y2="80" gradientUnits="userSpaceOnUse">
<stop stop-color="#FD6F7E"/>
<stop offset="1" stop-color="#FC4B5D"/>
</linearGradient>
</defs>
</svg>
