<svg width="63" height="11" viewBox="0 0 63 11" fill="none" xmlns="http://www.w3.org/2000/svg">
<path d="M2.87109 10H0.90918V0.197266H2.87109V4.12109H6.78809V0.197266H8.75V10H6.78809V6.08301H2.87109V10ZM20.1797 5.13965C20.1797 5.60449 20.1182 6.05339 19.9951 6.48633C19.8766 6.91471 19.708 7.31803 19.4893 7.69629C19.2705 8.06999 19.0062 8.41178 18.6963 8.72168C18.3864 9.03158 18.0446 9.29818 17.6709 9.52148C17.2972 9.74023 16.8939 9.90885 16.4609 10.0273C16.028 10.1504 15.5791 10.2119 15.1143 10.2119C14.6494 10.2119 14.2005 10.1504 13.7676 10.0273C13.3392 9.90885 12.9359 9.74023 12.5576 9.52148C12.1839 9.29818 11.8421 9.03158 11.5322 8.72168C11.2223 8.41178 10.9557 8.06999 10.7324 7.69629C10.5137 7.31803 10.3428 6.91471 10.2197 6.48633C10.1012 6.05339 10.042 5.60449 10.042 5.13965C10.042 4.6748 10.1012 4.22591 10.2197 3.79297C10.3428 3.36003 10.5137 2.95671 10.7324 2.58301C10.9557 2.20931 11.2223 1.86751 11.5322 1.55762C11.8421 1.24772 12.1839 0.983398 12.5576 0.764648C12.9359 0.545898 13.3392 0.377279 13.7676 0.258789C14.2005 0.135742 14.6494 0.0742188 15.1143 0.0742188C15.5791 0.0742188 16.028 0.135742 16.4609 0.258789C16.8939 0.377279 17.2972 0.545898 17.6709 0.764648C18.0446 0.983398 18.3864 1.24772 18.6963 1.55762C19.0062 1.86751 19.2705 2.20931 19.4893 2.58301C19.708 2.95671 19.8766 3.36003 19.9951 3.79297C20.1182 4.22591 20.1797 4.6748 20.1797 5.13965ZM18.2314 5.13965C18.2314 4.71126 18.1494 4.30794 17.9854 3.92969C17.8213 3.54688 17.598 3.21647 17.3154 2.93848C17.0374 2.65592 16.707 2.43262 16.3242 2.26855C15.946 2.10449 15.5426 2.02246 15.1143 2.02246C14.6813 2.02246 14.2757 2.10449 13.8975 2.26855C13.5192 2.43262 13.1888 2.65592 12.9062 2.93848C12.6237 3.21647 12.4004 3.54688 12.2363 3.92969C12.0723 4.30794 11.9902 4.71126 11.9902 5.13965C11.9902 5.56803 12.0723 5.97135 12.2363 6.34961C12.4004 6.72331 12.6237 7.05143 12.9062 7.33398C13.1888 7.61654 13.5192 7.83984 13.8975 8.00391C14.2757 8.16797 14.6813 8.25 15.1143 8.25C15.5426 8.25 15.946 8.16797 16.3242 8.00391C16.707 7.83984 17.0374 7.61654 17.3154 7.33398C17.598 7.05143 17.8213 6.72331 17.9854 6.34961C18.1494 5.97135 18.2314 5.56803 18.2314 5.13965ZM28.335 10H21.4717V0.197266H23.4336V8.03809H28.335V10ZM38.623 5.13965C38.623 5.60449 38.5615 6.05339 38.4385 6.48633C38.32 6.91471 38.1514 7.31803 37.9326 7.69629C37.7139 8.06999 37.4495 8.41178 37.1396 8.72168C36.8298 9.03158 36.488 9.29818 36.1143 9.52148C35.7406 9.74023 35.3372 9.90885 34.9043 10.0273C34.4714 10.1504 34.0225 10.2119 33.5576 10.2119C33.0928 10.2119 32.6439 10.1504 32.2109 10.0273C31.7826 9.90885 31.3792 9.74023 31.001 9.52148C30.6273 9.29818 30.2855 9.03158 29.9756 8.72168C29.6657 8.41178 29.3991 8.06999 29.1758 7.69629C28.957 7.31803 28.7861 6.91471 28.6631 6.48633C28.5446 6.05339 28.4854 5.60449 28.4854 5.13965C28.4854 4.6748 28.5446 4.22591 28.6631 3.79297C28.7861 3.36003 28.957 2.95671 29.1758 2.58301C29.3991 2.20931 29.6657 1.86751 29.9756 1.55762C30.2855 1.24772 30.6273 0.983398 31.001 0.764648C31.3792 0.545898 31.7826 0.377279 32.2109 0.258789C32.6439 0.135742 33.0928 0.0742188 33.5576 0.0742188C34.0225 0.0742188 34.4714 0.135742 34.9043 0.258789C35.3372 0.377279 35.7406 0.545898 36.1143 0.764648C36.488 0.983398 36.8298 1.24772 37.1396 1.55762C37.4495 1.86751 37.7139 2.20931 37.9326 2.58301C38.1514 2.95671 38.32 3.36003 38.4385 3.79297C38.5615 4.22591 38.623 4.6748 38.623 5.13965ZM36.6748 5.13965C36.6748 4.71126 36.5928 4.30794 36.4287 3.92969C36.2646 3.54688 36.0413 3.21647 35.7588 2.93848C35.4808 2.65592 35.1504 2.43262 34.7676 2.26855C34.3893 2.10449 33.986 2.02246 33.5576 2.02246C33.1247 2.02246 32.7191 2.10449 32.3408 2.26855C31.9626 2.43262 31.6322 2.65592 31.3496 2.93848C31.0671 3.21647 30.8438 3.54688 30.6797 3.92969C30.5156 4.30794 30.4336 4.71126 30.4336 5.13965C30.4336 5.56803 30.5156 5.97135 30.6797 6.34961C30.8438 6.72331 31.0671 7.05143 31.3496 7.33398C31.6322 7.61654 31.9626 7.83984 32.3408 8.00391C32.7191 8.16797 33.1247 8.25 33.5576 8.25C33.986 8.25 34.3893 8.16797 34.7676 8.00391C35.1504 7.83984 35.4808 7.61654 35.7588 7.33398C36.0413 7.05143 36.2646 6.72331 36.4287 6.34961C36.5928 5.97135 36.6748 5.56803 36.6748 5.13965ZM53.5664 10H51.6113V3C51.6113 2.86328 51.584 2.73568 51.5293 2.61719C51.4792 2.4987 51.4085 2.39616 51.3174 2.30957C51.2308 2.21842 51.1283 2.14779 51.0098 2.09766C50.8913 2.04753 50.7637 2.02246 50.627 2.02246C50.4902 2.02246 50.3626 2.04753 50.2441 2.09766C50.1257 2.14779 50.0208 2.21842 49.9297 2.30957C49.8431 2.39616 49.7747 2.4987 49.7246 2.61719C49.6745 2.73568 49.6494 2.86328 49.6494 3V10H47.6875V3C47.6875 2.86328 47.6624 2.73568 47.6123 2.61719C47.5622 2.4987 47.4915 2.39616 47.4004 2.30957C47.3138 2.21842 47.2113 2.14779 47.0928 2.09766C46.9743 2.04753 46.8467 2.02246 46.71 2.02246C46.5732 2.02246 46.4456 2.04753 46.3271 2.09766C46.2087 2.14779 46.1038 2.21842 46.0127 2.30957C45.9261 2.39616 45.8577 2.4987 45.8076 2.61719C45.7575 2.73568 45.7324 2.86328 45.7324 3V10H43.7705V3C43.7705 2.5944 43.8457 2.21387 43.9961 1.8584C44.151 1.49837 44.3607 1.1862 44.625 0.921875C44.8939 0.652995 45.2061 0.443359 45.5615 0.292969C45.9215 0.138021 46.3044 0.0605469 46.71 0.0605469C47.0745 0.0605469 47.4255 0.126628 47.7627 0.258789C48.0999 0.386393 48.403 0.573242 48.6719 0.819336C48.9408 0.573242 49.2415 0.386393 49.5742 0.258789C49.9115 0.126628 50.2624 0.0605469 50.627 0.0605469C51.0326 0.0605469 51.4131 0.138021 51.7686 0.292969C52.1286 0.443359 52.4408 0.652995 52.7051 0.921875C52.974 1.1862 53.1836 1.49837 53.334 1.8584C53.4889 2.21387 53.5664 2.5944 53.5664 3V10ZM62.043 10H55.3232V0.197266H62.043V2.15918H57.2852V4.12109H60.5049V6.08301H57.2852V8.03809H62.043V10Z" fill="#333333"/>
</svg>
