<svg width="75" height="11" viewBox="0 0 75 11" fill="none" xmlns="http://www.w3.org/2000/svg">
<path d="M6.60254 6.08301V4.12109C6.60254 3.85221 6.55013 3.59928 6.44531 3.3623C6.34505 3.12077 6.20605 2.91113 6.02832 2.7334C5.85059 2.55566 5.64095 2.41667 5.39941 2.31641C5.16243 2.21159 4.90951 2.15918 4.64062 2.15918C4.37174 2.15918 4.11654 2.21159 3.875 2.31641C3.63802 2.41667 3.43066 2.55566 3.25293 2.7334C3.0752 2.91113 2.93392 3.12077 2.8291 3.3623C2.72884 3.59928 2.67871 3.85221 2.67871 4.12109V6.08301H6.60254ZM8.56445 10H6.60254V8.03809H2.67871V10H0.723633V4.12109C0.723633 3.57878 0.826172 3.07064 1.03125 2.59668C1.23633 2.11816 1.51432 1.70117 1.86523 1.3457C2.2207 0.990234 2.63542 0.709961 3.10938 0.504883C3.58789 0.299805 4.09831 0.197266 4.64062 0.197266C5.18294 0.197266 5.69108 0.299805 6.16504 0.504883C6.64355 0.709961 7.06055 0.990234 7.41602 1.3457C7.77148 1.70117 8.05176 2.11816 8.25684 2.59668C8.46191 3.07064 8.56445 3.57878 8.56445 4.12109V10ZM18.1211 5.09863C18.1211 5.5498 18.0618 5.98503 17.9434 6.4043C17.8294 6.81901 17.6654 7.20866 17.4512 7.57324C17.237 7.93327 16.9818 8.26367 16.6855 8.56445C16.3893 8.86068 16.0589 9.11589 15.6943 9.33008C15.3298 9.54427 14.9378 9.71061 14.5186 9.8291C14.1038 9.94303 13.6709 10 13.2197 10H10.2666V0.197266H13.2197C13.6709 0.197266 14.1038 0.25651 14.5186 0.375C14.9378 0.488932 15.3298 0.652995 15.6943 0.867188C16.0589 1.08138 16.3893 1.33887 16.6855 1.63965C16.9818 1.93587 17.237 2.26628 17.4512 2.63086C17.6654 2.99089 17.8294 3.38053 17.9434 3.7998C18.0618 4.21452 18.1211 4.64746 18.1211 5.09863ZM16.1592 5.09863C16.1592 4.69303 16.0817 4.3125 15.9268 3.95703C15.7764 3.60156 15.5667 3.29167 15.2979 3.02734C15.0335 2.75846 14.7214 2.54655 14.3613 2.3916C14.0059 2.23665 13.6253 2.15918 13.2197 2.15918H12.2422V8.03809H13.2197C13.6253 8.03809 14.0059 7.96289 14.3613 7.8125C14.7214 7.65755 15.0335 7.44792 15.2979 7.18359C15.5667 6.91471 15.7764 6.60254 15.9268 6.24707C16.0817 5.88704 16.1592 5.50423 16.1592 5.09863ZM27.2812 5.09863C27.2812 5.5498 27.222 5.98503 27.1035 6.4043C26.9896 6.81901 26.8255 7.20866 26.6113 7.57324C26.3971 7.93327 26.1419 8.26367 25.8457 8.56445C25.5495 8.86068 25.2191 9.11589 24.8545 9.33008C24.4899 9.54427 24.098 9.71061 23.6787 9.8291C23.264 9.94303 22.8311 10 22.3799 10H19.4268V0.197266H22.3799C22.8311 0.197266 23.264 0.25651 23.6787 0.375C24.098 0.488932 24.4899 0.652995 24.8545 0.867188C25.2191 1.08138 25.5495 1.33887 25.8457 1.63965C26.1419 1.93587 26.3971 2.26628 26.6113 2.63086C26.8255 2.99089 26.9896 3.38053 27.1035 3.7998C27.222 4.21452 27.2812 4.64746 27.2812 5.09863ZM25.3193 5.09863C25.3193 4.69303 25.2419 4.3125 25.0869 3.95703C24.9365 3.60156 24.7269 3.29167 24.458 3.02734C24.1937 2.75846 23.8815 2.54655 23.5215 2.3916C23.166 2.23665 22.7855 2.15918 22.3799 2.15918H21.4023V8.03809H22.3799C22.7855 8.03809 23.166 7.96289 23.5215 7.8125C23.8815 7.65755 24.1937 7.44792 24.458 7.18359C24.7269 6.91471 24.9365 6.60254 25.0869 6.24707C25.2419 5.88704 25.3193 5.50423 25.3193 5.09863ZM31.9365 3.13672C31.9365 2.73112 32.014 2.35059 32.1689 1.99512C32.3239 1.63965 32.5335 1.32975 32.7979 1.06543C33.0667 0.796549 33.3789 0.584635 33.7344 0.429688C34.0898 0.27474 34.4704 0.197266 34.876 0.197266H39.374V2.15918H34.876C34.7393 2.15918 34.6117 2.18424 34.4932 2.23438C34.3747 2.28451 34.2699 2.35514 34.1787 2.44629C34.0921 2.53288 34.0238 2.63542 33.9736 2.75391C33.9235 2.8724 33.8984 3 33.8984 3.13672C33.8984 3.27344 33.9235 3.40332 33.9736 3.52637C34.0238 3.64486 34.0921 3.74967 34.1787 3.84082C34.2699 3.92741 34.3747 3.99577 34.4932 4.0459C34.6117 4.09603 34.7393 4.12109 34.876 4.12109H36.8379C37.2435 4.12109 37.624 4.19857 37.9795 4.35352C38.3395 4.50391 38.6517 4.71354 38.916 4.98242C39.1849 5.24674 39.3945 5.55892 39.5449 5.91895C39.6999 6.27441 39.7773 6.65495 39.7773 7.06055C39.7773 7.46615 39.6999 7.84668 39.5449 8.20215C39.3945 8.55762 39.1849 8.86979 38.916 9.13867C38.6517 9.40299 38.3395 9.61263 37.9795 9.76758C37.624 9.92253 37.2435 10 36.8379 10H32.4834V8.03809H36.8379C36.9746 8.03809 37.1022 8.01302 37.2207 7.96289C37.3392 7.91276 37.4417 7.8444 37.5283 7.75781C37.6195 7.66667 37.6901 7.56185 37.7402 7.44336C37.7904 7.32487 37.8154 7.19727 37.8154 7.06055C37.8154 6.92383 37.7904 6.79622 37.7402 6.67773C37.6901 6.55924 37.6195 6.45671 37.5283 6.37012C37.4417 6.27897 37.3392 6.20833 37.2207 6.1582C37.1022 6.10807 36.9746 6.08301 36.8379 6.08301H34.876C34.4704 6.08301 34.0898 6.00553 33.7344 5.85059C33.3789 5.69564 33.0667 5.486 32.7979 5.22168C32.5335 4.9528 32.3239 4.64062 32.1689 4.28516C32.014 3.92513 31.9365 3.54232 31.9365 3.13672ZM48.8965 8.99512C48.4408 9.38704 47.9303 9.68783 47.3652 9.89746C46.8001 10.1071 46.2145 10.2119 45.6084 10.2119C45.1436 10.2119 44.6947 10.1504 44.2617 10.0273C43.8333 9.90885 43.43 9.74023 43.0518 9.52148C42.6781 9.29818 42.3363 9.03158 42.0264 8.72168C41.7165 8.41178 41.4499 8.06999 41.2266 7.69629C41.0078 7.31803 40.8369 6.91471 40.7139 6.48633C40.5954 6.05339 40.5361 5.60449 40.5361 5.13965C40.5361 4.6748 40.5954 4.22591 40.7139 3.79297C40.8369 3.36003 41.0078 2.95671 41.2266 2.58301C41.4499 2.20475 41.7165 1.86068 42.0264 1.55078C42.3363 1.24089 42.6781 0.976562 43.0518 0.757812C43.43 0.534505 43.8333 0.363607 44.2617 0.245117C44.6947 0.12207 45.1436 0.0605469 45.6084 0.0605469C46.2145 0.0605469 46.8001 0.165365 47.3652 0.375C47.9303 0.580078 48.4408 0.880859 48.8965 1.27734L47.8574 2.98633C47.5703 2.67643 47.2308 2.43945 46.8389 2.27539C46.4469 2.10677 46.0368 2.02246 45.6084 2.02246C45.1755 2.02246 44.7699 2.10449 44.3916 2.26855C44.0133 2.43262 43.6829 2.65592 43.4004 2.93848C43.1178 3.21647 42.8945 3.54688 42.7305 3.92969C42.5664 4.30794 42.4844 4.71126 42.4844 5.13965C42.4844 5.56803 42.5664 5.97135 42.7305 6.34961C42.8945 6.72331 43.1178 7.05143 43.4004 7.33398C43.6829 7.61654 44.0133 7.83984 44.3916 8.00391C44.7699 8.16797 45.1755 8.25 45.6084 8.25C46.0368 8.25 46.4469 8.16797 46.8389 8.00391C47.2308 7.83529 47.5703 7.59603 47.8574 7.28613L48.8965 8.99512ZM56.7578 10H50.0381V0.197266H56.7578V2.15918H52V4.12109H55.2197V6.08301H52V8.03809H56.7578V10ZM65.9727 10H63.874L60.0938 3.54688V10H58.1318V0.197266H60.2305L64.0107 6.65723V0.197266H65.9727V10ZM74.5176 10H67.7979V0.197266H74.5176V2.15918H69.7598V4.12109H72.9795V6.08301H69.7598V8.03809H74.5176V10Z" fill="#333333"/>
</svg>
