<svg width="18" height="15" viewBox="0 0 18 15" fill="none" xmlns="http://www.w3.org/2000/svg">
<path d="M6.29348 13.7091L0.293485 7.70912L0.257485 7.67212V7.67212L0.242485 7.65412L0.235485 7.64612L0.226485 7.63612L0.217485 7.62412L0.212485 7.61712L0.200485 7.60212V7.60212L0.186485 7.58312V7.58312L0.172485 7.56212V7.56212L0.158485 7.54212V7.54212L0.146485 7.52212V7.52212L0.134485 7.50212V7.49712L0.122485 7.48212V7.47412L0.112485 7.46212L0.106485 7.45112V7.44212L0.0944849 7.42612V7.42612L0.0834849 7.40212V7.40212C-0.0278283 7.14707 -0.0278283 6.85717 0.0834849 6.60212V6.60212L0.0914849 6.58512V6.57612L0.100485 6.56412L0.107485 6.55012V6.54412C0.154822 6.45185 0.216223 6.36751 0.289485 6.29412L6.28948 0.294117C6.68023 -0.0974526 7.31442 -0.0981241 7.70599 0.292617C8.09755 0.683359 8.09823 1.31755 7.70748 1.70912L3.41448 6.00212H17.0005C17.5528 6.00212 18.0005 6.44983 18.0005 7.00212C18.0005 7.5544 17.5528 8.00212 17.0005 8.00212H3.41448L7.70748 12.2951C7.96744 12.5462 8.0717 12.918 7.98018 13.2676C7.88867 13.6173 7.61562 13.8903 7.26599 13.9818C6.91636 14.0733 6.54456 13.9691 6.29348 13.7091V13.7091Z" fill="white"/>
<mask id="mask0_20_597" style="mask-type:alpha" maskUnits="userSpaceOnUse" x="0" y="0" width="18" height="15">
<path fill-rule="evenodd" clip-rule="evenodd" d="M6.29348 13.7091L0.293485 7.70912L0.257485 7.67212V7.67212L0.242485 7.65412L0.235485 7.64612L0.226485 7.63612L0.217485 7.62412L0.212485 7.61712L0.200485 7.60212V7.60212L0.186485 7.58312V7.58312L0.172485 7.56212V7.56212L0.158485 7.54212V7.54212L0.146485 7.52212V7.52212L0.134485 7.50212V7.49712L0.122485 7.48212V7.47412L0.112485 7.46212L0.106485 7.45112V7.44212L0.0944849 7.42612V7.42612L0.0834849 7.40212V7.40212C-0.0278283 7.14707 -0.0278283 6.85717 0.0834849 6.60212V6.60212L0.0914849 6.58512V6.57612L0.100485 6.56412L0.107485 6.55012V6.54412C0.154822 6.45185 0.216223 6.36751 0.289485 6.29412L6.28948 0.294117C6.68023 -0.0974526 7.31442 -0.0981241 7.70599 0.292617C8.09755 0.683359 8.09823 1.31755 7.70748 1.70912L3.41448 6.00212H17.0005C17.5528 6.00212 18.0005 6.44983 18.0005 7.00212C18.0005 7.5544 17.5528 8.00212 17.0005 8.00212H3.41448L7.70748 12.2951C7.96744 12.5462 8.0717 12.918 7.98018 13.2676C7.88867 13.6173 7.61562 13.8903 7.26599 13.9818C6.91636 14.0733 6.54456 13.9691 6.29348 13.7091V13.7091Z" fill="white"/>
</mask>
<g mask="url(#mask0_20_597)">
<rect x="-3" y="-4.99786" width="24" height="24" fill="white"/>
</g>
</svg>
