<svg width="24" height="24" viewBox="0 0 24 24" fill="none" xmlns="http://www.w3.org/2000/svg">
<path fill-rule="evenodd" clip-rule="evenodd" d="M6.34576 12.7636L11.1458 17.1273L11.141 17.1349C11.3664 17.3424 11.6739 17.4593 11.9948 17.4593C12.3156 17.4593 12.6231 17.3424 12.8486 17.1349L17.6486 12.7713C18.1033 12.3432 18.0968 11.6628 17.6339 11.242C17.1711 10.8212 16.4226 10.8153 15.9518 11.2287L13.2002 13.7302V1.09091C13.2002 0.488417 12.6629 0 12.0002 0C11.3374 0 10.8002 0.488417 10.8002 1.09091V13.7302L8.04256 11.2211C7.57171 10.8077 6.82326 10.8136 6.36038 11.2344C5.8975 11.6552 5.89099 12.3356 6.34576 12.7636ZM0 20.7273C0 22.5348 1.61177 24.0001 3.6 24.0001H20.4C22.3882 24.0001 24 22.5348 24 20.7273V17.4546C24 16.8521 23.4627 16.3637 22.8 16.3637C22.1373 16.3637 21.6 16.8521 21.6 17.4546V20.7273C21.6 21.3298 21.0627 21.8183 20.4 21.8183H3.6C2.93726 21.8183 2.4 21.3298 2.4 20.7273V17.4546C2.4 16.8521 1.86274 16.3637 1.2 16.3637C0.537258 16.3637 0 16.8521 0 17.4546V20.7273Z" fill="white" fill-opacity="0.5"/>
<mask id="mask0_14_1123" style="mask-type:alpha" maskUnits="userSpaceOnUse" x="0" y="0" width="24" height="25">
<path fill-rule="evenodd" clip-rule="evenodd" d="M3.6 24.0001C1.61177 24.0001 0 22.5348 0 20.7273V17.4546C0 16.8521 0.537258 16.3637 1.2 16.3637C1.86274 16.3637 2.4 16.8521 2.4 17.4546V20.7273C2.4 21.3298 2.93726 21.8183 3.6 21.8183H20.4C21.0627 21.8183 21.6 21.3298 21.6 20.7273V17.4546C21.6 16.8521 22.1373 16.3637 22.8 16.3637C23.4627 16.3637 24 16.8521 24 17.4546V20.7273C24 22.5348 22.3882 24.0001 20.4 24.0001H3.6ZM11.1458 17.1273L6.34576 12.7636C5.89099 12.3356 5.8975 11.6552 6.36038 11.2344C6.82326 10.8136 7.57171 10.8077 8.04256 11.2211L10.8002 13.7302V1.09091C10.8002 0.488417 11.3374 0 12.0002 0C12.6629 0 13.2002 0.488417 13.2002 1.09091V13.7302L15.9518 11.2287C16.4226 10.8153 17.1711 10.8212 17.6339 11.242C18.0968 11.6628 18.1033 12.3432 17.6486 12.7713L12.8486 17.1349C12.6231 17.3424 12.3156 17.4593 11.9948 17.4593C11.6739 17.4593 11.3664 17.3424 11.141 17.1349L11.1458 17.1273Z" fill="white"/>
</mask>
<g mask="url(#mask0_14_1123)">
<rect x="-2.40039" y="-1.09106" width="28.8" height="26.1818" fill="white" fill-opacity="0.5"/>
</g>
</svg>
