<svg width="28" height="31" viewBox="0 0 28 31" fill="none" xmlns="http://www.w3.org/2000/svg">
<path fill-rule="evenodd" clip-rule="evenodd" d="M27.596 14.5196C27.8391 14.6825 27.9868 14.9722 27.9854 15.2837C27.9909 15.5919 27.8503 15.8814 27.6135 16.0491L24.7664 17.9849L27.61 19.8952C27.8523 20.0572 28 20.3452 28 20.6555C28 20.9658 27.8523 21.2538 27.61 21.4158L14.4356 30.43C14.1695 30.6133 13.8307 30.6133 13.5647 30.43L0.390201 21.4158C0.14901 21.2535 0.00211368 20.9662 0.00211368 20.6568C0.00211368 20.3474 0.14901 20.0601 0.390201 19.8978L3.21746 17.9607L0.390201 16.0389C0.14847 15.8768 0.00116588 15.5891 0.00116588 15.2793C0.00116588 14.9694 0.14847 14.6818 0.390201 14.5196L3.21863 12.5927L0.389035 10.671C0.147304 10.5088 0 10.2212 0 9.9113C0 9.60143 0.147304 9.31379 0.389035 9.15163L13.5588 0.137506C13.8249 -0.0458354 14.1637 -0.0458354 14.4297 0.137506L27.5995 9.15418C27.8413 9.31634 27.9886 9.60398 27.9886 9.91385C27.9886 10.2237 27.8413 10.5114 27.5995 10.6735L24.7524 12.6093L27.596 14.5196ZM13.9952 1.95352L2.37255 9.90806L13.9952 17.8104L25.6179 9.90806L13.9952 1.95352ZM25.6121 20.6619L13.9941 28.6139L2.36911 20.6581L4.76732 19.0203L13.5616 24.9996C13.8265 25.1808 14.1629 25.1808 14.4278 24.9996L23.1976 19.0369L25.6121 20.6619ZM2.37427 15.2836L13.9958 23.1796L25.6103 15.2836L23.1992 13.665L14.4295 19.6277C14.1645 19.8089 13.8281 19.8089 13.5632 19.6277L4.76899 13.6484L2.37427 15.2836Z" fill="black"/>
</svg>
