<svg width="24" height="24" viewBox="0 0 24 24" fill="none" xmlns="http://www.w3.org/2000/svg">
<mask id="mask0_14_1156" style="mask-type:alpha" maskUnits="userSpaceOnUse" x="0" y="0" width="24" height="24">
<path fill-rule="evenodd" clip-rule="evenodd" d="M12.5689 23.9997C12.0414 24.0058 11.5796 23.6464 11.456 23.1334L9.34213 14.6617L0.866059 12.5417C0.397695 12.4249 0.0532927 12.0262 0.00561546 11.5458C-0.0420618 11.0653 0.217273 10.6067 0.653529 10.4001L22.3636 0.114655C22.888 -0.141421 23.521 0.0443681 23.8239 0.543214C24.0344 0.87187 24.0578 1.28665 23.8856 1.6369L13.6019 23.3506C13.4167 23.7526 13.0115 24.0072 12.5689 23.9997ZM20.4533 3.54998L4.51807 11.0983L10.5615 12.6103C10.9704 12.7128 11.2897 13.0321 11.3922 13.4411L12.9027 19.4855L20.4533 3.54998Z" fill="white"/>
</mask>
<g mask="url(#mask0_14_1156)">
<rect x="-1.14258" y="-1.14246" width="27.4233" height="27.4278" fill="white"/>
</g>
</svg>
