<svg width="168" height="58" viewBox="0 0 168 58" fill="none" xmlns="http://www.w3.org/2000/svg">
<g filter="url(#filter0_d_16_592)">
<g filter="url(#filter1_d_16_592)">
<rect x="4" width="160" height="50" rx="25" fill="url(#paint0_linear_16_592)"/>
<path fill-rule="evenodd" clip-rule="evenodd" d="M107.288 22.7L111.288 26.7L111.284 26.707C111.472 26.8972 111.728 27.0043 111.996 27.0043C112.263 27.0043 112.519 26.8972 112.707 26.707L116.707 22.707C117.086 22.3146 117.081 21.6909 116.695 21.3052C116.309 20.9194 115.685 20.914 115.293 21.293L113 23.586V12C113 11.4477 112.552 11 112 11C111.448 11 111 11.4477 111 12V23.586L108.702 21.286C108.31 20.907 107.686 20.9124 107.3 21.2982C106.914 21.6839 106.909 22.3076 107.288 22.7ZM102 30C102 31.6569 103.343 33 105 33H119C120.657 33 122 31.6569 122 30V27C122 26.4477 121.552 26 121 26C120.448 26 120 26.4477 120 27V30C120 30.5523 119.552 31 119 31H105C104.448 31 104 30.5523 104 30V27C104 26.4477 103.552 26 103 26C102.448 26 102 26.4477 102 27V30Z" fill="white"/>
<mask id="mask0_16_592" style="mask-type:alpha" maskUnits="userSpaceOnUse" x="102" y="11" width="20" height="22">
<path fill-rule="evenodd" clip-rule="evenodd" d="M105 33C103.343 33 102 31.6569 102 30V27C102 26.4477 102.448 26 103 26C103.552 26 104 26.4477 104 27V30C104 30.5523 104.448 31 105 31H119C119.552 31 120 30.5523 120 30V27C120 26.4477 120.448 26 121 26C121.552 26 122 26.4477 122 27V30C122 31.6569 120.657 33 119 33H105ZM111.288 26.7L107.288 22.7C106.909 22.3076 106.914 21.6839 107.3 21.2982C107.686 20.9124 108.31 20.907 108.702 21.286L111 23.586V12C111 11.4477 111.448 11 112 11C112.552 11 113 11.4477 113 12V23.586L115.293 21.293C115.685 20.914 116.309 20.9194 116.695 21.3052C117.081 21.6909 117.086 22.3146 116.707 22.707L112.707 26.707C112.519 26.8972 112.263 27.0043 111.996 27.0043C111.728 27.0043 111.472 26.8972 111.284 26.707L111.288 26.7Z" fill="white"/>
</mask>
<g mask="url(#mask0_16_592)">
<rect x="100" y="10" width="24" height="24" fill="white"/>
</g>
</g>
<g clip-path="url(#clip0_16_592)">
<path d="M56.3594 22.1562C56.3594 21.6927 56.4479 21.2578 56.625 20.8516C56.8021 20.4453 57.0417 20.0911 57.3438 19.7891C57.651 19.4818 58.0078 19.2396 58.4141 19.0625C58.8203 18.8854 59.2552 18.7969 59.7188 18.7969H64.8594V21.0391H59.7188C59.5625 21.0391 59.4167 21.0677 59.2812 21.125C59.1458 21.1823 59.026 21.263 58.9219 21.3672C58.8229 21.4661 58.7448 21.5833 58.6875 21.7188C58.6302 21.8542 58.6016 22 58.6016 22.1562C58.6016 22.3125 58.6302 22.4609 58.6875 22.6016C58.7448 22.737 58.8229 22.8568 58.9219 22.9609C59.026 23.0599 59.1458 23.138 59.2812 23.1953C59.4167 23.2526 59.5625 23.2812 59.7188 23.2812H61.9609C62.4245 23.2812 62.8594 23.3698 63.2656 23.5469C63.6771 23.7188 64.0339 23.9583 64.3359 24.2656C64.6432 24.5677 64.8828 24.9245 65.0547 25.3359C65.2318 25.7422 65.3203 26.1771 65.3203 26.6406C65.3203 27.1042 65.2318 27.5391 65.0547 27.9453C64.8828 28.3516 64.6432 28.7083 64.3359 29.0156C64.0339 29.3177 63.6771 29.5573 63.2656 29.7344C62.8594 29.9115 62.4245 30 61.9609 30H56.9844V27.7578H61.9609C62.1172 27.7578 62.263 27.7292 62.3984 27.6719C62.5339 27.6146 62.651 27.5365 62.75 27.4375C62.8542 27.3333 62.9349 27.2135 62.9922 27.0781C63.0495 26.9427 63.0781 26.7969 63.0781 26.6406C63.0781 26.4844 63.0495 26.3385 62.9922 26.2031C62.9349 26.0677 62.8542 25.9505 62.75 25.8516C62.651 25.7474 62.5339 25.6667 62.3984 25.6094C62.263 25.5521 62.1172 25.5234 61.9609 25.5234H59.7188C59.2552 25.5234 58.8203 25.4349 58.4141 25.2578C58.0078 25.0807 57.651 24.8411 57.3438 24.5391C57.0417 24.2318 56.8021 23.875 56.625 23.4688C56.4479 23.0573 56.3594 22.6198 56.3594 22.1562ZM73.3906 25.5234V23.2812C73.3906 22.974 73.3307 22.6849 73.2109 22.4141C73.0964 22.138 72.9375 21.8984 72.7344 21.6953C72.5312 21.4922 72.2917 21.3333 72.0156 21.2188C71.7448 21.099 71.4557 21.0391 71.1484 21.0391C70.8411 21.0391 70.5495 21.099 70.2734 21.2188C70.0026 21.3333 69.7656 21.4922 69.5625 21.6953C69.3594 21.8984 69.1979 22.138 69.0781 22.4141C68.9635 22.6849 68.9062 22.974 68.9062 23.2812V25.5234H73.3906ZM75.6328 30H73.3906V27.7578H68.9062V30H66.6719V23.2812C66.6719 22.6615 66.7891 22.0807 67.0234 21.5391C67.2578 20.9922 67.5755 20.5156 67.9766 20.1094C68.3828 19.7031 68.8568 19.3828 69.3984 19.1484C69.9453 18.9141 70.5286 18.7969 71.1484 18.7969C71.7682 18.7969 72.349 18.9141 72.8906 19.1484C73.4375 19.3828 73.9141 19.7031 74.3203 20.1094C74.7266 20.5156 75.0469 20.9922 75.2812 21.5391C75.5156 22.0807 75.6328 22.6615 75.6328 23.2812V30ZM85.8906 18.7969L82.2109 30H79.9688L76.3047 18.7969H78.8516L81.0859 26.2734L83.3281 18.7969H85.8906ZM94.6484 30H86.9688V18.7969H94.6484V21.0391H89.2109V23.2812H92.8906V25.5234H89.2109V27.7578H94.6484V30Z" fill="white"/>
</g>
</g>
<defs>
<filter id="filter0_d_16_592" x="0" y="0" width="168" height="58" filterUnits="userSpaceOnUse" color-interpolation-filters="sRGB">
<feFlood flood-opacity="0" result="BackgroundImageFix"/>
<feColorMatrix in="SourceAlpha" type="matrix" values="0 0 0 0 0 0 0 0 0 0 0 0 0 0 0 0 0 0 127 0" result="hardAlpha"/>
<feOffset dy="4"/>
<feGaussianBlur stdDeviation="2"/>
<feComposite in2="hardAlpha" operator="out"/>
<feColorMatrix type="matrix" values="0 0 0 0 0 0 0 0 0 0 0 0 0 0 0 0 0 0 0.25 0"/>
<feBlend mode="normal" in2="BackgroundImageFix" result="effect1_dropShadow_16_592"/>
<feBlend mode="normal" in="SourceGraphic" in2="effect1_dropShadow_16_592" result="shape"/>
</filter>
<filter id="filter1_d_16_592" x="0" y="0" width="168" height="58" filterUnits="userSpaceOnUse" color-interpolation-filters="sRGB">
<feFlood flood-opacity="0" result="BackgroundImageFix"/>
<feColorMatrix in="SourceAlpha" type="matrix" values="0 0 0 0 0 0 0 0 0 0 0 0 0 0 0 0 0 0 127 0" result="hardAlpha"/>
<feOffset dy="4"/>
<feGaussianBlur stdDeviation="2"/>
<feComposite in2="hardAlpha" operator="out"/>
<feColorMatrix type="matrix" values="0 0 0 0 0 0 0 0 0 0 0 0 0 0 0 0 0 0 0.4 0"/>
<feBlend mode="normal" in2="BackgroundImageFix" result="effect1_dropShadow_16_592"/>
<feBlend mode="normal" in="SourceGraphic" in2="effect1_dropShadow_16_592" result="shape"/>
</filter>
<linearGradient id="paint0_linear_16_592" x1="4" y1="0" x2="4" y2="50" gradientUnits="userSpaceOnUse">
<stop stop-color="#FD6F7E"/>
<stop offset="1" stop-color="#FC4B5D"/>
</linearGradient>
<clipPath id="clip0_16_592">
<rect width="50" height="19" fill="white" transform="translate(55.9766 14)"/>
</clipPath>
</defs>
</svg>
