<svg width="228" height="58" viewBox="0 0 228 58" fill="none" xmlns="http://www.w3.org/2000/svg">
<g filter="url(#filter0_d_16_587)">
<g filter="url(#filter1_d_16_587)">
<rect x="64" width="160" height="50" rx="24" fill="url(#paint0_linear_16_587)"/>
<path fill-rule="evenodd" clip-rule="evenodd" d="M195.437 27.1078C195.362 27.3623 195.391 27.6362 195.518 27.8692V27.8682C195.783 28.3529 196.39 28.532 196.874 28.2682C199.282 26.9557 200.493 24.178 199.817 21.5207C199.141 18.8633 196.749 17.0024 194.007 17.0002H193.485C192.275 13.5772 189.127 11.2165 185.502 11.0141C181.877 10.8117 178.485 12.8071 176.902 16.0741C175.318 19.3411 175.852 23.2397 178.256 25.9602C178.493 26.2281 178.854 26.3495 179.205 26.2787C179.555 26.2078 179.841 25.9555 179.955 25.6167C180.069 25.2779 179.993 24.9041 179.756 24.6362C177.837 22.4649 177.453 19.3352 178.793 16.7649C180.132 14.1946 182.917 12.7154 185.796 13.0447C188.675 13.3741 191.054 15.4439 191.778 18.2502C191.892 18.6916 192.291 19.0001 192.746 19.0002H194.006C195.835 19.0014 197.429 20.2419 197.88 22.0135C198.331 23.7852 197.524 25.6371 195.918 26.5122C195.685 26.639 195.512 26.8533 195.437 27.1078ZM187.006 23.4122V30.0002H187.009C187.009 30.5525 187.457 31.0002 188.009 31.0002C188.562 31.0002 189.009 30.5525 189.009 30.0002V23.4132L191.301 25.7052C191.549 25.9789 191.927 26.0941 192.285 26.0048C192.643 25.9155 192.923 25.6363 193.013 25.2785C193.103 24.9206 192.989 24.5422 192.715 24.2942L188.715 20.2942L188.699 20.2782C188.34 19.9355 187.783 19.9087 187.392 20.2152L187.376 20.2282L187.369 20.2342L187.358 20.2432L187.343 20.2562L187.301 20.2962L183.301 24.2902C182.922 24.6823 182.927 25.306 183.313 25.692C183.698 26.078 184.322 26.0839 184.714 25.7052L187.006 23.4122Z" fill="white"/>
<mask id="mask0_16_587" style="mask-type:alpha" maskUnits="userSpaceOnUse" x="176" y="11" width="25" height="21">
<path fill-rule="evenodd" clip-rule="evenodd" d="M187.006 30.0002V23.4122L184.714 25.7052C184.322 26.0839 183.698 26.078 183.313 25.692C182.927 25.306 182.922 24.6823 183.301 24.2902L187.301 20.2962L187.343 20.2562V20.2562L187.358 20.2432L187.369 20.2342L187.376 20.2282L187.392 20.2152V20.2152C187.783 19.9087 188.34 19.9355 188.699 20.2782V20.2782L188.715 20.2942L192.715 24.2942C192.989 24.5422 193.103 24.9206 193.013 25.2785C192.923 25.6363 192.643 25.9155 192.285 26.0048C191.927 26.0941 191.549 25.9789 191.301 25.7052L189.009 23.4132V30.0002C189.009 30.5525 188.562 31.0002 188.009 31.0002C187.457 31.0002 187.009 30.5525 187.009 30.0002H187.006ZM195.518 27.8692C195.391 27.6362 195.362 27.3623 195.437 27.1078C195.512 26.8533 195.685 26.639 195.918 26.5122C197.524 25.6371 198.331 23.7852 197.88 22.0135C197.429 20.2419 195.835 19.0014 194.006 19.0002H192.746C192.291 19.0001 191.892 18.6916 191.778 18.2502C191.054 15.4439 188.675 13.3741 185.796 13.0447C182.917 12.7154 180.132 14.1946 178.793 16.7649C177.453 19.3352 177.837 22.4649 179.756 24.6362C179.993 24.9041 180.069 25.2779 179.955 25.6167C179.841 25.9555 179.555 26.2078 179.205 26.2787C178.854 26.3495 178.493 26.2281 178.256 25.9602C175.852 23.2397 175.318 19.3411 176.902 16.0741C178.485 12.8071 181.877 10.8117 185.502 11.0141C189.127 11.2165 192.275 13.5772 193.485 17.0002H194.007C196.749 17.0024 199.141 18.8633 199.817 21.5207C200.493 24.178 199.282 26.9557 196.874 28.2682C196.39 28.532 195.783 28.3529 195.518 27.8682V27.8692Z" fill="white"/>
</mask>
<g mask="url(#mask0_16_587)">
<rect x="176.001" y="9.00012" width="24" height="24" fill="white"/>
</g>
</g>
<path d="M116.875 25.5234C116.875 26.1432 116.758 26.7266 116.523 27.2734C116.289 27.8151 115.969 28.2891 115.562 28.6953C115.156 29.0964 114.68 29.4141 114.133 29.6484C113.591 29.8828 113.01 30 112.391 30C111.771 30 111.188 29.8828 110.641 29.6484C110.099 29.4141 109.625 29.0964 109.219 28.6953C108.818 28.2891 108.5 27.8151 108.266 27.2734C108.031 26.7266 107.914 26.1432 107.914 25.5234V18.7969H110.148V25.5234C110.148 25.8307 110.206 26.1198 110.32 26.3906C110.44 26.6615 110.602 26.8984 110.805 27.1016C111.008 27.3047 111.245 27.4661 111.516 27.5859C111.792 27.7005 112.083 27.7578 112.391 27.7578C112.698 27.7578 112.987 27.7005 113.258 27.5859C113.534 27.4661 113.773 27.3047 113.977 27.1016C114.18 26.8984 114.339 26.6615 114.453 26.3906C114.573 26.1198 114.633 25.8307 114.633 25.5234V18.7969H116.875V25.5234ZM121.062 21.0391V25.5234H123.305C123.612 25.5234 123.901 25.4661 124.172 25.3516C124.443 25.2318 124.68 25.0703 124.883 24.8672C125.086 24.6641 125.245 24.4271 125.359 24.1562C125.479 23.8802 125.539 23.5885 125.539 23.2812C125.539 22.974 125.479 22.6849 125.359 22.4141C125.245 22.138 125.086 21.8984 124.883 21.6953C124.68 21.4922 124.443 21.3333 124.172 21.2188C123.901 21.099 123.612 21.0391 123.305 21.0391H121.062ZM121.062 30H118.82V18.7969H123.305C123.716 18.7969 124.112 18.8516 124.492 18.9609C124.872 19.0651 125.227 19.2161 125.555 19.4141C125.888 19.6068 126.19 19.8411 126.461 20.1172C126.737 20.388 126.971 20.6901 127.164 21.0234C127.362 21.3568 127.513 21.7135 127.617 22.0938C127.727 22.474 127.781 22.8698 127.781 23.2812C127.781 23.8958 127.664 24.4766 127.43 25.0234C127.195 25.5651 126.875 26.0391 126.469 26.4453C126.062 26.8516 125.586 27.1719 125.039 27.4062C124.497 27.6406 123.919 27.7578 123.305 27.7578H121.062V30ZM136.945 30H129.102V18.7969H131.344V27.7578H136.945V30ZM148.703 24.4453C148.703 24.9766 148.633 25.4896 148.492 25.9844C148.357 26.474 148.164 26.9349 147.914 27.3672C147.664 27.7943 147.362 28.1849 147.008 28.5391C146.654 28.8932 146.263 29.1979 145.836 29.4531C145.409 29.7031 144.948 29.8958 144.453 30.0312C143.958 30.1719 143.445 30.2422 142.914 30.2422C142.383 30.2422 141.87 30.1719 141.375 30.0312C140.885 29.8958 140.424 29.7031 139.992 29.4531C139.565 29.1979 139.174 28.8932 138.82 28.5391C138.466 28.1849 138.161 27.7943 137.906 27.3672C137.656 26.9349 137.461 26.474 137.32 25.9844C137.185 25.4896 137.117 24.9766 137.117 24.4453C137.117 23.9141 137.185 23.401 137.32 22.9062C137.461 22.4115 137.656 21.9505 137.906 21.5234C138.161 21.0964 138.466 20.7057 138.82 20.3516C139.174 19.9974 139.565 19.6953 139.992 19.4453C140.424 19.1953 140.885 19.0026 141.375 18.8672C141.87 18.7266 142.383 18.6562 142.914 18.6562C143.445 18.6562 143.958 18.7266 144.453 18.8672C144.948 19.0026 145.409 19.1953 145.836 19.4453C146.263 19.6953 146.654 19.9974 147.008 20.3516C147.362 20.7057 147.664 21.0964 147.914 21.5234C148.164 21.9505 148.357 22.4115 148.492 22.9062C148.633 23.401 148.703 23.9141 148.703 24.4453ZM146.477 24.4453C146.477 23.9557 146.383 23.4948 146.195 23.0625C146.008 22.625 145.753 22.2474 145.43 21.9297C145.112 21.6068 144.734 21.3516 144.297 21.1641C143.865 20.9766 143.404 20.8828 142.914 20.8828C142.419 20.8828 141.956 20.9766 141.523 21.1641C141.091 21.3516 140.714 21.6068 140.391 21.9297C140.068 22.2474 139.812 22.625 139.625 23.0625C139.438 23.4948 139.344 23.9557 139.344 24.4453C139.344 24.9349 139.438 25.3958 139.625 25.8281C139.812 26.2552 140.068 26.6302 140.391 26.9531C140.714 27.276 141.091 27.5312 141.523 27.7188C141.956 27.9062 142.419 28 142.914 28C143.404 28 143.865 27.9062 144.297 27.7188C144.734 27.5312 145.112 27.276 145.43 26.9531C145.753 26.6302 146.008 26.2552 146.195 25.8281C146.383 25.3958 146.477 24.9349 146.477 24.4453ZM156.773 25.5234V23.2812C156.773 22.974 156.714 22.6849 156.594 22.4141C156.479 22.138 156.32 21.8984 156.117 21.6953C155.914 21.4922 155.674 21.3333 155.398 21.2188C155.128 21.099 154.839 21.0391 154.531 21.0391C154.224 21.0391 153.932 21.099 153.656 21.2188C153.385 21.3333 153.148 21.4922 152.945 21.6953C152.742 21.8984 152.581 22.138 152.461 22.4141C152.346 22.6849 152.289 22.974 152.289 23.2812V25.5234H156.773ZM159.016 30H156.773V27.7578H152.289V30H150.055V23.2812C150.055 22.6615 150.172 22.0807 150.406 21.5391C150.641 20.9922 150.958 20.5156 151.359 20.1094C151.766 19.7031 152.24 19.3828 152.781 19.1484C153.328 18.9141 153.911 18.7969 154.531 18.7969C155.151 18.7969 155.732 18.9141 156.273 19.1484C156.82 19.3828 157.297 19.7031 157.703 20.1094C158.109 20.5156 158.43 20.9922 158.664 21.5391C158.898 22.0807 159.016 22.6615 159.016 23.2812V30ZM169.938 24.3984C169.938 24.9141 169.87 25.4115 169.734 25.8906C169.604 26.3646 169.417 26.8099 169.172 27.2266C168.927 27.638 168.635 28.0156 168.297 28.3594C167.958 28.6979 167.581 28.9896 167.164 29.2344C166.747 29.4792 166.299 29.6693 165.82 29.8047C165.346 29.9349 164.852 30 164.336 30H160.961V18.7969H164.336C164.852 18.7969 165.346 18.8646 165.82 19C166.299 19.1302 166.747 19.3177 167.164 19.5625C167.581 19.8073 167.958 20.1016 168.297 20.4453C168.635 20.7839 168.927 21.1615 169.172 21.5781C169.417 21.9896 169.604 22.4349 169.734 22.9141C169.87 23.388 169.938 23.8828 169.938 24.3984ZM167.695 24.3984C167.695 23.9349 167.607 23.5 167.43 23.0938C167.258 22.6875 167.018 22.3333 166.711 22.0312C166.409 21.724 166.052 21.4818 165.641 21.3047C165.234 21.1276 164.799 21.0391 164.336 21.0391H163.219V27.7578H164.336C164.799 27.7578 165.234 27.6719 165.641 27.5C166.052 27.3229 166.409 27.0833 166.711 26.7812C167.018 26.474 167.258 26.1172 167.43 25.7109C167.607 25.2995 167.695 24.862 167.695 24.3984Z" fill="white"/>
</g>
<defs>
<filter id="filter0_d_16_587" x="0" y="0" width="228" height="58" filterUnits="userSpaceOnUse" color-interpolation-filters="sRGB">
<feFlood flood-opacity="0" result="BackgroundImageFix"/>
<feColorMatrix in="SourceAlpha" type="matrix" values="0 0 0 0 0 0 0 0 0 0 0 0 0 0 0 0 0 0 127 0" result="hardAlpha"/>
<feOffset dy="4"/>
<feGaussianBlur stdDeviation="2"/>
<feComposite in2="hardAlpha" operator="out"/>
<feColorMatrix type="matrix" values="0 0 0 0 0 0 0 0 0 0 0 0 0 0 0 0 0 0 0.5 0"/>
<feBlend mode="normal" in2="BackgroundImageFix" result="effect1_dropShadow_16_587"/>
<feBlend mode="normal" in="SourceGraphic" in2="effect1_dropShadow_16_587" result="shape"/>
</filter>
<filter id="filter1_d_16_587" x="60" y="0" width="168" height="58" filterUnits="userSpaceOnUse" color-interpolation-filters="sRGB">
<feFlood flood-opacity="0" result="BackgroundImageFix"/>
<feColorMatrix in="SourceAlpha" type="matrix" values="0 0 0 0 0 0 0 0 0 0 0 0 0 0 0 0 0 0 127 0" result="hardAlpha"/>
<feOffset dy="4"/>
<feGaussianBlur stdDeviation="2"/>
<feComposite in2="hardAlpha" operator="out"/>
<feColorMatrix type="matrix" values="0 0 0 0 0 0 0 0 0 0 0 0 0 0 0 0 0 0 0.5 0"/>
<feBlend mode="normal" in2="BackgroundImageFix" result="effect1_dropShadow_16_587"/>
<feBlend mode="normal" in="SourceGraphic" in2="effect1_dropShadow_16_587" result="shape"/>
</filter>
<linearGradient id="paint0_linear_16_587" x1="64" y1="0" x2="64" y2="50" gradientUnits="userSpaceOnUse">
<stop stop-color="#6C4DDA" stop-opacity="0.6"/>
<stop offset="1" stop-color="#522ED2"/>
</linearGradient>
</defs>
</svg>
