<svg width="58" height="58" viewBox="0 0 58 58" fill="none" xmlns="http://www.w3.org/2000/svg">
<g filter="url(#filter0_d_20_552)">
<path d="M4 20C4 8.9543 12.9543 0 24 0H34C45.0457 0 54 8.95431 54 20V30C54 41.0457 45.0457 50 34 50H24C12.9543 50 4 41.0457 4 30V20Z" fill="url(#paint0_linear_20_552)"/>
</g>
<path fill-rule="evenodd" clip-rule="evenodd" d="M29.0001 13.803C28.5012 13.8137 28.0158 13.9679 27.6021 14.247C27.2031 14.513 26.8194 14.8014 26.4531 15.111L26.4081 15.147L20.7731 19.703L20.6071 19.832C19.7575 20.4006 19.0461 21.1523 18.5251 22.032C18.1696 22.9896 18.0329 24.0147 18.1251 25.032V25.241V30.551C18.1251 31.442 18.1251 32.186 18.1771 32.789C18.2108 33.409 18.3816 34.0139 18.6771 34.56C19.0392 35.1871 19.56 35.7079 20.1871 36.07C20.7332 36.3655 21.3381 36.5363 21.9581 36.57C22.5641 36.625 23.3081 36.625 24.1991 36.625H24.5331C24.8551 36.625 25.1501 36.625 25.3981 36.608C25.6919 36.5946 25.9815 36.5327 26.2551 36.425C26.8951 36.1566 27.4028 35.6457 27.6671 35.004C27.7749 34.7303 27.8367 34.4408 27.8501 34.147C27.8671 33.899 27.8671 33.603 27.8671 33.282V33.282V33.249C27.8671 32.884 27.8681 32.667 27.8791 32.505C27.8813 32.4532 27.8876 32.4017 27.8981 32.351C27.9361 32.2608 28.0079 32.189 28.0981 32.151C28.1489 32.1405 28.2004 32.1341 28.2521 32.132C28.4141 32.12 28.6311 32.12 28.9961 32.12C29.3611 32.12 29.5781 32.121 29.7401 32.132C29.7919 32.1341 29.8434 32.1405 29.8941 32.151C29.9843 32.189 30.0561 32.2608 30.0941 32.351C30.1046 32.4017 30.1109 32.4532 30.1131 32.505C30.1251 32.667 30.1251 32.884 30.1251 33.249V33.282C30.1251 33.603 30.1251 33.903 30.1421 34.146C30.1555 34.4398 30.2174 34.7293 30.3251 35.003C30.5883 35.6466 31.0962 36.1594 31.7371 36.429C32.0108 36.5367 32.3003 36.5986 32.5941 36.612C32.8421 36.629 33.1381 36.629 33.4591 36.629H33.7931C34.6851 36.629 35.4291 36.629 36.0341 36.574C36.6542 36.5403 37.259 36.3695 37.8051 36.074C38.4323 35.7119 38.9531 35.1911 39.3151 34.564C39.6106 34.0179 39.7814 33.413 39.8151 32.793C39.8701 32.187 39.8701 31.443 39.8701 30.552V25.243V25.034C39.9623 24.0167 39.8257 22.9916 39.4701 22.034C38.9491 21.1543 38.2377 20.4026 37.3881 19.834L37.2251 19.703L31.5931 15.146L31.5481 15.11C31.1821 14.8008 30.7988 14.5127 30.4001 14.247C29.9858 13.9675 29.4998 13.8134 29.0001 13.803ZM27.8231 16.898C28.1335 16.6338 28.4576 16.3861 28.7941 16.156C28.853 16.116 28.916 16.0824 28.9821 16.056L29.0021 16.05L29.0221 16.056C29.0872 16.0826 29.1492 16.1162 29.2071 16.156C29.5436 16.3861 29.8677 16.6338 30.1781 16.898L35.8131 21.452C36.9931 22.403 37.2851 22.674 37.4421 23.003C37.6539 23.7289 37.7192 24.4896 37.6341 25.241V30.503C37.6341 31.458 37.6331 32.099 37.5881 32.591C37.5821 32.8856 37.5118 33.1754 37.3821 33.44C37.2176 33.7249 36.981 33.9615 36.6961 34.126C36.4315 34.2557 36.1417 34.326 35.8471 34.332C35.3591 34.378 34.7141 34.378 33.7591 34.378H33.5091C33.1441 34.378 32.9271 34.377 32.7651 34.366C32.7134 34.3638 32.6619 34.3575 32.6111 34.347C32.5209 34.309 32.4491 34.2372 32.4111 34.147C32.4006 34.0962 32.3943 34.0447 32.3921 33.993C32.3801 33.831 32.3801 33.614 32.3801 33.249V33.216C32.3801 32.894 32.3801 32.599 32.3631 32.351C32.3497 32.0572 32.2879 31.7676 32.1801 31.494C31.9137 30.8506 31.4025 30.3394 30.7591 30.073C30.4855 29.9652 30.1959 29.9034 29.9021 29.89C29.6541 29.873 29.3581 29.873 29.0371 29.873H28.9721C28.6501 29.873 28.3551 29.873 28.1071 29.89C27.8133 29.9034 27.5238 29.9652 27.2501 30.073C26.6067 30.3394 26.0955 30.8506 25.8291 31.494C25.7214 31.7676 25.6595 32.0572 25.6461 32.351C25.6291 32.599 25.6291 32.895 25.6291 33.216V33.216V33.249C25.6291 33.614 25.6281 33.831 25.6171 33.993C25.6149 34.0447 25.6086 34.0962 25.5981 34.147C25.5601 34.2372 25.4883 34.309 25.3981 34.347C25.3474 34.3575 25.2959 34.3638 25.2441 34.366C25.0821 34.378 24.8652 34.378 24.5003 34.378H24.5001H24.2501C23.2951 34.378 22.6541 34.377 22.1621 34.332C21.8675 34.326 21.5777 34.2557 21.3131 34.126C21.0282 33.9615 20.7916 33.7249 20.6271 33.44C20.4974 33.1754 20.4271 32.8856 20.4211 32.591C20.3751 32.103 20.3751 31.458 20.3751 30.503V25.245C20.2866 24.4929 20.3488 23.7307 20.5581 23.003C20.7161 22.67 21.0081 22.403 22.1871 21.449L27.8231 16.898Z" fill="#333333"/>
<defs>
<filter id="filter0_d_20_552" x="0" y="0" width="58" height="58" filterUnits="userSpaceOnUse" color-interpolation-filters="sRGB">
<feFlood flood-opacity="0" result="BackgroundImageFix"/>
<feColorMatrix in="SourceAlpha" type="matrix" values="0 0 0 0 0 0 0 0 0 0 0 0 0 0 0 0 0 0 127 0" result="hardAlpha"/>
<feOffset dy="4"/>
<feGaussianBlur stdDeviation="2"/>
<feComposite in2="hardAlpha" operator="out"/>
<feColorMatrix type="matrix" values="0 0 0 0 0 0 0 0 0 0 0 0 0 0 0 0 0 0 0.25 0"/>
<feBlend mode="normal" in2="BackgroundImageFix" result="effect1_dropShadow_20_552"/>
<feBlend mode="normal" in="SourceGraphic" in2="effect1_dropShadow_20_552" result="shape"/>
</filter>
<linearGradient id="paint0_linear_20_552" x1="4" y1="0" x2="4" y2="50" gradientUnits="userSpaceOnUse">
<stop stop-color="white"/>
<stop offset="1" stop-color="#FEFEFE"/>
</linearGradient>
</defs>
</svg>
