<svg width="30" height="26" viewBox="0 0 30 26" fill="none" xmlns="http://www.w3.org/2000/svg">
<g filter="url(#filter0_d_16_29)">
<path fill-rule="evenodd" clip-rule="evenodd" d="M7 18C5.34315 18 4 16.6569 4 15V3.01V2.98C4.01099 1.33096 5.35092 -3.66458e-05 7 7.56726e-10H23C24.6569 7.56726e-10 26 1.34315 26 3V15C26 16.6569 24.6569 18 23 18H7ZM6 15C6 15.5523 6.44772 16 7 16H23C23.5523 16 24 15.5523 24 15V4.921L15.573 10.821C15.2287 11.0621 14.7703 11.0621 14.426 10.821L6 4.921V15ZM23.895 2.554L15 8.78L6.105 2.553C6.27442 2.21395 6.62097 1.99982 7 2H23C23.3792 2.00001 23.7259 2.21456 23.895 2.554Z" fill="white"/>
<mask id="mask0_16_29" style="mask-type:alpha" maskUnits="userSpaceOnUse" x="4" y="0" width="22" height="18">
<path fill-rule="evenodd" clip-rule="evenodd" d="M7 18C5.34315 18 4 16.6569 4 15V3.01C4 3 4 2.99 4 2.98C4.01099 1.33096 5.35092 -3.66458e-05 7 7.56726e-10H23C24.6569 7.56726e-10 26 1.34315 26 3V15C26 16.6569 24.6569 18 23 18H7ZM6 15C6 15.5523 6.44772 16 7 16H23C23.5523 16 24 15.5523 24 15V4.921L15.573 10.821C15.2287 11.0621 14.7703 11.0621 14.426 10.821L6 4.921V15ZM15 8.78L23.895 2.554C23.7259 2.21456 23.3792 2.00001 23 2H7C6.62097 1.99982 6.27442 2.21395 6.105 2.553L15 8.78Z" fill="white"/>
</mask>
<g mask="url(#mask0_16_29)">
<rect x="3" y="-3" width="24" height="24" fill="white"/>
</g>
</g>
<defs>
<filter id="filter0_d_16_29" x="0" y="0" width="30" height="26" filterUnits="userSpaceOnUse" color-interpolation-filters="sRGB">
<feFlood flood-opacity="0" result="BackgroundImageFix"/>
<feColorMatrix in="SourceAlpha" type="matrix" values="0 0 0 0 0 0 0 0 0 0 0 0 0 0 0 0 0 0 127 0" result="hardAlpha"/>
<feOffset dy="4"/>
<feGaussianBlur stdDeviation="2"/>
<feComposite in2="hardAlpha" operator="out"/>
<feColorMatrix type="matrix" values="0 0 0 0 0 0 0 0 0 0 0 0 0 0 0 0 0 0 0.25 0"/>
<feBlend mode="normal" in2="BackgroundImageFix" result="effect1_dropShadow_16_29"/>
<feBlend mode="normal" in="SourceGraphic" in2="effect1_dropShadow_16_29" result="shape"/>
</filter>
</defs>
</svg>
