<svg width="20" height="20" viewBox="0 0 20 20" fill="none" xmlns="http://www.w3.org/2000/svg">
<mask id="mask0_1_23" style="mask-type:alpha" maskUnits="userSpaceOnUse" x="0" y="0" width="20" height="20">
<path fill-rule="evenodd" clip-rule="evenodd" d="M1.00706 20C0.747429 19.9997 0.497448 19.9015 0.307065 19.725C0.108194 19.5367 -0.00307743 19.2739 6.47922e-05 19V3C6.47922e-05 1.34315 1.34321 0 3.00006 0H17.0001C18.6569 0 20.0001 1.34315 20.0001 3V13C20.0001 14.6569 18.6569 16 17.0001 16H5.41406L1.70706 19.707C1.52216 19.8941 1.27014 19.9996 1.00706 20ZM3.00006 2C2.44778 2 2.00006 2.44772 2.00006 3V16.586L4.29307 14.293C4.48099 14.1061 4.73502 14.0008 5.00006 14H17.0001C17.5523 14 18.0001 13.5523 18.0001 13V3C18.0001 2.44772 17.5523 2 17.0001 2H3.00006Z" fill="white"/>
</mask>
<g mask="url(#mask0_1_23)">
<rect x="-2" y="-2" width="24" height="24" fill="white"/>
</g>
</svg>
