<svg width="18" height="20" viewBox="0 0 18 20" fill="none" xmlns="http://www.w3.org/2000/svg">
<path fill-rule="evenodd" clip-rule="evenodd" d="M9 10C6.23858 10 4 7.76142 4 5C4 2.23858 6.23858 0 9 0C11.7614 0 14 2.23858 14 5C13.9967 7.76005 11.7601 9.99669 9 10ZM17 20C16.4477 20 16 19.5523 16 19V17C16 15.3431 14.6569 14 13 14H5C3.34315 14 2 15.3431 2 17V19C2 19.5523 1.55228 20 1 20C0.447715 20 0 19.5523 0 19V17C0.00330612 14.2399 2.23995 12.0033 5 12H13C15.7601 12.0033 17.9967 14.2399 18 17V19C18 19.5523 17.5523 20 17 20ZM6 5C6 3.34315 7.34315 2 9 2C10.6569 2 12 3.34315 12 5C12 6.65685 10.6569 8 9 8C7.34315 8 6 6.65685 6 5Z" fill="#333333"/>
<mask id="mask0_5_132" style="mask-type:alpha" maskUnits="userSpaceOnUse" x="0" y="0" width="18" height="20">
<path fill-rule="evenodd" clip-rule="evenodd" d="M17 20C16.4477 20 16 19.5523 16 19V17C16 15.3431 14.6569 14 13 14H5C3.34315 14 2 15.3431 2 17V19C2 19.5523 1.55228 20 1 20C0.447715 20 0 19.5523 0 19V17C0.00330612 14.2399 2.23995 12.0033 5 12H13C15.7601 12.0033 17.9967 14.2399 18 17V19C18 19.5523 17.5523 20 17 20ZM9 10C6.23858 10 4 7.76142 4 5C4 2.23858 6.23858 0 9 0C11.7614 0 14 2.23858 14 5C13.9967 7.76005 11.7601 9.99669 9 10ZM9 2C7.34315 2 6 3.34315 6 5C6 6.65685 7.34315 8 9 8C10.6569 8 12 6.65685 12 5C12 3.34315 10.6569 2 9 2Z" fill="white"/>
</mask>
<g mask="url(#mask0_5_132)">
<rect x="-3" y="-2" width="24" height="24" fill="#333333"/>
</g>
</svg>
