<svg width="58" height="58" viewBox="0 0 58 58" fill="none" xmlns="http://www.w3.org/2000/svg">
<g filter="url(#filter0_d_20_548)">
<path d="M4 20C4 8.9543 12.9543 0 24 0H34C45.0457 0 54 8.95431 54 20V30C54 41.0457 45.0457 50 34 50H24C12.9543 50 4 41.0457 4 30V20Z" fill="url(#paint0_linear_20_548)"/>
</g>
<path fill-rule="evenodd" clip-rule="evenodd" d="M29 24C26.2386 24 24 21.7614 24 19C24 16.2386 26.2386 14 29 14C31.7614 14 34 16.2386 34 19C33.9967 21.7601 31.7601 23.9967 29 24ZM37 34C36.4477 34 36 33.5523 36 33V31C36 29.3431 34.6569 28 33 28H25C23.3431 28 22 29.3431 22 31V33C22 33.5523 21.5523 34 21 34C20.4477 34 20 33.5523 20 33V31C20.0033 28.2399 22.2399 26.0033 25 26H33C35.7601 26.0033 37.9967 28.2399 38 31V33C38 33.5523 37.5523 34 37 34ZM26 19C26 17.3431 27.3431 16 29 16C30.6569 16 32 17.3431 32 19C32 20.6569 30.6569 22 29 22C27.3431 22 26 20.6569 26 19Z" fill="#333333"/>
<mask id="mask0_20_548" style="mask-type:alpha" maskUnits="userSpaceOnUse" x="20" y="14" width="18" height="20">
<path fill-rule="evenodd" clip-rule="evenodd" d="M37 34C36.4477 34 36 33.5523 36 33V31C36 29.3431 34.6569 28 33 28H25C23.3431 28 22 29.3431 22 31V33C22 33.5523 21.5523 34 21 34C20.4477 34 20 33.5523 20 33V31C20.0033 28.2399 22.2399 26.0033 25 26H33C35.7601 26.0033 37.9967 28.2399 38 31V33C38 33.5523 37.5523 34 37 34ZM29 24C26.2386 24 24 21.7614 24 19C24 16.2386 26.2386 14 29 14C31.7614 14 34 16.2386 34 19C33.9967 21.7601 31.7601 23.9967 29 24ZM29 16C27.3431 16 26 17.3431 26 19C26 20.6569 27.3431 22 29 22C30.6569 22 32 20.6569 32 19C32 17.3431 30.6569 16 29 16Z" fill="white"/>
</mask>
<g mask="url(#mask0_20_548)">
<rect x="17" y="12" width="24" height="24" fill="#333333"/>
</g>
<defs>
<filter id="filter0_d_20_548" x="0" y="0" width="58" height="58" filterUnits="userSpaceOnUse" color-interpolation-filters="sRGB">
<feFlood flood-opacity="0" result="BackgroundImageFix"/>
<feColorMatrix in="SourceAlpha" type="matrix" values="0 0 0 0 0 0 0 0 0 0 0 0 0 0 0 0 0 0 127 0" result="hardAlpha"/>
<feOffset dy="4"/>
<feGaussianBlur stdDeviation="2"/>
<feComposite in2="hardAlpha" operator="out"/>
<feColorMatrix type="matrix" values="0 0 0 0 0 0 0 0 0 0 0 0 0 0 0 0 0 0 0.25 0"/>
<feBlend mode="normal" in2="BackgroundImageFix" result="effect1_dropShadow_20_548"/>
<feBlend mode="normal" in="SourceGraphic" in2="effect1_dropShadow_20_548" result="shape"/>
</filter>
<linearGradient id="paint0_linear_20_548" x1="4" y1="0" x2="4" y2="50" gradientUnits="userSpaceOnUse">
<stop stop-color="white"/>
<stop offset="1" stop-color="#FEFEFE"/>
</linearGradient>
</defs>
</svg>
