<svg width="16" height="20" viewBox="0 0 16 20" fill="none" xmlns="http://www.w3.org/2000/svg">
<path fill-rule="evenodd" clip-rule="evenodd" d="M14.3501 19.757C14.5286 19.9133 14.7577 19.9997 14.9951 20C15.5479 19.9995 15.9968 19.5529 16.0001 19V3C16.0001 1.34315 14.6569 0 13.0001 0H3.00005C1.3432 0 5.42536e-05 1.34315 5.42536e-05 3V19C-0.00280725 19.2728 0.107636 19.5346 0.305054 19.723C0.494915 19.9006 0.745071 19.9996 1.00505 20C1.24244 20.0004 1.47193 19.9148 1.65105 19.759L8.00005 14.317L14.3501 19.757ZM8.65105 12.241C8.46979 12.0855 8.23887 12 8.00005 12C7.76124 12 7.53032 12.0855 7.34905 12.241L2.00005 16.826V3C2.00005 2.44772 2.44777 2 3.00005 2H13.0001C13.5523 2 14.0001 2.44772 14.0001 3V16.826L8.65105 12.241Z" fill="white"/>
</svg>
