<svg width="21" height="21" viewBox="0 0 21 21" fill="none" xmlns="http://www.w3.org/2000/svg">
<g id="Icon_search">
<g id="Group_8">
<path id="Combined_Shape-185" fill-rule="evenodd" clip-rule="evenodd" d="M13.7771 15.1911L18.3101 19.7251C18.7008 20.1159 19.3344 20.1159 19.7251 19.7251C20.1159 19.3344 20.1159 18.7008 19.7251 18.3101L15.1911 13.7771C17.9802 10.2394 17.5286 5.141 14.1612 2.14856C10.7939 -0.843868 5.67768 -0.693182 2.49225 2.49225C-0.693182 5.67768 -0.843868 10.7939 2.14856 14.1612C5.141 17.5286 10.2394 17.9802 13.7771 15.1911ZM6.00837 14.51C3.59272 13.4988 2.01976 11.1368 2.01811 8.51811C2.01623 5.58143 3.98366 3.00825 6.81812 2.2402C9.65259 1.47215 12.65 2.70003 14.131 5.23592C15.612 7.7718 15.2087 10.9857 13.1471 13.0771L13.1111 13.1111L13.0771 13.1471C11.2105 14.9838 8.42402 15.5211 6.00837 14.51Z" fill="#333333"/>
<g id="Mask_Group_8 Clipped">
<mask id="mask0_5_120" style="mask-type:alpha" maskUnits="userSpaceOnUse" x="0" y="0" width="21" height="21">
<path id="Combined_Shape-8" fill-rule="evenodd" clip-rule="evenodd" d="M18.3101 19.7251L13.7771 15.1911C10.2394 17.9802 5.141 17.5286 2.14856 14.1612C-0.843868 10.7939 -0.693182 5.67768 2.49225 2.49225C5.67768 -0.693182 10.7939 -0.843868 14.1612 2.14856C17.5286 5.141 17.9802 10.2394 15.1911 13.7771L19.7251 18.3101C20.1159 18.7008 20.1159 19.3344 19.7251 19.7251C19.3344 20.1159 18.7008 20.1159 18.3101 19.7251ZM2.01811 8.51811C2.01976 11.1368 3.59272 13.4988 6.00837 14.51C8.42402 15.5211 11.2105 14.9838 13.0771 13.1471L13.1111 13.1111L13.1471 13.0771C15.2087 10.9857 15.612 7.7718 14.131 5.23592C12.65 2.70003 9.65259 1.47215 6.81813 2.2402C3.98366 3.00825 2.01623 5.58143 2.01811 8.51811V8.51811Z" fill="white"/>
</mask>
<g mask="url(#mask0_5_120)">
<g id="Mask_Group_8">
<g id="Group">
<rect id="_Icon_Color-232" x="-1.98193" y="-1.98193" width="24" height="24" fill="#333333"/>
</g>
</g>
</g>
</g>
</g>
</g>
</svg>
