<svg width="20" height="16" viewBox="0 0 20 16" fill="none" xmlns="http://www.w3.org/2000/svg">
<path d="M7.99984 14.998C8.00013 15.396 7.76437 15.7563 7.39954 15.9154C7.03472 16.0745 6.61029 16.0021 6.31884 15.731L6.24084 15.649L0.240841 8.64901C-0.0483719 8.31015 -0.0785462 7.82084 0.166841 7.44901L0.240841 7.34901L6.24084 0.349012C6.49976 0.0468405 6.91319 -0.0730657 7.2936 0.0436842C7.67402 0.160434 7.94901 0.49162 7.99384 0.887012L7.99984 0.998012V3.99801L9.03784 4.08401C15.121 4.5891 19.8467 9.59585 19.9998 15.698V15.998L17.3408 14.479C14.6405 12.9361 11.5999 12.0861 8.49084 12.005L7.99984 11.998V14.998Z" fill="white"/>
</svg>
