<svg width="20" height="20" viewBox="0 0 20 20" fill="none" xmlns="http://www.w3.org/2000/svg">
<path fill-rule="evenodd" clip-rule="evenodd" d="M7.293 11.293C6.90262 11.6835 6.90262 12.3165 7.293 12.707C7.48057 12.8948 7.73509 13.0003 8.0005 13.0003C8.26591 13.0003 8.52043 12.8948 8.708 12.707L18 3.41501V7.00001C18 7.5523 18.4477 8.00001 19 8.00001C19.5523 8.00001 20 7.5523 20 7.00001V1.02801C20.012 0.649859 19.8096 0.29729 19.477 0.117011L19.458 0.107011H19.452L19.438 0.100011L19.426 0.0900115H19.418L19.4 0.0820115C19.2737 0.0274581 19.1376 -0.000457076 19 1.14617e-05H13C12.4477 1.14617e-05 12 0.447727 12 1.00001C12 1.5523 12.4477 2.00001 13 2.00001H16.585L7.293 11.293ZM0 17C0 18.6569 1.34315 20 3 20H14C15.6569 20 17 18.6569 17 17V11C17 10.4477 16.5523 10 16 10C15.4477 10 15 10.4477 15 11V17C15 17.5523 14.5523 18 14 18H3C2.44772 18 2 17.5523 2 17V6.00001C2 5.44773 2.44772 5.00001 3 5.00001H9C9.55229 5.00001 10 4.5523 10 4.00001C10 3.44773 9.55229 3.00001 9 3.00001H3C1.34315 3.00001 0 4.34316 0 6.00001V17Z" fill="#333333"/>
<mask id="mask0_1_100" style="mask-type:alpha" maskUnits="userSpaceOnUse" x="0" y="0" width="21" height="20">
<path fill-rule="evenodd" clip-rule="evenodd" d="M3 20C1.34315 20 0 18.6569 0 17V6.00001C0 4.34316 1.34315 3.00001 3 3.00001H9C9.55228 3.00001 10 3.44773 10 4.00001C10 4.5523 9.55228 5.00001 9 5.00001H3C2.44772 5.00001 2 5.44773 2 6.00001V17C2 17.5523 2.44772 18 3 18H14C14.5523 18 15 17.5523 15 17V11C15 10.4477 15.4477 10 16 10C16.5523 10 17 10.4477 17 11V17C17 18.6569 15.6569 20 14 20H3ZM7.293 12.707C6.90262 12.3165 6.90262 11.6835 7.293 11.293L16.585 2.00001H13C12.4477 2.00001 12 1.5523 12 1.00001C12 0.447727 12.4477 1.14617e-05 13 1.14617e-05H19C19.1376 -0.000457076 19.2737 0.0274581 19.4 0.0820115V0.0820115L19.418 0.0900115H19.426L19.438 0.100011L19.452 0.107011H19.458L19.477 0.117011V0.117011C19.8096 0.29729 20.012 0.649859 20 1.02801V7.00001C20 7.5523 19.5523 8.00001 19 8.00001C18.4477 8.00001 18 7.5523 18 7.00001V3.41501L8.708 12.707C8.52043 12.8948 8.26591 13.0003 8.0005 13.0003C7.73509 13.0003 7.48057 12.8948 7.293 12.707Z" fill="white"/>
</mask>
<g mask="url(#mask0_1_100)">
<rect x="-2" y="-2" width="24" height="24" fill="#333333"/>
</g>
</svg>
