<svg width="58" height="59" viewBox="0 0 58 59" fill="none" xmlns="http://www.w3.org/2000/svg">
<g filter="url(#filter0_d_20_550)">
<circle cx="29" cy="25.5" r="25" fill="#6C2ED2"/>
</g>
<path fill-rule="evenodd" clip-rule="evenodd" d="M30.7319 34.0001H21.6999C20.7102 34.01 19.7621 33.6027 19.0879 32.8781C18.377 32.1597 17.9849 31.1856 17.9999 30.1751V20.8251C17.9849 19.816 18.3758 18.8432 19.0849 18.1251C19.7592 17.3985 20.7087 16.99 21.6999 17.0001H30.7359C31.7256 16.9901 32.6738 17.3974 33.3479 18.1221C34.057 18.8402 34.448 19.813 34.4329 20.8221V23.0171L39.5999 17.6781C39.7463 17.5132 39.9575 17.4207 40.1779 17.4251C40.2879 17.4269 40.3965 17.4497 40.4979 17.4921C40.815 17.6198 41.0158 17.9348 40.9979 18.2761V32.7251C41.0158 33.0664 40.815 33.3814 40.4979 33.5091C40.3965 33.5514 40.2879 33.5742 40.1779 33.5761C39.9576 33.58 39.7465 33.4876 39.5999 33.3231L34.4289 27.9701V30.1701C34.4439 31.1791 34.053 32.152 33.3439 32.8701C32.6712 33.5977 31.7229 34.008 30.7319 34.0001ZM30.2669 20.0901C29.8436 20.0906 29.5005 20.4337 29.4999 20.8571V20.8701C29.4999 21.2934 29.8431 21.6366 30.2664 21.6366C30.6898 21.6366 31.0329 21.2934 31.0329 20.8701V20.8571C31.0324 20.4342 30.6898 20.0916 30.2669 20.0911V20.0901ZM21.1464 20.4681C21.2907 20.2249 21.5563 20.0799 21.8389 20.0901H27.1939C27.4765 20.0799 27.7422 20.2249 27.8865 20.4681C28.0308 20.7113 28.0308 21.0139 27.8865 21.2571C27.7422 21.5003 27.4765 21.6452 27.1939 21.6351H21.8389C21.5563 21.6452 21.2907 21.5003 21.1464 21.2571C21.002 21.0139 21.002 20.7113 21.1464 20.4681Z" fill="white"/>
<defs>
<filter id="filter0_d_20_550" x="0" y="0.5" width="58" height="58" filterUnits="userSpaceOnUse" color-interpolation-filters="sRGB">
<feFlood flood-opacity="0" result="BackgroundImageFix"/>
<feColorMatrix in="SourceAlpha" type="matrix" values="0 0 0 0 0 0 0 0 0 0 0 0 0 0 0 0 0 0 127 0" result="hardAlpha"/>
<feOffset dy="4"/>
<feGaussianBlur stdDeviation="2"/>
<feComposite in2="hardAlpha" operator="out"/>
<feColorMatrix type="matrix" values="0 0 0 0 0 0 0 0 0 0 0 0 0 0 0 0 0 0 0.35 0"/>
<feBlend mode="normal" in2="BackgroundImageFix" result="effect1_dropShadow_20_550"/>
<feBlend mode="normal" in="SourceGraphic" in2="effect1_dropShadow_20_550" result="shape"/>
</filter>
</defs>
</svg>
