<svg width="23" height="17" viewBox="0 0 23 17" fill="none" xmlns="http://www.w3.org/2000/svg">
<path fill-rule="evenodd" clip-rule="evenodd" d="M12.7319 17.0001H3.69993C2.71022 17.01 1.76206 16.6027 1.08793 15.8781C0.376994 15.1597 -0.0151031 14.1856 -7.09515e-05 13.1751V3.82506C-0.0150904 2.81598 0.375841 1.84315 1.08493 1.12506C1.75924 0.398489 2.70872 -0.00998634 3.69993 5.89325e-05H12.7359C13.7256 -0.00991192 14.6738 0.397373 15.3479 1.12206C16.057 1.84016 16.448 2.81298 16.4329 3.82206V6.01706L21.5999 0.678059C21.7463 0.513181 21.9575 0.420716 22.1779 0.425059C22.2879 0.426945 22.3965 0.449681 22.4979 0.492059C22.815 0.619756 23.0158 0.93475 22.9979 1.27606V15.7251C23.0158 16.0664 22.815 16.3814 22.4979 16.5091C22.3965 16.5514 22.2879 16.5742 22.1779 16.5761C21.9576 16.58 21.7465 16.4876 21.5999 16.3231L16.4289 10.9701V13.1701C16.4439 14.1791 16.053 15.152 15.3439 15.8701C14.6712 16.5977 13.7229 17.008 12.7319 17.0001ZM12.2669 3.09006C11.8436 3.09061 11.5005 3.43369 11.4999 3.85706V3.87006C11.4999 4.29339 11.8431 4.63656 12.2664 4.63656C12.6898 4.63656 13.0329 4.29339 13.0329 3.87006V3.85706C13.0324 3.43424 12.6898 3.09161 12.2669 3.09106V3.09006ZM3.14638 3.46806C3.2907 3.22486 3.55631 3.07989 3.83893 3.09006H9.19393C9.47655 3.07989 9.74216 3.22486 9.88648 3.46806C10.0308 3.71126 10.0308 4.01386 9.88648 4.25706C9.74216 4.50026 9.47655 4.64523 9.19393 4.63506H3.83893C3.55631 4.64523 3.2907 4.50026 3.14638 4.25706C3.00205 4.01386 3.00205 3.71126 3.14638 3.46806Z" fill="white"/>
</svg>
