<svg width="15" height="15" viewBox="0 0 15 15" fill="none" xmlns="http://www.w3.org/2000/svg">
<path d="M8.42631 7.01231L13.7193 1.71931C13.9793 1.46824 14.0835 1.09644 13.992 0.746806C13.9005 0.397176 13.6275 0.124131 13.2778 0.0326158C12.9282 -0.0588996 12.5564 0.0453564 12.3053 0.305313L7.01231 5.59831L1.71931 0.305313C1.32693 -0.0736592 0.703228 -0.0682394 0.317494 0.317494C-0.0682394 0.703228 -0.0736592 1.32693 0.305313 1.71931L5.59831 7.01231L0.305313 12.3053C0.0453564 12.5564 -0.0588996 12.9282 0.0326158 13.2778C0.124131 13.6275 0.397176 13.9005 0.746806 13.992C1.09644 14.0835 1.46824 13.9793 1.71931 13.7193L7.01231 8.42631L12.3053 13.7193C12.6977 14.0983 13.3214 14.0929 13.7071 13.7071C14.0929 13.3214 14.0983 12.6977 13.7193 12.3053L8.42631 7.01231Z" fill="url(#paint0_linear_20_605)"/>
<defs>
<linearGradient id="paint0_linear_20_605" x1="0" y1="0" x2="0" y2="14.0246" gradientUnits="userSpaceOnUse">
<stop stop-color="white"/>
<stop offset="1" stop-color="white"/>
</linearGradient>
</defs>
</svg>
